<?xml version="1.0" encoding="UTF-8" standalone="no"?>
<svg
   xmlns:dc="http://purl.org/dc/elements/1.1/"
   xmlns:cc="http://creativecommons.org/ns#"
   xmlns:rdf="http://www.w3.org/1999/02/22-rdf-syntax-ns#"
   xmlns:svg="http://www.w3.org/2000/svg"
   xmlns="http://www.w3.org/2000/svg"
   xmlns:sodipodi="http://sodipodi.sourceforge.net/DTD/sodipodi-0.dtd"
   xmlns:inkscape="http://www.inkscape.org/namespaces/inkscape"
   width="210mm"
   height="297mm"
   viewBox="0 0 210 297"
   version="1.1"
   id="svg8"
   inkscape:version="1.0.2-2 (e86c870879, 2021-01-15)"
   sodipodi:docname="astronauta_sozinho.svg">
  <defs
     id="defs2" />
  <sodipodi:namedview
     id="base"
     pagecolor="#ffffff"
     bordercolor="#666666"
     borderopacity="1.0"
     inkscape:pageopacity="0.0"
     inkscape:pageshadow="2"
     inkscape:zoom="0.98994949"
     inkscape:cx="375.38142"
     inkscape:cy="491.52196"
     inkscape:document-units="mm"
     inkscape:current-layer="layer1"
     inkscape:document-rotation="0"
     showgrid="false"
     inkscape:window-width="1920"
     inkscape:window-height="1057"
     inkscape:window-x="-8"
     inkscape:window-y="-8"
     inkscape:window-maximized="1" />
  <metadata
     id="metadata5">
    <rdf:RDF>
      <cc:Work
         rdf:about="">
        <dc:format>image/svg+xml</dc:format>
        <dc:type
           rdf:resource="http://purl.org/dc/dcmitype/StillImage" />
        <dc:title></dc:title>
      </cc:Work>
    </rdf:RDF>
  </metadata>
  <g
     inkscape:label="Layer 1"
     inkscape:groupmode="layer"
     id="layer1">
    <g
       id="g1449"
       transform="translate(1.0690781,-18.976136)">
      <path
         style="fill:#3936eb;fill-opacity:1;stroke:#3936eb;stroke-width:0.264583;stroke-opacity:1"
         d="m 98.201504,208.95609 c -0.43143,-0.33937 -0.65319,-0.71746 -0.56128,-0.95698 0.12891,-0.33592 -0.0792,-0.36758 -1.37298,-0.20881 -0.83871,0.10292 -1.89616,0.4145 -2.3499,0.69239 -0.94107,0.57635 -2.4542,0.66301 -3.04733,0.17452 -0.22087,-0.1819 -0.77317,-0.81623 -1.22732,-1.40962 -0.6195,-0.80941 -1.27529,-1.26069 -2.62556,-1.80675 -2.527821,-1.02228 -2.547752,-1.03612 -2.77936,-1.92993 -0.180528,-0.69667 -0.515519,-0.93922 -2.524715,-1.82797 -3.51019,-1.5527 -4.241758,-2.01733 -6.701682,-4.25633 -2.803448,-2.55167 -4.144166,-4.0224 -5.379508,-5.90117 -0.903615,-1.37426 -1.04866,-1.47728 -2.607569,-1.85208 l -1.650731,-0.39688 -1.190625,-2.33092 c -0.673585,-1.3187 -1.722183,-2.86982 -2.414682,-3.57188 -0.673231,-0.68252 -1.662916,-1.76711 -2.199299,-2.41019 l -0.975242,-1.16925 0.0433,-2.66721 c 0.02986,-1.83928 -0.08954,-3.07786 -0.384642,-3.99013 -1.426018,-4.40829 -2.591533,-11.61029 -2.590494,-16.00729 0.001,-4.40754 1.227725,-11.35311 2.628508,-14.88282 0.554518,-1.39727 1.278455,-1.34027 1.680077,0.1323 0.517353,1.89689 1.836414,5.75747 2.870245,8.40052 0.540746,1.38244 1.314378,3.70416 1.719181,5.15937 1.270241,4.56632 1.362261,4.73958 4.189538,7.88807 4.248446,4.73113 5.496253,5.95428 7.604342,7.4541 1.091406,0.77649 2.69086,2.08264 3.554341,2.90255 3.257336,3.09296 6.40433,4.69019 9.930367,5.04007 1.08643,0.10781 2.7516,0.41126 3.70036,0.67435 0.94877,0.26308 1.76423,0.43914 1.81213,0.39124 0.1061,-0.10611 -2.14922,-0.83553 -3.277,-1.05986 -0.69502,-0.13824 -0.94015,-0.42594 -1.65025,-1.93685 -0.69639,-1.48172 -0.8126,-1.62069 -0.70434,-0.84225 0.0854,0.61374 -0.0187,1.1441 -0.30466,1.55229 -0.37864,0.54059 -0.58195,0.5998 -1.58661,0.4621 -2.554551,-0.35014 -4.902159,-2.17512 -5.967748,-4.6392 -1.095258,-2.53269 -2.238795,-8.45909 -2.711063,-14.05015 -0.09219,-1.09141 -0.425437,-3.71078 -0.740545,-5.82083 -0.672759,-4.50495 -0.782037,-11.18105 -0.233866,-14.2875 0.631201,-3.57698 2.208893,-6.09533 5.053627,-8.06673 0.953564,-0.66082 1.204142,-0.72282 2.061009,-0.50997 1.097722,0.27269 1.173869,0.43642 1.629446,3.50348 0.19788,1.33217 0.61803,2.57944 1.34364,3.98878 1.33159,2.58626 1.33591,3.17078 0.034,4.59608 -0.64631,0.70758 -1.09122,1.49933 -1.21089,2.15489 -0.10406,0.56998 -0.55281,1.9392 -0.997239,3.04271 -1.223925,3.039 -1.028255,5.6237 0.712719,9.41471 0.37767,0.8224 0.67441,2.11824 0.78428,3.425 0.18521,2.20271 0.45807,3.09238 0.7858,2.56211 0.26958,-0.4362 1.99288,-0.37442 2.16636,0.0777 0.33529,0.87375 5.01969,4.15952 8.1124,5.69026 3.900766,1.93069 5.486726,2.28988 11.173486,2.53059 8.02127,0.33952 9.39271,1.23729 9.39271,6.14863 0,2.42413 -0.37312,4.08102 -1.71078,7.59684 -0.76981,2.02334 -1.4641,5.27195 -1.46417,6.85093 -3e-5,0.67692 0.3224,1.59193 0.9674,2.74529 1.14166,2.04147 1.25169,3.51105 0.37423,4.99823 -0.75757,1.28399 -0.10264,1.02255 0.90728,-0.36217 0.43656,-0.59858 0.96594,-1.0956 1.1764,-1.10449 0.21047,-0.009 0.85075,0.30822 1.42287,0.7047 2.01795,1.39844 6.32069,1.0385 7.91114,-0.66179 1.74956,-1.87042 2.01445,-3.72494 0.90485,-6.33496 -0.76347,-1.79583 -0.85483,-3.04438 -0.45415,-6.20653 0.13502,-1.06556 0.39693,-3.48315 0.58201,-5.37242 0.30165,-3.07918 0.40377,-3.49736 0.98571,-4.03669 0.62911,-0.58304 2.82484,-1.39181 3.77862,-1.39181 2.20561,0 2.976,2.53634 1.60938,5.29852 -0.28613,0.57832 -0.48046,1.05148 -0.43184,1.05148 0.0486,0 0.39223,-0.32742 0.7636,-0.7276 2.09177,-2.25408 1.8053,-6.25791 -0.50279,-7.02727 -1.01959,-0.33987 -2.42479,0.12056 -3.97087,1.30108 -0.68942,0.52641 -1.34681,0.85441 -1.46087,0.72889 -0.11405,-0.12552 -0.27896,-0.95845 -0.36645,-1.85094 l -0.15907,-1.62271 1.03842,-0.71963 c 1.59053,-1.10224 3.49174,-3.24359 4.72427,-5.32099 0.61273,-1.03274 1.54025,-2.37561 2.06114,-2.98416 0.5209,-0.60855 1.52713,-1.96624 2.23608,-3.01708 0.70895,-1.05085 1.71662,-2.50594 2.23926,-3.23355 2.56145,-3.56597 3.58353,-6.77388 5.04448,-15.83273 0.59225,-3.67239 1.45992,-4.93041 2.53835,-3.68029 0.52401,0.60743 1.61992,4.54088 2.51676,9.03317 0.62461,3.1287 0.71946,4.2423 0.72358,8.49548 0.005,5.16764 -0.17113,6.63423 -1.46167,12.17083 -0.94811,4.0675 -1.28145,5.12279 -2.45794,7.78129 -0.78263,1.7685 -0.90273,2.29027 -0.77515,3.36751 0.14061,1.1872 0.0855,1.34718 -0.80195,2.32951 -1.19038,1.31762 -2.12956,3.14978 -2.66001,5.18922 -0.23665,0.90981 -0.64864,1.76833 -0.97712,2.03612 -0.60689,0.49476 -2.09683,0.63727 -2.09683,0.20055 0,-0.61983 -4.46182,4.68637 -7.22882,8.59684 -0.92672,1.30969 -2.28987,2.8575 -3.02921,3.43959 -0.91647,0.72153 -1.35053,1.25889 -1.36395,1.68855 -0.041,1.31303 -3.01404,3.20624 -5.03498,3.20624 -0.4394,0 -0.95028,0.29923 -1.41494,0.82877 -0.67796,0.77262 -0.81192,0.81727 -1.97715,0.65903 -0.68745,-0.0934 -1.83414,-0.36301 -2.54819,-0.59924 -2.0695,-0.68464 -4.55401,-0.37388 -7.86607,0.98388 -2.38365,0.97715 -3.03575,1.13252 -4.99086,1.18913 -1.23692,0.0358 -2.76994,0.25457 -3.4067,0.48614 -1.71203,0.62261 -4.022356,0.55672 -4.908066,-0.13998 z m 4.783716,-0.62961 c 0.55032,-0.22994 1.79876,-0.40176 2.96806,-0.40848 1.11002,-0.006 2.43493,-0.16378 2.94425,-0.34975 0.50933,-0.18598 1.93808,-0.70611 3.175,-1.15584 1.96277,-0.71365 5.51818,-1.37013 8.06318,-1.48881 0.89487,-0.0417 1.3097,0.76969 0.48474,0.94816 -0.26297,0.0569 0.11367,0.19723 0.83698,0.31185 1.20313,0.19067 1.36321,0.1525 1.87998,-0.44828 0.36312,-0.42216 0.98015,-0.72396 1.7276,-0.84503 0.6395,-0.10357 1.63898,-0.40627 2.22106,-0.67266 1.11936,-0.51227 2.73907,-1.71346 1.91823,-1.42258 -1.05719,0.37464 -0.34715,-0.68004 1.74995,-2.59933 1.43066,-1.30936 2.87072,-2.9894 4.07363,-4.7525 1.02337,-1.49994 3.00829,-3.97732 4.41093,-5.50529 2.41574,-2.63159 3.50453,-3.36842 3.42093,-2.3151 -0.0425,0.53544 0.51107,0.61718 0.8959,0.13229 0.14436,-0.1819 0.34757,-0.80197 0.45158,-1.37793 0.29446,-1.63068 1.5324,-4.11867 2.74549,-5.51783 0.94548,-1.0905 1.06214,-1.35161 0.8124,-1.81826 -0.38953,-0.72784 -0.1949,-1.55437 1.05742,-4.49062 2.08815,-4.89593 3.4493,-11.49689 3.64684,-17.68547 0.11608,-3.63668 0.0478,-4.921 -0.40867,-7.69177 -0.62424,-3.78884 -2.22433,-10.21272 -2.6498,-10.6382 -0.42048,-0.42048 -0.96295,1.10826 -1.34059,3.77789 -0.84266,5.95712 -2.10639,10.67961 -3.58467,13.39577 -0.48547,0.89199 -1.6147,2.60908 -2.50939,3.81575 -0.89469,1.20667 -1.81085,2.55003 -2.03592,2.98526 -0.22506,0.43523 -0.7933,1.18682 -1.26275,1.6702 -0.46946,0.48338 -1.46248,1.86301 -2.20673,3.06584 -1.41783,2.29146 -2.61218,3.68104 -4.49697,5.23205 -1.0064,0.82817 -1.11036,1.01769 -0.96283,1.75529 l 0.16537,0.82689 1.09754,-0.63171 c 3.28458,-1.89049 5.63978,-1.12873 6.30103,2.03799 0.43282,2.07273 -0.19716,4.11364 -1.7487,5.66517 -1.49052,1.49052 -2.48424,1.98426 -4.76445,2.36726 l -1.86535,0.31331 -0.17227,1.43849 c -0.3608,3.01271 -0.25118,4.58914 0.43685,6.2824 1.03249,2.54096 0.87113,4.35794 -0.57348,6.45771 -0.89569,1.30191 -2.42248,1.99417 -4.87864,2.21202 -2.14671,0.1904 -3.56888,-0.10202 -4.67424,-0.96111 -0.59348,-0.46125 -0.6195,-0.44947 -1.98437,0.89853 -0.76066,0.75125 -2.09739,1.72302 -2.97052,2.1595 -1.37313,0.68644 -1.87331,0.79263 -3.70416,0.78642 -2.57299,-0.009 -3.58492,-0.47124 -6.02496,-2.75378 -1.82232,-1.7047 -2.76098,-3.32631 -3.53242,-6.10258 -0.62961,-2.26588 -0.64957,-8.60877 -0.0348,-11.04636 l 0.41709,-1.65364 -1.23331,-0.0417 c -0.67832,-0.0229 -1.411896,-0.0275 -1.630176,-0.0101 -0.21828,0.0174 -2.06375,-0.49374 -4.10104,-1.13585 -2.04905,-0.64582 -4.71501,-1.28437 -5.96643,-1.42909 -3.902864,-0.45134 -6.751908,-1.89082 -10.301769,-5.20497 -0.947913,-0.88497 -2.519022,-2.17069 -3.491355,-2.85715 -1.777124,-1.25464 -5.741243,-5.22546 -8.868064,-8.88305 -1.382718,-1.61742 -1.776872,-2.29933 -2.217533,-3.83645 -0.647035,-2.25702 -2.106811,-6.65287 -3.871711,-11.659 -0.718244,-2.03729 -1.388229,-4.00182 -1.488855,-4.36562 -0.259475,-0.9381 -0.493202,-0.42762 -1.332539,2.91042 -2.11755,8.42146 -2.190695,12.15073 -0.412106,21.01093 0.936534,4.66543 1.837984,7.49606 2.932472,9.20821 0.778398,1.21769 0.813687,1.79544 0.109664,1.79544 -0.191875,0 -0.510235,-0.19444 -0.707468,-0.43209 -0.31941,-0.38487 -0.378427,-0.33518 -0.53996,0.45463 -0.2362,1.15489 -0.01686,1.52765 2.458807,4.17878 1.469101,1.57322 2.348036,2.80243 3.026986,4.23333 1.031954,2.17486 1.238962,2.40303 2.185818,2.40922 0.605919,0.004 0.598348,-0.0263 -0.330289,-1.31887 -0.522731,-0.7276 -0.82453,-1.32292 -0.670663,-1.32292 0.153868,0 0.198833,-0.13094 0.09992,-0.29098 -0.130244,-0.21074 -0.03222,-0.21198 0.355467,-0.004 0.732517,0.39203 1.873797,1.89911 3.229198,4.26422 1.480905,2.58411 7.123404,8.24916 9.275265,9.31235 2.885904,1.42586 4.628434,2.14361 5.073066,2.08962 0.429741,-0.0522 0.569388,0.23859 0.792289,1.64971 0.05243,0.33195 0.728165,0.74164 2.15129,1.3043 1.68893,0.66774 2.27856,1.06191 3.17004,2.11915 1.55221,1.84084 1.78989,1.92246 3.28315,1.12754 1.03147,-0.54909 1.623,-0.66933 3.29274,-0.66933 2.23487,0 3.392766,0.30781 3.392766,0.90192 0,0.21781 -0.316856,0.43385 -0.727596,0.49607 -0.40018,0.0606 0.0204,0.12806 0.934536,0.14987 0.96779,0.0231 2.05894,-0.12615 2.612,-0.35724 z m -0.69683,-2.01507 c -1.08235,-0.43185 -1.59294,-1.05807 -1.59294,-1.95368 0,-1.76339 2.38938,-2.53997 4.56881,-1.48493 1.86612,0.90338 2.3855,2.68785 0.98744,3.39264 -0.77906,0.39273 -3.0288,0.41882 -3.96331,0.046 z m 3.80844,-1.10585 c 0.21892,-0.34705 0.1448,-0.57397 -0.34053,-1.04259 l -0.62035,-0.59899 0.35694,0.59532 c 0.29602,0.49371 0.29746,0.69053 0.008,1.15326 -0.27033,0.43288 -0.27401,0.53315 -0.0164,0.44728 0.18262,-0.0609 0.45796,-0.3103 0.61186,-0.55428 z m -1.28609,-0.20942 c 0.26028,-0.42115 -0.21091,-0.78127 -1.36191,-1.04086 -1.37671,-0.3105 -2.01948,0.16134 -1.16374,0.85427 0.6447,0.52204 2.24525,0.64028 2.52565,0.18659 z m -28.105966,-8.87187 c -3.148923,-2.36079 -4.391718,-4.21716 -3.523589,-5.26319 0.615808,-0.742 1.370939,-0.39976 3.348197,1.51748 2.296798,2.22708 3.109865,3.40909 2.868377,4.16996 -0.258043,0.81302 -1.251413,0.65652 -2.692985,-0.42425 z m 1.706108,-0.52285 c -0.27822,-0.61063 -0.332103,-0.63257 -0.487381,-0.19844 -0.09602,0.26845 -0.042,0.57556 0.120036,0.68247 0.555233,0.36634 0.679934,0.20203 0.367345,-0.48403 z m -1.263354,-0.71158 c 0,-0.0413 -0.68461,-0.72596 -1.521354,-1.52135 l -1.521355,-1.44617 1.446171,1.52135 c 1.343538,1.41339 1.596538,1.64256 1.596538,1.44617 z m -1.5875,-0.55388 c 0,-0.0549 -0.20836,-0.2633 -0.463021,-0.46302 -0.419645,-0.32911 -0.429003,-0.31975 -0.0999,0.0999 0.345644,0.44073 0.562917,0.58088 0.562917,0.36312 z m 0,-2.10805 c 0,-0.0502 -0.267891,-0.3181 -0.595313,-0.59532 l -0.595312,-0.50402 0.504028,0.59531 c 0.473663,0.55944 0.686597,0.71576 0.686597,0.50403 z m 18.754236,3.2662 c -1.37329,-0.72573 -3.34798,-3.02627 -3.69097,-4.30004 -0.62054,-2.30455 0.35159,-3.8246 2.68153,-4.19291 2.76745,-0.43748 5.30651,0.56764 6.863486,2.717 0.65896,0.90966 0.79172,1.34599 0.79172,2.60209 0,1.24295 -0.11665,1.63504 -0.66126,2.22268 -1.381376,1.49053 -4.135556,1.92828 -5.984506,0.95118 z m 4.26514,-0.67208 c 1.880746,-0.94309 2.233156,-2.79169 0.89256,-4.68198 -0.41849,-0.59008 -1.05842,-1.26391 -1.42208,-1.49739 -0.45559,-0.29251 -0.36035,-0.12086 0.30628,0.55204 1.11992,1.13045 1.44388,2.22599 1.02951,3.48154 -0.45842,1.38903 -1.37648,2.07931 -2.98107,2.24146 -1.10963,0.11213 -1.26137,0.17849 -0.73624,0.32196 0.78678,0.21497 1.99525,0.0416 2.91104,-0.41763 z m -1.79859,-0.66134 c 1.16935,-0.32477 2.06255,-1.36287 2.06255,-2.39714 0,-1.12554 -1.35419,-2.49405 -3.12274,-3.15575 -4.34227,-1.62465 -5.48373,1.89151 -1.65884,5.10994 0.93971,0.79072 1.27197,0.84484 2.71903,0.44295 z m -5.69972,-4.55348 c -0.0734,-0.1819 -0.13345,-0.0331 -0.13345,0.33073 0,0.3638 0.06,0.51263 0.13345,0.33073 0.0734,-0.1819 0.0734,-0.47956 0,-0.66146 z m 40.721796,4.67746 c -0.58709,-0.58709 -0.5273,-2.44077 0.11257,-3.49025 1.07304,-1.75993 3.30224,-2.0299 4.00607,-0.48516 0.77183,1.69398 -0.92914,4.39118 -2.76926,4.39118 -0.51349,0 -1.12071,-0.1871 -1.34938,-0.41577 z m 2.10029,-1.61545 c 0.26563,-0.63574 0.31659,-1.06279 0.14706,-1.23233 -0.50933,-0.50932 -1.73987,1.01617 -1.44324,1.78918 0.2741,0.71431 0.87246,0.45725 1.29618,-0.55685 z m 1.44864,-1.48018 c 0.006,-1.13174 -1.02629,-1.49547 -2.09168,-0.73684 -0.44808,0.31906 -0.81469,0.65534 -0.81469,0.7473 0,0.0919 0.14287,0.0243 0.3175,-0.15031 0.4384,-0.4384 1.66715,-0.39849 2.05321,0.0667 0.17838,0.21493 0.2433,0.65203 0.14736,0.99219 -0.13345,0.47314 -0.10985,0.51998 0.10638,0.21113 0.15283,-0.21828 0.27969,-0.72685 0.28192,-1.13015 z m -55.259292,-5.4065 c -2.305584,-1.13586 -4.866828,-4.44216 -5.227833,-6.74857 -0.303353,-1.9381 1.444048,-2.49293 3.695607,-1.17343 3.124383,1.83101 5.475291,7.11268 3.610198,8.11085 -0.668277,0.35765 -1.03663,0.32417 -2.077972,-0.18885 z m 1.838304,-0.76446 c 0.7438,-0.89622 -1.272315,-4.74287 -3.237285,-6.17659 -0.648005,-0.4728 -0.480119,-0.20604 0.627771,0.99753 2.2826,2.47971 2.710125,4.69171 0.901539,4.66453 -0.868328,-0.013 -0.86537,0.0329 0.03353,0.52056 0.940597,0.51028 1.246868,0.50917 1.67445,-0.006 z m -1.343721,-1.57557 c 0,-0.74786 -0.849871,-2.06936 -2.326259,-3.61719 -2.155798,-2.26014 -2.883101,-1.89473 -1.486143,0.74665 0.830381,1.57009 1.317096,2.14582 2.357194,2.78828 0.968981,0.59854 1.455208,0.62602 1.455208,0.0823 z m -5.110927,-4.93126 c -0.08446,-0.21107 -0.147156,-0.14838 -0.159851,0.15985 -0.01148,0.27891 0.05104,0.43518 0.138965,0.34727 0.08792,-0.0879 0.09732,-0.31613 0.02087,-0.50712 z m 70.636316,-6.25508 c -0.59788,-0.66065 -0.57141,-0.88316 0.50064,-4.20883 0.59876,-1.85745 1.16844,-3.12744 1.57361,-3.50808 0.70936,-0.66641 1.91516,-0.78882 2.29357,-0.23283 0.44567,0.65481 -0.0202,3.70899 -0.83186,5.45351 -1.25448,2.69628 -2.53611,3.60105 -3.53596,2.49623 z m 0.26651,-1.43438 c -0.0734,-0.1819 -0.13345,-0.0331 -0.13345,0.33073 0,0.36381 0.06,0.51263 0.13345,0.33073 0.0734,-0.1819 0.0734,-0.47955 0,-0.66146 z m 1.78622,-1.32526 c 0.90643,-1.83448 1.20406,-3.10651 0.72686,-3.10651 -0.27053,0 -0.67794,0.86975 -1.37069,2.92616 -0.92981,2.7601 -0.6672,2.83366 0.64383,0.18035 z m 1.50039,-4.77758 c -0.18939,-0.1894 -0.44794,-0.11723 -0.83501,0.23307 l -0.56068,0.50741 0.62057,0.14496 c 0.46809,0.10935 0.65124,0.36996 0.74537,1.06061 0.11284,0.82793 0.13339,0.79171 0.21444,-0.37803 0.0493,-0.71153 -0.0338,-1.41714 -0.18469,-1.56802 z m -90.578445,2.67506 c -0.623921,-0.45904 -1.616411,-4.02173 -1.409113,-5.05823 0.294165,-1.47082 1.345944,-2.10517 2.65657,-1.60224 1.308161,0.50199 1.899746,4.91454 0.843497,6.29153 -0.439095,0.57243 -1.548348,0.76815 -2.090954,0.36894 z m 1.579494,-1.27091 c 0.183411,-0.36252 0.317725,-1.25443 0.298475,-1.98204 l -0.035,-1.32291 -0.162321,1.45521 c -0.181381,1.62607 -0.405305,2.11666 -0.96612,2.11666 -0.209693,0 -0.38126,0.1278 -0.38126,0.28399 0,0.51949 0.90767,0.11824 1.246226,-0.55091 z m -0.629164,-2.61411 c -0.171805,-1.33941 -0.418823,-1.77063 -0.858591,-1.49884 -0.376186,0.23249 -0.36529,1.28117 0.02691,2.59022 0.281316,0.93895 0.350133,1.00121 0.651359,0.58925 0.220179,-0.30111 0.282621,-0.88308 0.180322,-1.68063 z m -1.764749,-0.88928 c -0.0734,-0.1819 -0.133452,-0.0331 -0.133452,0.33073 0,0.3638 0.06005,0.51263 0.133452,0.33073 0.0734,-0.1819 0.0734,-0.47956 0,-0.66146 z m 55.519564,40.52826 c 0.40317,-0.18783 0.27717,-0.22334 -0.52916,-0.14914 -1.55665,0.14325 -4.10021,-0.31363 -5.15938,-0.92675 -0.50932,-0.29482 -0.74745,-0.35916 -0.52916,-0.14297 0.94777,0.93871 2.50459,1.50259 4.09712,1.48398 0.87528,-0.0102 1.82954,-0.12953 2.12058,-0.26512 z m 0.20567,-1.05511 c 1.4275,-0.39642 2.77308,-1.67438 3.12017,-2.96337 0.26957,-1.00111 0.22163,-1.21457 -0.66518,-2.96173 -0.52563,-1.03557 -1.0251,-2.31058 -1.10994,-2.83334 -0.29024,-1.78856 0.66335,-6.23949 2.02838,-9.46756 1.29701,-3.06723 1.59124,-7.13302 0.62724,-8.66757 -1.1515,-1.83302 -2.17276,-2.11885 -8.76996,-2.45452 -2.72876,-0.13884 -5.67575,-0.43372 -6.54888,-0.65529 -3.318776,-0.84219 -10.741276,-5.21096 -12.533956,-7.37731 -0.19972,-0.24135 -0.5735,-0.43881 -0.83061,-0.43881 -0.42074,0 -0.45513,0.23154 -0.34383,2.3151 0.20073,3.75786 0.99675,7.64011 2.02896,9.89546 0.91036,1.98909 0.94615,2.02718 2.06958,2.20218 0.62875,0.0979 1.97663,0.57852 2.99528,1.06795 1.29488,0.62214 2.41394,0.94349 3.71968,1.06815 l 1.867596,0.1783 0.33624,-1.15367 c 0.4583,-1.57245 1.5148,-3.13806 2.11763,-3.13806 1.16107,0 1.2104,0.58215 0.39862,4.70462 -0.65138,3.30791 -0.76512,4.5119 -0.75536,7.99538 0.0106,3.77953 0.069,4.26699 0.74474,6.21771 1.30626,3.77076 2.64078,5.34256 5.32365,6.27025 1.53461,0.53064 2.76715,0.58847 4.17995,0.19613 z m -7.53258,-1.24086 c -1.53242,-1.642 -2.50066,-3.77539 -3.2359,-7.12983 -0.71271,-3.25165 -0.51816,-6.98113 0.68433,-13.11839 0.30733,-1.56853 0.48579,-2.92485 0.3966,-3.01404 -0.28761,-0.28761 -1.18664,1.06875 -1.52055,2.29403 -0.17846,0.65485 -0.43964,1.33946 -0.58039,1.52136 -0.18657,0.24108 -0.10372,0.33073 0.30564,0.33073 0.68732,0 0.71359,0.55617 0.16871,3.57187 -0.77973,4.31555 -0.33029,9.21686 1.12802,12.30148 0.59697,1.2627 2.7704,3.9704 3.18699,3.9704 0.0801,0 -0.15998,-0.32742 -0.53345,-0.72761 z m 27.51379,-18.32449 c 1.78729,-1.3214 2.76212,-4.67208 1.65165,-5.67704 -0.6659,-0.60262 -2.49953,-0.37287 -3.7501,0.4699 -0.94157,0.63452 -1.10009,1.11591 -1.39969,4.25071 l -0.17391,1.8196 1.41048,-0.11697 c 0.93098,-0.0772 1.69982,-0.33088 2.26157,-0.7462 z m -33.74678,-0.97838 c -0.327416,-0.0631 -0.863196,-0.0631 -1.190616,0 -0.32742,0.0631 -0.0595,0.11467 0.59531,0.11467 0.654846,0 0.922736,-0.0516 0.595306,-0.11467 z m -11.351346,-4.16898 c 0.0817,-0.21283 -0.19361,-1.79041 -0.61174,-3.50573 -1.27935,-5.24846 -1.58265,-7.21543 -1.32421,-8.58777 0.31448,-1.6699 -0.27685,-6.10295 -1.001962,-7.51146 -1.505464,-2.92432 -1.774786,-6.48086 -0.704154,-9.29865 0.375732,-0.98889 0.842322,-2.4277 1.036867,-3.19735 0.226658,-0.89671 0.694079,-1.77612 1.301229,-2.44816 0.52113,-0.57683 0.94751,-1.2769 0.94751,-1.55571 0,-0.27881 -0.48434,-1.43932 -1.0763,-2.57892 -0.80977,-1.5589 -1.147152,-2.59617 -1.362404,-4.18867 -0.157356,-1.16417 -0.401974,-2.26549 -0.543597,-2.4474 -0.377717,-0.48514 -1.228056,-0.40348 -1.8752,0.18007 -0.311552,0.28094 -1.017495,0.89258 -1.56876,1.35921 -2.387796,2.02117 -3.330871,4.93539 -3.547525,10.96229 -0.126709,3.52486 -0.05936,4.8311 0.402455,7.80521 0.305048,1.96453 0.686363,4.88156 0.847368,6.48229 0.717113,7.12964 1.784162,12.75016 2.803326,14.76608 0.77433,1.53165 1.702507,2.56112 2.827108,3.13564 2.014599,1.02919 3.212609,1.24762 3.449989,0.62903 z m 0.0889,-4.68974 c -0.0845,-0.21106 -0.14716,-0.14837 -0.15985,0.15986 -0.0115,0.27891 0.051,0.43518 0.13896,0.34726 0.0879,-0.0879 0.0973,-0.31612 0.0209,-0.50712 z m -0.43556,-2.49051 c -0.14513,-1.00402 -0.2746,-2.53988 -0.28771,-3.413 -0.0326,-2.17145 -0.39225,-3.06632 -0.58484,-1.45521 -0.0836,0.69923 0.0809,2.36692 0.39849,4.04073 0.60069,3.1656 0.88335,3.65898 0.47406,0.82748 z m 33.856896,29.86597 c -0.79779,-0.14323 -2.011,-1.23614 -2.57837,-2.32272 -1.29476,-2.47959 -1.42886,-5.77558 -0.44675,-10.98021 1.26119,-6.68357 1.14249,-10.17174 -0.42483,-12.48436 -0.77708,-1.14659 -1.03753,-2.67317 -0.51155,-2.99824 0.14952,-0.0924 0.8027,0.089 1.45154,0.40308 0.86443,0.41847 1.4105,0.52127 2.04328,0.38468 1.12333,-0.24248 2.57435,-0.98412 3.5784,-1.82897 1.03378,-0.86987 1.43294,-0.84921 2.55044,0.13197 2.06414,1.81234 2.41382,5.66784 1.09073,12.02622 -1.17522,5.64774 -1.05426,9.07083 0.3852,10.90081 0.63229,0.80383 0.71379,2.5785 0.17737,3.86234 -0.4725,1.13084 -2.02973,2.47038 -3.27333,2.81573 -0.99483,0.27627 -2.78199,0.31591 -4.04213,0.0897 z m 4.38642,-1.10467 c 2.36782,-1.07541 3.3646,-3.86961 1.94469,-5.45138 -0.82245,-0.9162 -1.03944,-1.93449 -1.03944,-4.87793 0,-2.1033 0.20983,-3.92627 0.79375,-6.89603 0.43656,-2.22031 0.79375,-4.79103 0.79375,-5.71271 0,-2.03563 -0.80907,-4.37156 -1.77814,-5.13384 -0.62347,-0.49043 -0.73699,-0.50327 -1.24001,-0.14037 -1.94409,1.40254 -2.97699,1.84481 -4.54104,1.9444 -0.92512,0.0589 -1.87362,-0.027 -2.19446,-0.19867 -0.77621,-0.41541 -0.72087,-0.0186 0.19992,1.43328 1.52492,2.40454 1.6874,6.04699 0.54307,12.17353 -0.9659,5.17129 -1.06865,5.99995 -0.89816,7.24345 0.4232,3.08667 1.77671,5.6763 3.10039,5.93189 1.45071,0.28011 3.30214,0.14471 4.31568,-0.31562 z m -17.88016,-27.54032 c -4.71127,-0.22798 -6.46624,-0.69925 -10.897956,-2.92651 -3.24259,-1.62965 -4.23544,-2.25663 -5.90308,-3.72778 -0.72761,-0.64187 -1.73964,-1.4781 -2.24896,-1.85827 -1.10937,-0.82808 -1.53565,-1.65262 -2.61623,-5.06051 -1.035346,-3.26526 -1.204761,-4.77852 -0.850553,-7.59737 0.212508,-1.69117 0.525883,-2.73156 1.263483,-4.19478 0.53949,-1.0702 1.13057,-2.00325 1.31352,-2.07345 0.56844,-0.21814 0.94674,-2.74144 0.63088,-4.2081 -0.1537,-0.7137 -0.38686,-1.53575 -0.51814,-1.8268 -0.13128,-0.29104 -0.51183,-1.54119 -0.84567,-2.77812 -0.536,-1.986 -0.60786,-2.86768 -0.61458,-7.54063 l -0.008,-5.29166 1.13553,-3.30058 c 1.28294,-3.72903 2.3096,-5.31018 4.78629,-7.3713 2.1181,-1.7627 3.94667,-2.76555 6.911926,-3.79073 2.43359,-0.84136 2.63759,-0.86734 6.87365,-0.87516 3.68793,-0.007 4.58125,0.0719 5.75469,0.50722 1.39853,0.5188 1.90638,1.32963 0.94941,1.51583 -0.24181,0.047 0.5695,0.0871 1.8029,0.089 2.68772,0.004 3.74914,0.49374 3.61366,1.66672 -0.0793,0.68671 -0.13191,0.70834 -1.53733,0.6322 -1.36727,-0.0741 -1.42828,-0.0517 -1.00962,0.37 0.428,0.43111 2.33302,0.69406 2.3327,0.32198 -5.3e-4,-0.45435 1.13567,-0.49105 1.79873,-0.0581 1.26247,0.82434 4.29385,3.90564 5.05034,5.1335 2.57465,4.17895 3.01451,11.18606 1.06924,17.03344 -0.88297,2.65414 -4.0166,10.04452 -4.87743,9.37698 -0.52294,-0.40554 1.13708,-3.33892 1.71699,-4.93901 0.77408,-2.13584 1.87055,-3.86863 2.19232,-7.31157 0.47348,-5.06621 0.30928,-8.25574 -0.41167,-7.99668 -0.46866,0.16841 -1.247,-0.29878 -1.247,-0.74851 0,-0.23866 -0.25825,-0.38756 -0.67217,-0.38756 -0.83818,0 -2.16813,-0.95631 -2.66771,-1.91822 -0.2214,-0.42631 -0.59763,-0.72761 -0.90855,-0.72761 -0.29187,0 -0.59895,-0.17791 -0.68239,-0.39535 -0.0834,-0.21745 -0.24565,-0.3373 -0.36046,-0.26634 -0.34565,0.21362 -2.04056,-0.60943 -2.22047,-1.07826 -0.1195,-0.31142 -0.3375,-0.38492 -0.75969,-0.25614 -0.32566,0.0993 -1.18741,0.23479 -1.91502,0.30101 -0.7276,0.0662 -1.50151,0.19289 -1.71979,0.28148 -0.3964,0.16087 -2.34883,0.39322 -3.82263,0.45491 -0.68619,0.0287 -0.80402,-0.0786 -0.98043,-0.89339 -0.11028,-0.50932 -0.14192,-1.10464 -0.0703,-1.32292 0.13349,-0.40686 1.80376,-1.5875 2.24587,-1.5875 0.13543,0 0.24624,-0.22538 0.24624,-0.50086 0,-0.5212 0.48659,-0.82205 1.32955,-0.82205 0.27089,0 0.64811,-0.21435 0.83826,-0.47633 0.19015,-0.26198 0.7365,-0.6352 1.21411,-0.82937 1.30097,-0.5289 0.87048,-0.60101 -0.75724,-0.12683 -3.19473,0.93066 -6.8583,3.43573 -9.4967,6.49363 -2.12839,2.46681 -2.83657,3.61399 -3.641166,5.89834 -0.57787,1.64066 -0.64184,2.16805 -0.51597,4.2541 0.15249,2.52721 0.810836,5.00792 2.064916,7.78073 1.0134,2.24064 4.11414,5.32763 6.71528,6.68548 2.73602,1.42826 4.65251,1.8548 7.00611,1.55926 1.05716,-0.13274 2.06804,-0.18535 2.24641,-0.11689 0.37988,0.14577 3.60109,-1.02381 4.4421,-1.61288 1.53984,-1.07855 1.71326,0.17707 0.21181,1.53354 -2.56349,2.31595 -6.19147,3.24032 -12.51737,3.18924 -2.14643,-0.0173 -3.9026,7e-5 -3.9026,0.0387 0,0.29813 5.5482,0.9868 8.30173,1.03047 2.99077,0.0474 3.45133,0.11472 3.77031,0.55096 0.3412,0.46662 0.36338,0.45348 0.36338,-0.21509 0,-0.39161 0.13751,-0.71202 0.30558,-0.71202 0.5183,0 3.66926,3.22225 4.73419,4.84132 0.55495,0.8437 1.39079,2.51059 1.85743,3.70416 0.78596,2.01034 0.84715,2.3942 0.83094,5.21285 -0.0115,2.00389 -0.16551,3.53953 -0.45104,4.49792 -0.23846,0.80036 -0.49697,1.77161 -0.57447,2.15832 -0.0775,0.38672 -0.45645,1.07293 -0.84209,1.52492 -0.90157,1.05668 -2.81778,1.4002 -3.89035,0.69742 -0.93845,-0.6149 -1.48959,-1.95008 -1.09683,-2.65716 0.16279,-0.29309 0.26784,-0.67278 0.23344,-0.84379 -0.0344,-0.17098 0.41007,-1.04215 0.98773,-1.9359 1.81161,-2.80292 1.99604,-5.45436 0.65903,-9.47497 -0.83607,-2.5142 -2.19406,-5.17969 -2.21167,-4.34113 -0.007,0.33322 0.22443,1.07073 0.5143,1.63891 0.89548,1.7553 1.85422,5.03682 1.85422,6.34655 0,2.09431 -2.19646,7.41598 -3.06086,7.41598 -0.22408,0 -0.78791,-0.36249 -1.25296,-0.80555 -1.01466,-0.96666 -3.52951,-2.20727 -7.43068,-3.66564 -1.58454,-0.59234 -3.44959,-1.44187 -4.14457,-1.88784 -1.62162,-1.04059 -4.67443,-4.24833 -6.853386,-7.20121 -0.93945,-1.27312 -1.81257,-2.31476 -1.94028,-2.31476 -0.32925,0 -0.26188,0.11923 1.77224,3.13655 3.374166,5.00507 6.062816,7.13687 11.401126,9.0398 6.92996,2.47031 8.64241,3.95297 7.48911,6.48417 -0.68004,1.49254 -2.00387,1.73622 -7.88599,1.45159 z m 6.54517,-1.235 c 2.29335,-1.71223 0.33319,-3.58296 -6.10086,-5.82251 -3.23148,-1.1248 -4.3168,-1.65718 -6.42871,-3.15344 -2.05781,-1.45793 -3.450536,-3.01648 -5.871606,-6.57072 -2.09054,-3.069 -2.31554,-3.92879 -1.06597,-4.07334 0.60738,-0.0703 0.93368,0.22039 2.37618,2.11666 2.656496,3.49215 5.069266,6.1077 6.608046,7.16342 0.78332,0.53741 3.26968,1.70688 5.52525,2.59882 2.25558,0.89194 4.79922,2.08497 5.65255,2.65119 0.85333,0.56621 1.5809,1.02948 1.61682,1.02948 0.0359,0 0.51903,-0.98227 1.07356,-2.18281 1.30672,-2.82906 1.46192,-4.50632 0.64642,-6.98621 -0.32757,-0.99616 -0.82078,-2.25974 -1.09602,-2.80797 -0.27524,-0.54822 -0.61702,-1.61151 -0.7595,-2.36285 -0.40504,-2.13576 -0.612,-2.257 -3.90301,-2.28657 -3.77782,-0.0339 -6.2728,-0.40533 -9.39559,-1.39857 -2.00977,-0.63924 -2.57342,-0.92162 -2.50628,-1.2556 0.0943,-0.4692 0.0391,-0.46826 3.77626,-0.0644 3.09822,0.33484 6.75419,0.35801 8.15107,0.0517 0.61014,-0.13381 1.77089,-0.37531 2.57944,-0.53667 1.36098,-0.27161 4.74762,-1.67835 4.74762,-1.97206 0,-0.0708 -0.54403,0.112 -1.20895,0.40612 -1.92643,0.85216 -5.53449,1.11598 -8.18376,0.59841 -3.63845,-0.71081 -7.95875,-3.51334 -9.97815,-6.47269 -1.782266,-2.61186 -3.383306,-7.94581 -3.383306,-11.27169 0,-1.5909 0.92498,-4.60034 2.011416,-6.5442 1.0627,-1.90138 5.78134,-6.54292 7.91045,-7.78121 2.8711,-1.66982 5.64484,-2.51074 8.3752,-2.53913 1.25938,-0.0131 2.23735,-0.1087 2.17326,-0.21245 -0.18832,-0.30484 -1.99811,-0.73433 -3.1011,-0.73593 -1.78038,-0.003 -5.68133,1.48894 -7.65141,2.92549 -1.85843,1.35513 -2.57407,1.60253 -2.57407,0.88985 0,-0.57213 2.77824,-3.43912 3.65399,-3.77071 0.3914,-0.1482 1.47344,-0.56428 2.40453,-0.92462 l 1.6929,-0.65517 -1.42832,-0.27434 c -6.91674,-1.3285 -13.894936,0.57326 -18.486036,5.03797 -2.24356,2.1818 -2.73508,3.03477 -4.00864,6.95652 l -1.117,3.43958 0.0563,4.4787 c 0.0517,4.11974 0.12124,4.70288 0.86703,7.27604 1.1451,3.95086 1.5469,5.8683 1.39,6.63315 -0.39323,1.91691 -0.73481,2.91109 -1.00024,2.91125 -0.16299,9e-5 -0.75558,0.94738 -1.31686,2.10507 -1.0042,2.07127 -1.02111,2.15687 -1.05833,5.35764 -0.0329,2.82653 0.0385,3.42608 0.54474,4.57565 0.32041,0.72761 0.71244,1.83072 0.87117,2.45137 0.30735,1.20179 1.24543,2.97259 1.57473,2.97259 0.10894,0 1.07945,0.7516 2.15668,1.67022 2.90363,2.47611 6.5316,4.48545 10.822146,5.99382 1.27107,0.44685 2.65174,0.65757 5.29167,0.8076 4.8793,0.27732 6.22283,0.19329 7.07433,-0.44245 z m 6.89667,0.21267 c 2.12663,-0.60031 3.41907,-8.82453 1.97176,-12.54695 -1.31231,-3.37519 -2.75843,-5.63999 -4.46565,-6.99373 l -1.02607,-0.81363 0.99492,2.02133 c 1.63715,3.32609 2.31237,5.80344 2.31237,8.48401 0,2.58911 -0.36456,3.92655 -1.53867,5.64491 -1.00077,1.46466 -1.28021,2.93474 -0.72028,3.78929 0.42768,0.65272 1.18089,0.77912 2.47162,0.41477 z m 2.69775,-32.31894 c 0.15576,-0.29105 0.22367,-0.52917 0.15091,-0.52917 -0.0728,0 -0.25974,0.23812 -0.4155,0.52917 -0.15576,0.29104 -0.22367,0.52916 -0.15091,0.52916 0.0728,0 0.25974,-0.23812 0.4155,-0.52916 z m 2.47847,-11.2448 c 0.0466,-6.13916 -1.17948,-9.08719 -5.26818,-12.66736 l -2.03682,-1.78348 -0.51999,0.55814 c -0.40505,0.43477 -0.60103,0.49088 -0.88665,0.25383 -0.28298,-0.23485 -0.47121,-0.19976 -0.82472,0.15376 -0.43435,0.43435 -0.42789,0.44848 0.12491,0.27302 0.33174,-0.10528 0.58298,-0.0726 0.58298,0.0757 0,0.14342 0.0687,0.43992 0.15276,0.65888 0.3065,0.79872 -0.64275,0.27124 -1.6123,-0.89593 -0.53851,-0.64828 -1.02285,-1.22542 -1.07631,-1.28254 -0.0535,-0.0571 -0.26614,0.0364 -0.47262,0.20772 -0.20648,0.17137 -0.47725,0.29329 -0.6017,0.27096 -0.66596,-0.11953 -1.22136,0.0988 -2.00784,0.78936 -0.48066,0.42202 -1.16941,0.80897 -1.53056,0.85989 -0.44344,0.0625 -0.6841,0.28588 -0.74119,0.6879 -0.0543,0.38258 -0.26707,0.59531 -0.59531,0.59531 -0.28092,0 -0.51077,0.17031 -0.51077,0.37847 0,0.20817 -0.25803,0.41652 -0.57341,0.46303 -0.42323,0.0624 -0.58166,0.28018 -0.6049,0.83149 -0.0333,0.79012 0.23579,1.16304 0.51419,0.71258 0.0914,-0.1479 0.45682,-0.2689 0.81203,-0.2689 0.35521,0 0.64584,-0.11906 0.64584,-0.26458 0,-0.14553 0.23813,-0.26459 0.52917,-0.26459 0.29104,0 0.52917,0.11612 0.52917,0.25804 0,0.16528 0.25293,0.16187 0.70363,-0.009 0.387,-0.14714 0.89301,-0.24495 1.12448,-0.21737 0.23146,0.0276 0.59944,-0.0169 0.81772,-0.0988 2.06768,-0.77606 3.43958,-0.6834 3.43958,0.23232 0,0.20046 0.23813,0.36448 0.52917,0.36448 0.29104,0 0.52917,0.13364 0.52917,0.29698 0,0.20632 0.12013,0.19728 0.3935,-0.0296 0.48046,-0.39875 1.194,-0.16821 1.194,0.38577 0,0.22285 0.21105,0.40518 0.469,0.40518 0.26461,0 0.68632,0.40355 0.9677,0.92604 0.27429,0.50933 0.66229,0.92605 0.86222,0.92605 0.19994,0 0.43487,0.18593 0.52207,0.41319 0.0951,0.24774 0.43606,0.39543 0.8516,0.36883 1.18653,-0.0759 1.31613,-0.009 1.43188,0.73933 0.10611,0.68611 0.12369,0.69469 0.30823,0.15059 0.10763,-0.31735 0.35817,-0.63936 0.55676,-0.71556 0.57909,-0.22222 0.77931,1.41402 0.75711,6.18737 -0.0146,3.13211 0.0513,4.14135 0.233,3.57187 0.13932,-0.43656 0.26595,-2.46062 0.2814,-4.49792 z m -9.8787,-10.58333 c 0,-0.14552 0.10067,-0.42339 0.22371,-0.6175 0.17731,-0.27971 0.26008,-0.25814 0.39905,0.10402 0.0964,0.25131 0.113,0.51926 0.0368,0.59545 -0.0762,0.0762 -0.14034,-0.0302 -0.14257,-0.23631 -0.003,-0.30863 -0.0493,-0.30473 -0.26053,0.022 -0.14107,0.21828 -0.25648,0.27781 -0.25648,0.13229 z m 1.6934,-2.01396 c -0.22393,-0.36233 0.36992,-0.76492 0.85419,-0.57909 0.19509,0.0749 0.35472,0.30198 0.35472,0.50469 0,0.43797 -0.94815,0.49633 -1.20891,0.0744 z m -9.23591,-3.88884 c -0.12807,-0.12807 -1.66324,0.69239 -1.8446,0.98583 -0.0837,0.13539 0.31723,-0.0109 0.8909,-0.32517 0.57367,-0.31423 1.00284,-0.61153 0.9537,-0.66066 z m 3.27902,-1.01359 c 0.26551,-0.22897 -0.94358,-0.0602 -1.30087,0.1816 -0.28984,0.19614 -0.1828,0.22069 0.39688,0.091 0.43656,-0.0977 0.84336,-0.22033 0.90399,-0.27262 z"
         id="path849"
         sodipodi:nodetypes="sssssssssssscssscsscsssssssssssssssssssssssssssssssssssssscsssssssssssssscssssssssssssssssssssssssssssccssssssssssssssssssscssssssssscsssscssssssscsssccssssssssssssssssscssscsssssssssssccsssssscscscsccssssssssssssssscssssssssscsssssssssssssssssssssssssssssssssssssssssssssssssssscsssssssssssssssssssssscssssssscssssssssssscssssssssssssssssssssssssssssssscsscsssscssssssssssssssssscssssssssssssssssssssssssssssssssssssssssssssssssssssssssssccsssssssssssssssscsssssscssscssssssssssscsscssssssssssssssssssssssssssssssssssssssssssssssssssssssscssssssssscssssssssssssssssssscssscsssssssssssssssscsssssssssssscssssscscccsssssssssssscscssssssssccssssssscscsccccscsssscsssss" />
      <path
         style="opacity:1;fill:#ffffff;fill-opacity:1;stroke:#3936eb;stroke-width:0.893985;stroke-linecap:round;stroke-linejoin:round;stroke-opacity:1"
         d="m 109.26792,170.48729 c -3.97635,-0.20626 -5.10985,-0.42196 -7.74376,-1.47359 -3.491916,-1.39421 -6.233466,-3.00962 -9.336686,-5.50147 -0.9755,-0.78332 -1.88376,-1.48315 -2.01834,-1.55518 -0.33772,-0.18074 -1.13489,-1.74967 -1.47597,-2.90489 -0.15561,-0.52706 -0.50473,-1.48923 -0.77582,-2.13816 l -0.49289,-1.17986 -0.0503,-2.97319 c -0.0319,-1.88624 0.005,-3.22975 0.0997,-3.67496 0.19957,-0.93386 1.5188,-3.59727 2.03988,-4.11835 0.45786,-0.45786 0.83372,-1.44976 1.07143,-2.82747 0.20373,-1.18075 0.0533,-2.05722 -1.04783,-6.1035 -1.01723,-3.73812 -1.11935,-4.59813 -1.12101,-9.43994 l -0.001,-3.3459 0.94644,-2.86811 c 1.33052,-4.03207 1.79643,-4.88642 3.72409,-6.82894 3.54079,-3.56809 7.618506,-5.34909 13.256926,-5.79013 1.10677,-0.0866 3.92743,0.11031 5.32499,0.37168 l 0.86863,0.16246 -1.88159,0.71343 c -1.60861,0.60993 -2.00997,0.82291 -2.7664,1.46799 -0.85835,0.732 -2.03502,1.99678 -2.4574,2.64141 -0.12736,0.19437 -0.17477,0.44525 -0.12307,0.65123 0.1069,0.42595 0.60649,0.4484 1.33143,0.0598 0.28242,-0.15136 0.53407,-0.25462 0.55923,-0.22946 0.0252,0.0252 -0.5908,0.58499 -1.36879,1.24406 -1.51753,1.28557 -3.99609,3.8086 -4.91866,5.00691 -1.037026,1.34699 -2.046856,3.70397 -2.541536,5.93203 -0.63229,2.84788 0.42562,7.98622 2.450916,11.90428 0.62667,1.21233 0.97221,1.68975 1.99659,2.75862 2.65327,2.76846 6.40026,4.78087 9.66362,5.19006 1.37509,0.17242 3.07488,0.17365 4.38842,0.003 0.54555,-0.0708 1.01606,-0.10458 1.04558,-0.0751 0.075,0.075 -1.11471,0.41039 -2.98724,0.84212 -1.50287,0.34651 -1.76368,0.3661 -4.79653,0.3603 -2.11744,-0.004 -3.86014,-0.0825 -5.12874,-0.23098 -2.89973,-0.33933 -3.35706,-0.29482 -3.35706,0.32671 0,0.38646 0.6133,0.74486 2.11164,1.234 3.3885,1.10617 5.08686,1.39309 9.1805,1.55094 1.69047,0.0652 3.23582,0.18035 3.4341,0.25593 0.51751,0.19725 0.75292,0.63376 1.10243,2.04421 0.16975,0.68505 0.58025,1.90703 0.91222,2.71552 1.04004,2.53294 1.32951,3.5959 1.34653,4.94449 0.0184,1.46125 -0.27644,2.51134 -1.32737,4.72699 l -0.72086,1.51975 -0.369,-0.24364 c -1.75707,-1.16008 -2.9553,-1.75291 -6.76973,-3.34934 -3.4567,-1.44671 -5.33297,-2.42733 -6.44293,-3.36735 -1.1328,-0.95936 -3.11104,-3.18564 -5.389836,-6.06565 -1.05724,-1.33617 -1.81855,-2.17538 -2.0905,-2.30443 -0.54686,-0.2595 -1.20933,-0.13523 -1.47983,0.2776 -0.18345,0.27999 -0.18141,0.37798 0.0206,0.98602 0.26862,0.80873 2.44236,4.12479 3.90998,5.96471 2.546636,3.19267 5.221876,5.00345 9.855206,6.67064 4.58469,1.64969 6.56736,2.73397 7.12059,3.8941 0.20351,0.42677 0.2017,0.48465 -0.0285,0.91213 -0.41177,0.76459 -1.08039,1.12498 -2.36018,1.27211 -1.22875,0.14127 -1.37212,0.14075 -4.39218,-0.0159 z"
         id="path1424" />
      <path
         style="opacity:1;fill:#ffffff;fill-opacity:1;stroke:#3936eb;stroke-width:0.893985;stroke-linecap:round;stroke-linejoin:round;stroke-opacity:1"
         d="m 120.17723,169.97005 c -0.28982,-0.34443 -0.3578,-0.56024 -0.3578,-1.13592 0,-0.73042 0.16791,-1.12531 1.51161,-3.55505 0.72697,-1.31453 0.94109,-2.38209 0.93612,-4.66727 -0.006,-2.82324 -0.52402,-4.90209 -1.99444,-8.00607 -0.39727,-0.83863 -0.68644,-1.56026 -0.64259,-1.60361 0.12547,-0.12407 1.67075,1.57151 2.30464,2.52879 0.74116,1.1193 1.78104,3.2601 2.21974,4.56979 0.19106,0.57039 0.41228,1.66725 0.49562,2.45743 0.3671,3.48045 -0.72518,8.50014 -2.05922,9.46333 -0.24604,0.17765 -0.64989,0.28427 -1.21241,0.32009 -0.81187,0.0517 -0.85689,0.0378 -1.20127,-0.37151 z"
         id="path1426" />
      <path
         style="opacity:1;fill:#ffffff;fill-opacity:1;stroke:#3936eb;stroke-width:0.893985;stroke-linecap:round;stroke-linejoin:round;stroke-opacity:1"
         d="m 111.06635,202.04374 c -1.77915,-0.38631 -3.45958,-1.33378 -4.35514,-2.45554 -1.21944,-1.52746 -2.42902,-4.61558 -2.65748,-6.78468 -0.16945,-1.60885 -0.17164,-5.11268 -0.004,-7.00156 0.0716,-0.80849 0.34247,-2.64262 0.60196,-4.07585 0.25948,-1.43324 0.50942,-3.03625 0.55542,-3.56225 0.0791,-0.90501 0.065,-0.97499 -0.26294,-1.30295 -0.43053,-0.43053 -0.97015,-0.44728 -1.45698,-0.0452 -0.52469,0.43331 -1.24211,1.70739 -1.64843,2.92747 l -0.35231,1.0579 -0.82252,-0.08 c -1.686666,-0.16416 -2.983566,-0.50124 -4.685816,-1.21792 -0.96152,-0.40482 -2.13563,-0.82588 -2.60913,-0.93569 -0.4735,-0.10981 -0.9703,-0.2582 -1.10399,-0.32975 -0.33787,-0.18082 -1.10578,-1.75552 -1.64454,-3.37234 -0.79578,-2.38811 -1.36598,-5.87583 -1.43387,-8.77042 -0.0449,-1.91284 0.0544,-1.977 1.25851,-0.8133 2.32993,2.25177 8.18449,5.69069 11.593096,6.80968 1.0067,0.33048 3.41163,0.60294 7.75901,0.87903 6.2372,0.3961 7.18898,0.69861 8.10797,2.57696 0.73649,1.50534 0.54677,4.66897 -0.44668,7.44837 -1.6648,4.65766 -2.1688,6.62335 -2.28157,8.89856 -0.0817,1.64958 0.008,2.00439 1.12065,4.40926 0.48287,1.04407 0.71549,1.71834 0.71461,2.07134 -0.003,1.26338 -1.29383,2.84353 -2.77808,3.40114 -0.84759,0.31843 -2.34942,0.44542 -3.16736,0.26781 z"
         id="path1428" />
      <path
         style="opacity:1;fill:#ffffff;fill-opacity:1;stroke:#3936eb;stroke-width:0.893985;stroke-linecap:round;stroke-linejoin:round;stroke-opacity:1"
         d="m 122.69258,199.10815 c -0.60926,-0.14703 -0.95864,-0.37099 -1.32064,-0.84654 -0.57872,-0.76027 -1.26578,-2.36928 -1.56545,-3.6661 -0.39449,-1.70715 -0.30289,-3.37461 0.39129,-7.12311 0.71806,-3.87748 0.95819,-5.85058 0.95699,-7.8633 -0.002,-2.71355 -0.34926,-4.22567 -1.36429,-5.93422 -0.29771,-0.50113 -0.51485,-0.93759 -0.48252,-0.96992 0.0323,-0.0323 0.29594,0.007 0.5858,0.0873 0.6651,0.18438 2.57913,0.0708 3.46699,-0.20578 0.57106,-0.17787 1.70371,-0.79861 3.12938,-1.71501 0.3518,-0.22613 0.36845,-0.22272 0.84951,0.1738 0.93553,0.77115 1.70303,3.01328 1.69814,4.9609 -0.003,1.14407 -0.20903,2.6553 -0.86131,6.31358 -1.04555,5.86403 -0.91372,9.76764 0.38188,11.30737 1.25089,1.4866 0.38941,4.04793 -1.702,5.06037 -1.01042,0.48913 -3.03319,0.69348 -4.16377,0.42064 z"
         id="path1430" />
      <path
         style="opacity:1;fill:#ffffff;fill-opacity:1;stroke:#3936eb;stroke-width:0.893985;stroke-linecap:round;stroke-linejoin:round;stroke-opacity:1"
         d="m 100.23964,208.03564 c 0.002,-0.39369 -0.0658,-0.48528 -0.532236,-0.71848 -0.47165,-0.23583 -0.80181,-0.26727 -2.80633,-0.26727 h -2.27179 l -1.04954,0.50113 c -1.47955,0.70645 -1.63381,0.68352 -2.64993,-0.39394 -1.5225,-1.61439 -1.76585,-1.80581 -3.04909,-2.39839 -2.776832,-1.28231 -2.7158,-1.23776 -2.912983,-2.12657 -0.204984,-0.92396 -0.463995,-1.26171 -0.9676,-1.26171 -0.429239,0 -2.435201,-0.81593 -4.27173,-1.73754 -1.627537,-0.81674 -2.893525,-1.82432 -5.287124,-4.20792 -2.399268,-2.38924 -3.607247,-3.85562 -4.938318,-5.99467 -1.243216,-1.99786 -2.09569,-3.10009 -2.726301,-3.52506 -0.598897,-0.4036 -0.762719,-0.3833 -0.860708,0.10664 -0.09232,0.46161 0.102881,0.91964 0.800944,1.87935 0.247737,0.34059 0.450429,0.6563 0.450429,0.70158 0,0.0453 -0.153072,0.0823 -0.340161,0.0823 -0.499957,0 -0.853265,-0.43207 -1.693757,-2.07134 -0.981652,-1.91457 -1.626756,-2.82122 -3.393495,-4.76932 -1.931086,-2.12931 -2.189769,-2.52243 -2.189769,-3.3278 0,-0.68451 0.141468,-0.90174 0.391245,-0.60078 0.226449,0.27286 0.776023,0.37411 1.097309,0.20216 0.419389,-0.22445 0.266872,-0.93765 -0.472715,-2.21052 -1.028724,-1.77049 -1.933522,-4.67885 -2.801435,-9.00486 -1.380781,-6.88235 -1.560089,-10.6052 -0.74278,-15.4219 0.325686,-1.91939 1.057208,-5.12294 1.598003,-6.99812 0.21771,-0.7549 0.398939,-1.41639 0.402733,-1.46998 0.01677,-0.23714 4.520388,13.00566 5.397712,15.87191 0.258717,0.84524 0.694679,1.91543 0.968806,2.3782 1.233882,2.08298 7.626588,8.72162 10.665016,11.07531 0.955489,0.74016 2.398744,1.93046 3.207234,2.6451 3.778316,3.33973 6.066337,4.50753 9.955795,5.08139 1.73751,0.25636 4.1221,0.82774 6.67215,1.59873 3.05529,0.92375 3.4734,1.00826 4.988206,1.00826 h 1.39872 l -0.31951,1.30294 c -0.56135,2.28922 -0.63845,8.42234 -0.13572,10.79709 0.26026,1.22942 0.99826,3.18146 1.57254,4.15943 0.59167,1.00756 3.1531,3.60044 4.25531,4.30754 1.0827,0.69459 1.87174,0.92874 3.48605,1.03454 2.82338,0.18502 4.78698,-0.62763 7.4568,-3.08606 0.60286,-0.55513 1.14078,-1.00907 1.19537,-1.00876 0.0546,2.7e-4 0.36987,0.18199 0.70061,0.40372 0.93609,0.62754 1.85777,0.84443 3.54133,0.83335 3.44877,-0.0227 5.48386,-1.03172 6.58273,-3.26384 0.86722,-1.76158 0.89736,-3.19667 0.11446,-5.44987 -0.67681,-1.9479 -0.81787,-3.1139 -0.62815,-5.19231 0.25437,-2.78664 0.004,-2.44597 2.09479,-2.85165 2.34847,-0.4557 3.21909,-0.88043 4.57994,-2.23429 2.01095,-2.00064 2.58427,-4.21991 1.7495,-6.77217 -0.86449,-2.64308 -3.37039,-3.14206 -6.49588,-1.29348 -0.68379,0.40443 -0.68944,0.4053 -0.76657,0.11772 -0.20092,-0.74902 -0.1116,-0.88381 1.90419,-2.87347 1.76019,-1.73738 2.14629,-2.2041 3.40162,-4.11201 0.77884,-1.18371 1.77128,-2.57734 2.20543,-3.09696 0.43414,-0.51963 1.37164,-1.80623 2.08332,-2.85912 0.71169,-1.05289 1.77352,-2.6059 2.35964,-3.45114 0.58612,-0.84524 1.36019,-2.13815 1.72017,-2.87315 1.20153,-2.45324 2.31519,-6.56048 3.07995,-11.35895 0.45816,-2.87474 0.75201,-4.23308 1.03844,-4.80035 0.16335,-0.32353 0.21728,-0.35439 0.31478,-0.18016 0.4104,0.73334 1.93715,7.0657 2.55405,10.59317 0.271,1.5496 0.30326,2.16307 0.29863,5.67948 -0.004,2.92944 -0.066,4.43969 -0.24209,5.87859 -0.65436,5.34869 -1.53845,8.89553 -3.36632,13.50509 -1.15063,2.90169 -1.32548,3.55687 -1.13361,4.24769 0.0748,0.26933 0.13636,0.58372 0.13677,0.69862 5.2e-4,0.11491 -0.42254,0.76722 -0.93989,1.44958 -1.40266,1.85004 -2.1581,3.46569 -2.79896,5.98608 -0.21581,0.84873 -0.80399,1.32948 -0.80399,0.65714 0,-0.40765 -0.31042,-0.66445 -0.66657,-0.55141 -0.51873,0.16464 -1.9958,1.54336 -3.55125,3.31478 -1.37705,1.56826 -2.13839,2.54045 -4.9918,6.37425 -0.41028,0.55124 -1.74475,2.02457 -2.9655,3.27405 -2.1755,2.22671 -2.59992,2.79512 -2.24901,3.01199 0.39955,0.24694 -1.74237,1.28353 -3.47623,1.68235 -0.92821,0.2135 -1.77949,0.64121 -2.19914,1.10492 -0.1828,0.20199 -0.41477,0.28112 -0.82412,0.28112 -0.80626,0 -1.00572,-0.10119 -0.91465,-0.46404 0.0566,-0.22566 -0.02,-0.37834 -0.30163,-0.6009 -0.34483,-0.27251 -0.47022,-0.29085 -1.44664,-0.21161 -3.05499,0.24794 -5.78555,0.85308 -8.8785,1.96763 l -2.19676,0.79162 -2.41588,0.18903 c -1.43163,0.11201 -2.65997,0.27751 -3.015,0.40622 -0.32951,0.11946 -1.08123,0.24961 -1.67049,0.28923 l -1.07138,0.072 0.002,-0.45121 z m 5.69869,-1.45594 c 1.05474,-0.29298 1.51925,-1.22999 1.11303,-2.24523 -0.4816,-1.20363 -2.05514,-2.06496 -3.80371,-2.08209 -0.86593,-0.008 -1.09001,0.041 -1.63628,0.36111 -0.73816,0.43259 -1.05762,0.96533 -1.05762,1.76371 0,1.03935 0.61939,1.77608 1.80493,2.14685 0.66805,0.20893 2.90274,0.24367 3.57965,0.0557 z m -26.550993,-9.64897 c 0.591732,-0.84481 -0.03435,-1.97877 -2.384684,-4.31912 -1.660187,-1.65314 -2.594354,-2.33288 -3.206052,-2.33288 -0.129447,0 -0.411139,0.17578 -0.625983,0.39062 -0.792363,0.79237 -0.436049,1.97326 1.065689,3.53187 2.358879,2.44822 4.538924,3.60342 5.15103,2.72951 z m 19.518257,-1.21831 c 0.91635,-0.42233 1.750276,-1.1604 2.020066,-1.78785 0.23751,-0.55238 0.2337,-2.60758 -0.006,-3.27952 -0.48444,-1.35758 -2.254916,-2.93013 -3.989646,-3.54363 -1.20032,-0.4245 -3.19876,-0.48328 -4.37559,-0.1287 -0.94452,0.28459 -1.77905,0.99466 -2.07271,1.76361 -0.32805,0.85899 -0.22769,2.20311 0.2351,3.14856 0.76495,1.56275 2.5825,3.3847 3.95169,3.96125 0.66699,0.28086 0.93028,0.31579 2.099,0.27848 1.12121,-0.0358 1.46544,-0.10215 2.13816,-0.4122 z m 35.507986,-1.1868 c 1.01989,-0.66943 1.70417,-1.77277 1.80773,-2.9148 0.0854,-0.94216 -0.12783,-1.62152 -0.64583,-2.05739 -1.18274,-0.99521 -3.22962,-0.19983 -4.00301,1.55548 -0.35359,0.80252 -0.43848,2.48907 -0.15144,3.00876 0.42303,0.7659 2.0991,0.99439 2.99255,0.40795 z m -52.131871,-8.42786 c 0.626073,-0.42131 0.846765,-1.12179 0.670221,-2.12728 -0.517003,-2.94457 -3.022327,-6.0233 -5.547614,-6.81734 -2.472494,-0.77742 -3.456797,0.86845 -2.15665,3.60619 1.014566,2.13639 2.981095,4.27379 4.743175,5.15532 1.132014,0.56633 1.658818,0.60844 2.290868,0.18311 z m 65.545651,-13.46589 c 1.38596,-0.85657 2.78096,-4.1054 2.95207,-6.87512 0.0686,-1.11009 0.0509,-1.23213 -0.22962,-1.58474 -0.28224,-0.35479 -0.35782,-0.37813 -1.05992,-0.32735 -1.08915,0.0788 -1.53147,0.44268 -2.14905,1.76797 -0.49481,1.06182 -1.4526,3.94214 -1.72608,5.19074 -0.33162,1.51408 0.97466,2.59359 2.2126,1.8285 z m -87.102139,-5.07003 c 0.456949,-0.20739 0.631974,-0.39038 0.859957,-0.8991 0.612204,-1.36606 0.248568,-4.57933 -0.637378,-5.63221 -0.414256,-0.49232 -1.121365,-0.74249 -1.759982,-0.62269 -1.565386,0.29367 -2.050357,1.83094 -1.385113,4.39056 0.713523,2.74536 1.44285,3.43499 2.922516,2.76344 z"
         id="path1432" />
      <path
         style="opacity:1;fill:#ffffff;fill-opacity:1;stroke:#3936eb;stroke-width:0.893985;stroke-linecap:round;stroke-linejoin:round;stroke-opacity:1"
         d="m 87.346184,177.33137 c -2.055641,-0.66476 -3.397968,-1.71079 -4.306719,-3.35608 -1.178533,-2.13373 -2.08335,-6.54296 -2.975417,-14.49937 -0.189534,-1.69048 -0.550526,-4.51928 -0.802206,-6.28621 -0.577958,-4.05764 -0.667745,-5.74241 -0.484571,-9.09256 0.276151,-5.05061 0.985912,-7.66261 2.571705,-9.46417 0.680167,-0.77271 2.657615,-2.44167 3.085931,-2.60451 0.851283,-0.32366 1.028861,-0.0264 1.446519,2.42155 0.335516,1.9665 0.473805,2.38423 1.544558,4.6656 0.4706,1.0027 0.85564,1.96529 0.85564,2.13911 0,0.1762 -0.3182,0.73368 -0.71916,1.25995 -0.39554,0.51916 -0.81985,1.13864 -0.942911,1.37662 -0.367456,0.71058 -1.917793,5.62329 -2.089743,6.62199 -0.341881,1.98564 0.06105,4.70952 1.018932,6.88813 0.948806,2.15798 1.343982,4.66016 1.203992,7.62344 -0.10986,2.32537 0.009,3.19648 1.05807,7.74772 0.86734,3.76319 0.98472,4.52365 0.72372,4.68892 -0.24727,0.15658 -0.32963,0.14756 -1.18834,-0.13013 z"
         id="path1434" />
      <path
         style="opacity:1;fill:#ffffff;fill-opacity:1;stroke:#3936eb;stroke-width:0.894;stroke-linecap:round;stroke-linejoin:round;stroke-miterlimit:4;stroke-dasharray:none;stroke-opacity:1"
         d="m 125.56572,121.85166 c 0,-0.0702 -0.12027,-0.24784 -0.26726,-0.39483 -0.20765,-0.20765 -0.44545,-0.26727 -1.066,-0.26727 -0.69052,0 -0.82656,-0.0425 -1.00414,-0.31349 -0.11297,-0.17242 -0.3506,-0.37965 -0.52807,-0.46051 -0.17747,-0.0809 -0.57318,-0.48611 -0.87935,-0.90057 -0.31383,-0.42481 -0.72072,-0.81073 -0.9327,-0.88463 -0.22914,-0.0799 -0.40838,-0.25993 -0.45882,-0.46092 -0.11497,-0.45807 -0.64675,-0.68317 -1.15802,-0.49019 -0.30953,0.11684 -0.47465,0.10808 -0.75898,-0.0403 -0.19986,-0.10426 -0.43856,-0.18994 -0.53043,-0.19039 -0.0919,-5.3e-4 -0.16704,-0.11178 -0.16704,-0.24738 0,-0.13561 -0.11561,-0.35118 -0.2569,-0.47905 -0.41843,-0.37867 -1.19403,-0.40252 -2.42832,-0.0747 -0.61785,0.16412 -1.48419,0.34916 -1.92518,0.41121 -0.44099,0.062 -0.96013,0.15056 -1.15364,0.1967 -0.20119,0.048 -0.39052,0.0213 -0.4422,-0.0623 -0.13593,-0.21994 -1.13766,-0.18376 -1.22515,0.0443 -0.0402,0.10475 -0.32396,0.23157 -0.63057,0.28181 -0.30662,0.0502 -0.66654,0.18778 -0.79983,0.30564 -0.2307,0.204 -0.24033,0.18266 -0.20045,-0.44452 0.0394,-0.6198 0.0684,-0.66638 0.48963,-0.78657 0.24626,-0.0703 0.50624,-0.25613 0.57773,-0.41304 0.0715,-0.15692 0.30243,-0.35039 0.51319,-0.42994 0.23791,-0.0898 0.47487,-0.33735 0.62498,-0.6529 0.17131,-0.36009 0.35865,-0.53832 0.64269,-0.61141 0.37992,-0.0978 0.77743,-0.33611 2.06476,-1.238 0.38451,-0.26938 0.74021,-0.39836 1.14513,-0.41523 0.32305,-0.0135 0.73498,-0.12119 0.9154,-0.2394 0.32419,-0.21242 0.33691,-0.20454 1.08514,0.67195 0.87568,1.02579 1.6068,1.64297 1.94627,1.64297 0.33012,0 0.37665,-0.2369 0.17688,-0.90068 -0.0942,-0.31311 -0.12911,-0.56838 -0.0775,-0.56725 0.22658,0.005 0.3611,0.22753 0.3611,0.59751 0,0.51036 0.52425,0.8103 1.06017,0.60654 0.46059,-0.17511 0.55581,-0.46399 0.28779,-0.87304 -0.15617,-0.23836 -0.33796,-0.33306 -0.63934,-0.33306 h -0.42112 l 0.31386,-0.33409 c 0.17262,-0.18374 0.36789,-0.33408 0.43392,-0.33408 0.19117,0 3.04591,2.58248 3.71961,3.36488 1.35261,1.57082 2.14294,2.93468 2.6465,4.56705 0.33648,1.09073 0.35495,1.31797 0.0746,0.9177 -0.26509,-0.37847 -0.3959,-0.3734 -0.8003,0.031 -0.18041,0.18041 -0.32802,0.27061 -0.32802,0.20046 z m -7.08264,-5.74252 c 0,-0.87994 -0.50446,-1.10283 -0.87486,-0.38655 -0.28401,0.54921 -0.18765,0.73318 0.39262,0.74963 0.44309,0.0126 0.48224,-0.0169 0.48224,-0.36308 z"
         id="path1436" />
      <path
         style="opacity:1;fill:#3936eb;fill-opacity:1;stroke:#3936eb;stroke-width:0.893985;stroke-linecap:round;stroke-linejoin:round;stroke-opacity:1"
         d="m 111.46726,144.32376 c -2.94851,-0.80939 -5.16026,-2.17052 -7.56269,-4.65411 -1.54362,-1.59577 -2.23629,-2.63502 -2.92057,-4.3819 -1.129026,-2.88227 -1.609136,-5.19486 -1.609066,-7.75054 3e-5,-1.35056 0.0409,-1.58941 0.50346,-2.93997 0.884276,-2.58205 2.130776,-4.44284 4.703996,-7.02215 2.21922,-2.22447 4.35491,-3.73787 6.68441,-4.7367 1.61869,-0.69405 1.76436,-0.71217 1.13948,-0.14173 -0.29203,0.26658 -0.66787,0.51254 -0.83521,0.54657 -0.16735,0.034 -0.46964,0.0966 -0.67176,0.1391 -0.49873,0.10481 -0.83522,0.43332 -0.83522,0.81542 0,0.22077 -0.10883,0.35806 -0.35935,0.45331 -0.68859,0.2618 -2.04138,1.32832 -2.12932,1.67872 -0.12733,0.50731 0.0365,1.76167 0.27819,2.13061 0.17987,0.27452 0.31832,0.32357 0.91063,0.32265 0.96122,-0.002 2.91464,-0.22768 4.03937,-0.46768 0.51449,-0.10979 1.58876,-0.28878 2.38726,-0.39777 l 1.45183,-0.19815 0.37512,0.40157 c 0.40419,0.43269 1.29632,0.88135 1.917,0.96409 0.2117,0.0282 0.46119,0.15562 0.55441,0.28311 0.0932,0.12749 0.3849,0.29128 0.64817,0.36397 0.33573,0.0927 0.5968,0.30387 0.87431,0.70722 0.74913,1.08882 2.00103,1.94323 2.85712,1.94994 0.29237,0.002 0.40426,0.0884 0.51044,0.39302 0.14101,0.40452 0.7943,0.81262 1.30082,0.81262 0.40604,0 0.48889,0.6184 0.47444,3.54132 -0.0145,2.93232 -0.20747,5.0408 -0.60685,6.63059 -0.27909,1.11102 -1.4878,4.2452 -2.77693,7.20061 l -0.67034,1.5368 -0.80653,0.44639 c -1.1173,0.61838 -3.27806,1.37517 -4.08033,1.42912 -0.36749,0.0247 -1.60027,0.08 -2.73951,0.12283 -1.78975,0.0673 -2.19851,0.043 -3.00678,-0.17888 z"
         id="path1438" />
    </g>
  </g>
</svg>
