<?xml version="1.0" encoding="UTF-8" standalone="no"?>
<svg
   xmlns:dc="http://purl.org/dc/elements/1.1/"
   xmlns:cc="http://creativecommons.org/ns#"
   xmlns:rdf="http://www.w3.org/1999/02/22-rdf-syntax-ns#"
   xmlns:svg="http://www.w3.org/2000/svg"
   xmlns="http://www.w3.org/2000/svg"
   xmlns:sodipodi="http://sodipodi.sourceforge.net/DTD/sodipodi-0.dtd"
   xmlns:inkscape="http://www.inkscape.org/namespaces/inkscape"
   width="210mm"
   height="297mm"
   viewBox="0 0 210 297"
   version="1.1"
   id="svg8"
   inkscape:version="1.0.2-2 (e86c870879, 2021-01-15)"
   sodipodi:docname="astrounauta.svg">
  <defs
     id="defs2" />
  <sodipodi:namedview
     id="base"
     pagecolor="#ffffff"
     bordercolor="#666666"
     borderopacity="1.0"
     inkscape:pageopacity="0.0"
     inkscape:pageshadow="2"
     inkscape:zoom="0.24748737"
     inkscape:cx="384.61492"
     inkscape:cy="542.24799"
     inkscape:document-units="mm"
     inkscape:current-layer="layer1"
     inkscape:document-rotation="0"
     showgrid="false"
     inkscape:window-width="974"
     inkscape:window-height="1048"
     inkscape:window-x="937"
     inkscape:window-y="0"
     inkscape:window-maximized="0" />
  <metadata
     id="metadata5">
    <rdf:RDF>
      <cc:Work
         rdf:about="">
        <dc:format>image/svg+xml</dc:format>
        <dc:type
           rdf:resource="http://purl.org/dc/dcmitype/StillImage" />
        <dc:title></dc:title>
      </cc:Work>
    </rdf:RDF>
  </metadata>
  <g
     inkscape:label="Layer 1"
     inkscape:groupmode="layer"
     id="layer1">
    <path
       style="fill:#3936eb;fill-opacity:1;stroke:none;stroke-width:0.1;stroke-linejoin:round;stroke-miterlimit:4;stroke-dasharray:none;stroke-opacity:0.994859"
       d="m 82.766103,205.55062 c 0,-0.19436 0.70449,-1.33484 1.56554,-2.5344 2.42024,-3.37172 4.0617,-6.73935 4.0617,-8.33298 0,-0.58188 -0.0883,-0.62984 -0.91443,-0.4969 -2.58165,0.41541 -3.59032,0.45547 -4.66617,0.18534 -1.29839,-0.32602 -2.88298,-1.4902 -3.62706,-2.66477 -0.26399,-0.41672 -0.55112,-0.75768 -0.63807,-0.75768 -0.087,0 -0.52072,0.77618 -0.96393,1.72486 -1.12645,2.4111 -3.10475,4.34587 -5.60556,5.48221 -3.31488,1.50623 -6.09857,1.65062 -10.59556,0.54959 -0.85112,-0.20839 -2.6237,-0.64397 -3.93907,-0.96796 -4.35136,-1.07179 -9.27465,-0.78461 -13.59404,0.79295 -0.43564,0.15911 -1.10036,0.28928 -1.47716,0.28928 -1.28812,0 -0.70102,-0.74386 1.35479,-1.71654 5.10703,-2.41631 7.50499,-4.77511 11.32429,-11.13932 2.74698,-4.57738 5.81195,-6.88651 10.12827,-7.63055 2.5964,-0.44757 4.70023,-0.0764 8.47978,1.49616 0.2148,0.0894 0.35654,-0.45098 0.43404,-1.6546 0.14721,-2.28646 0.89404,-3.3938 3.26909,-4.84716 1.07641,-0.65869 1.73862,-1.2387 1.68817,-1.47861 -0.20412,-0.97066 -4.86072,-2.80483 -9.77505,-3.85026 -2.50553,-0.533 -2.69385,-0.61847 -2.77554,-1.25977 -0.0719,-0.56445 0.13018,-0.81656 1.12545,-1.40412 2.08836,-1.23287 6.18931,-2.88979 8.38782,-3.38896 3.80251,-0.86336 6.55592,-0.61895 10.57697,0.93885 0.84593,0.32773 0.9225,0.29548 2.77162,-1.16726 1.04591,-0.82737 2.52197,-1.91986 3.28013,-2.42777 0.75816,-0.5079 1.37847,-1.02896 1.37847,-1.15791 0,-0.12896 -0.86051,-0.63855 -1.91225,-1.13243 -2.55596,-1.20025 -4.65354,-2.78444 -5.527,-4.17425 -0.67573,-1.0752 -0.86944,-1.18711 -3.40838,-1.9692 -4.40659,-1.35739 -7.00366,-3.34233 -7.75492,-5.92707 -0.20028,-0.68904 -0.26212,-2.67494 -0.17235,-5.53481 0.15381,-4.90041 0.69686,-7.88708 2.21825,-12.19996 1.71285,-4.85563 3.39711,-7.3452 5.66041,-8.36687 1.64157,-0.74101 4.9609,-1.13203 7.32234,-0.86256 1.05197,0.12004 1.95643,0.15014 2.0099,0.0669 0.0535,-0.0833 -0.71137,-1.0896 -1.69964,-2.23632 -0.98828,-1.14671 -2.20317,-2.81567 -2.69976,-3.7088 -0.86915,-1.56316 -0.95727,-1.63521 -2.35694,-1.92729 -1.81655,-0.37908 -3.53929,-1.70318 -4.1905,-3.22081 -0.31809,-0.74131 -0.53145,-2.22532 -0.63645,-4.42672 -0.15386,-3.22601 -0.13854,-3.344785 0.59294,-4.597274 0.81567,-1.39664 2.07127,-2.345048 3.63901,-2.748694 0.80834,-0.208125 1.06341,-0.443341 1.33773,-1.233636 1.89846,-5.469372 6.75801,-10.599134 12.49287,-13.18754 3.978367,-1.795623 5.858807,-2.181484 10.700337,-2.195685 4.95981,-0.01455 7.33708,0.481368 11.26373,2.349704 4.2324,2.013811 7.4591,4.879948 10.11396,8.983792 1.36692,2.112951 1.51836,2.253115 2.74934,2.544569 1.74185,0.412413 3.14157,1.346414 3.89763,2.600808 0.48663,0.807374 0.68455,1.756907 0.91033,4.367309 0.25816,2.984797 0.23538,3.465357 -0.21664,4.569027 -0.66252,1.61764 -2.03907,2.86773 -3.64463,3.30979 -1.10236,0.30351 -1.3431,0.49461 -1.61712,1.28366 -0.49899,1.43691 -2.17501,4.46504 -3.2501,5.87209 -0.53452,0.69957 -0.89181,1.34657 -0.79399,1.43779 0.2159,0.20132 3.9171,-1.54754 5.41156,-2.55703 1.0192,-0.68845 1.09443,-0.83803 1.3928,-2.76927 0.38093,-2.46566 1.00463,-3.38478 2.37195,-3.49547 0.78658,-0.0637 1.13363,0.0899 1.92644,0.85269 0.53186,0.51169 1.0677,0.93035 1.19076,0.93035 0.12305,0 0.78654,-0.4006 1.47441,-0.89021 0.68788,-0.48962 1.83266,-1.09746 2.54396,-1.35077 4.23407,-1.50782 7.12943,3.45312 5.67194,9.71837 -0.53025,2.27932 -1.40916,3.68942 -3.63461,5.83119 -4.68539,4.50923 -12.23541,7.9545 -19.9968,9.12506 -1.38047,0.20819 -2.57811,0.4421 -2.66142,0.51979 -0.0833,0.0777 0.0611,0.55699 0.321,1.06512 0.25986,0.50814 0.47247,1.27786 0.47247,1.71051 0,0.43263 0.18992,1.21047 0.42204,1.7285 0.23213,0.51805 0.42205,1.66617 0.42205,2.55141 v 1.6095 l 3.42184,1.56978 c 1.88202,0.86337 4.31932,2.13021 5.41622,2.81521 1.89397,1.18274 2.09173,1.24562 3.92781,1.24888 9.48716,0.0168 24.93667,5.27788 24.93667,8.49172 0,0.85382 -2.49951,6.75215 -3.85041,9.08616 -5.00833,8.65314 -12.6589,15.87389 -22.71815,21.44179 -10.66473,5.90303 -22.62436,9.46145 -34.22313,10.18261 l -2.69038,0.16727 -0.809167,1.75018 c -1.01712,2.19996 -3.96891,5.04093 -6.54859,6.30274 -2.93206,1.43418 -6.37588,2.4001 -8.55711,2.4001 -1.41939,0 -1.91675,-0.0917 -1.91675,-0.35339 z m -30.63323,-11.76946 c 1.03833,-1.03984 2.2465,-2.45426 2.68482,-3.14316 0.43832,-0.6889 0.86025,-1.25184 0.93763,-1.25099 0.0774,7.9e-4 0.37139,0.46826 0.65337,1.03867 0.52941,1.0709 0.44878,1.4591 -0.42513,2.04702 -0.89175,0.59992 -0.55747,0.80556 1.24891,0.7683 1.4048,-0.029 2.30757,0.15766 4.48818,0.92783 3.14295,1.11007 6.00456,1.61149 7.82142,1.37048 3.99172,-0.5295 6.03108,-1.75706 7.02202,-4.22677 0.69963,-1.74367 0.71133,-2.17738 0.0914,-3.3896 -0.33813,-0.66119 -0.7203,-0.98936 -1.27198,-1.09225 -1.06021,-0.19772 -1.14803,-0.41073 -0.60618,-1.47028 0.4274,-0.83575 0.42748,-0.99761 0.001,-2.19472 -0.3923,-1.10135 -0.67821,-1.41372 -1.93392,-2.11298 -1.661,-0.92491 -4.06289,-1.64753 -5.47627,-1.64753 -1.8364,0 -4.6346,0.85332 -6.37394,1.94373 -1.93175,1.21106 -3.33252,2.81487 -4.82156,5.5205 -1.41432,2.56984 -4.50327,6.80126 -5.6508,7.74077 -1.02501,0.83921 -1.15423,1.06161 -0.6168,1.06161 0.1869,0 1.18936,-0.85078 2.2277,-1.89063 z m 58.039507,-0.72273 c 9.53684,-1.59259 18.76688,-4.8359 27.17358,-9.54843 2.55934,-1.43468 7.1627,-4.5492 8.95271,-6.05718 l 1.09579,-0.92313 -0.67175,-2.95686 c -1.60254,-7.05397 -3.40851,-11.93155 -6.68053,-18.04283 -2.97489,-5.5563 -4.65639,-8.00212 -5.50147,-8.00212 -0.60062,0 -0.68123,0.12182 -0.70669,1.06799 -0.057,2.12004 -2.22011,4.55944 -5.19304,5.85642 -1.24245,0.54205 -1.99023,0.68107 -3.67054,0.68244 -2.64588,0.002 -4.02646,-0.6809 -6.36467,-3.149 -0.88737,-0.93666 -1.78084,-1.70302 -1.98549,-1.70302 -0.52913,0 -0.48889,0.10638 0.63985,1.69159 0.91382,1.28339 2.08306,4.47554 2.08306,5.68698 0,0.67296 0.52582,0.86721 1.08047,0.39914 0.26526,-0.22384 1.23853,-0.73718 2.16283,-1.14075 1.51383,-0.66097 1.97361,-0.7326 4.63484,-0.72207 2.76404,0.0109 3.08065,0.0685 4.9161,0.89395 2.5532,1.14822 4.68772,3.13436 5.86307,5.4555 0.84673,1.67218 0.89736,1.94241 0.89732,4.78936 -5e-5,2.99957 -0.006,3.02827 -1.08618,4.91263 -2.79783,4.88257 -8.54778,7.16411 -14.05649,5.57752 -1.0105,-0.29104 -2.48566,-0.93603 -3.27812,-1.43331 -1.25754,-0.78912 -1.46142,-0.84697 -1.60261,-0.4547 -0.90547,2.51575 -2.3248,3.80787 -5.11879,4.66004 -4.39583,1.34072 -9.9209,-1.03367 -12.23988,-5.26006 -1.30079,-2.37072 -1.605067,-4.06983 -1.550527,-8.65803 0.0631,-5.30868 -0.30902,-6.2779 -2.81492,-7.33161 l -1.05984,-0.44565 -1.668,1.04062 c -4.17374,2.60387 -9.54607,7.39304 -12.30537,10.96962 -1.16978,1.51628 -1.31227,2.65732 -0.72471,5.8035 0.34463,1.84542 0.16895,1.77497 2.46694,0.98927 1.66395,-0.56893 5.12089,-0.77436 7.31188,-0.43452 2.49389,0.38683 4.2562,1.05085 4.2562,1.60369 0,0.60432 -1.9562,3.39028 -3.43975,4.89879 -1.45749,1.482 -3.63651,2.82626 -5.22987,3.22634 -0.64793,0.16269 -1.17806,0.38249 -1.17806,0.48844 0,0.27891 1.86636,2.88673 2.95964,4.13543 1.01172,1.15555 2.02483,1.48585 5.99779,1.95543 3.29006,0.38886 11.904547,0.10158 15.635227,-0.52142 z m -23.627597,-0.50529 c 0.32714,-0.49358 -0.6513,-0.8535 -1.86192,-0.68493 -0.68054,0.0948 -1.57027,0.0421 -2.02613,-0.11999 -1.07875,-0.38351 -1.32136,-0.1 -0.44916,0.52494 0.51202,0.36684 1.16555,0.50251 2.44111,0.50678 0.95805,0.003 1.8113,-0.0988 1.8961,-0.2268 z m -6.75424,-9.31539 c 1.42123,-1.32527 2.68769,-2.21844 3.99915,-2.82042 1.85363,-0.85084 2.03697,-0.88141 5.36214,-0.89394 1.89359,-0.007 3.51362,-0.0789 3.60007,-0.15955 0.35294,-0.3291 -3.34863,-0.80784 -5.32961,-0.6893 -1.61689,0.0968 -2.53123,0.32086 -3.93102,0.96344 -1.79875,0.82573 -4.43577,2.9791 -5.74038,4.68756 -1.11593,1.46136 -0.13044,0.93577 2.03965,-1.08779 z m -0.099,-4.89728 c -0.15841,-0.64096 -0.29112,-1.77825 -0.2949,-2.52732 -0.004,-0.74906 -0.11768,-1.42578 -0.25309,-1.50382 -0.33846,-0.19506 -2.43956,1.25925 -3.02689,2.0951 -0.42879,0.61024 -0.44448,0.92988 -0.14768,3.0086 0.49686,3.47981 0.42912,3.43247 2.34936,1.6419 l 1.66124,-1.54908 z m 34.775307,0.1406 c 1.8771,-0.87224 2.38153,-1.43746 2.55365,-2.86137 0.18298,-1.51373 -0.26223,-3.17612 -1.53199,-5.72042 -0.95811,-1.9198 -1.05157,-2.01822 -1.74416,-1.83655 -0.40249,0.10558 -1.64543,0.19196 -2.76209,0.19196 -1.55864,0 -2.14457,-0.10667 -2.52221,-0.45914 -0.46843,-0.43721 -0.42873,-0.45914 0.83148,-0.45914 4.00505,0 7.44184,-2.76102 8.13611,-6.53633 0.63276,-3.44083 -0.46012,-6.91222 -2.85685,-9.07437 -1.13931,-1.02781 -1.20511,-1.04938 -3.18963,-1.04605 -2.32293,0.004 -4.49085,0.78717 -6.56479,2.37186 -2.24949,1.71883 -3.81886,6.07268 -3.16583,8.78286 0.14596,0.60573 0.22985,2.94745 0.18644,5.20382 -0.0728,3.78423 -0.0261,4.23903 0.60199,5.8624 1.11781,2.88912 3.27315,5.09373 5.79042,5.92279 0.46425,0.1529 1.73717,0.28732 2.82872,0.29871 1.58728,0.0166 2.26976,-0.11177 3.40874,-0.64103 z m 14.60262,-6.02028 c 3.72912,-1.03547 5.53394,-5.1297 3.5374,-8.02462 -1.10262,-1.59876 -1.90842,-2.21849 -3.55667,-2.73535 -3.4256,-1.07422 -6.91392,0.92097 -7.75779,4.43716 -0.47166,1.9653 0.1667,3.69811 1.88066,5.10492 1.8454,1.51471 3.55542,1.86791 5.8964,1.21789 z m -57.054267,-6.40664 c 1.70981,-0.81105 4.68198,-1.56848 6.87035,-1.75086 1.83773,-0.15315 2.92771,-0.0477 5.92042,0.57262 0.59193,0.1227 0.77375,0.0623 0.77375,-0.257 0,-1.06978 -4.08815,-1.90714 -7.26187,-1.48741 -2.96168,0.39167 -8.77578,2.48515 -8.77578,3.15987 0,0.42313 1.35499,0.29316 2.47313,-0.23722 z m 48.828417,-5.38612 c 2.85323,-2.18015 7.16537,-2.71588 11.02019,-1.36913 2.12338,0.74183 1.87742,0.37601 -0.56272,-0.83696 -1.23919,-0.61599 -1.72531,-0.69947 -4.07976,-0.70058 -2.2878,-0.001 -2.89591,0.0963 -4.22043,0.67582 -1.58345,0.69281 -3.65771,2.29781 -3.65771,2.83023 0,0.46071 0.23694,0.36606 1.50043,-0.59938 z m -20.37365,-3.0582 c 1.05406,-3.83502 4.75462,-7.12945 8.9552,-7.97241 0.50294,-0.10092 0.91443,-0.27713 0.91443,-0.39157 0,-0.11444 -0.58428,-0.44391 -1.2984,-0.73216 -1.59715,-0.64468 -1.26359,-0.91112 0.76277,-0.60928 0.83622,0.12455 1.55431,0.19691 1.59576,0.16079 0.0414,-0.0361 -0.65786,-0.43009 -1.55402,-0.87548 -1.24675,-0.61965 -2.15641,-0.85267 -3.87375,-0.99232 -1.23441,-0.10037 -2.46464,-0.28832 -2.73385,-0.41766 -0.60385,-0.2901 -1.33938,-1.57221 -1.33938,-2.33468 0,-0.51376 -0.099,-0.54927 -1.05511,-0.3784 -4.008847,0.71642 -9.824017,0.56118 -12.929397,-0.34516 -0.95989,-0.28016 -1.81453,-0.44478 -1.8992,-0.36582 -0.28156,0.26254 -0.13961,3.04554 0.26274,5.15101 0.21837,1.14274 0.79312,2.82796 1.27723,3.74492 1.11713,2.116 2.60775,3.1937 7.31639,5.28967 1.93068,0.85941 3.76355,1.74711 4.07305,1.97267 0.89654,0.65339 1.136557,0.51115 1.525537,-0.90412 z m 54.88759,-2.80854 c 0,-0.91602 -0.64055,-1.78331 -1.69128,-2.28998 -1.17112,-0.56472 -2.17181,-0.50386 -2.39284,0.14553 -0.26418,0.77614 0.51084,1.71947 1.90288,2.31612 1.72869,0.74095 2.18124,0.70533 2.18124,-0.17167 z m 5.90861,-1.12373 c -2.12053,-1.5946 -7.69415,-3.70814 -12.81101,-4.85797 -2.9197,-0.6561 -10.41925,-1.52464 -10.87866,-1.25988 -0.62539,0.36042 0.52865,0.8502 2.38821,1.01357 7.85359,0.69 11.50847,1.59578 20.03533,4.96533 2.03828,0.80547 2.17198,0.82014 1.26613,0.13895 z m -11.10393,-0.26139 c 0.37025,-0.55863 -0.18774,-1.57474 -1.2109,-2.20505 -1.48185,-0.9129 -4.60935,-1.36903 -6.1144,-0.89176 -0.89337,0.2833 -1.14346,0.50229 -1.21278,1.06197 -0.12085,0.9757 0.75539,1.44782 3.31541,1.78639 1.14622,0.15158 2.14439,0.33189 2.21816,0.40067 0.26611,0.24814 2.82509,0.11849 3.00451,-0.15222 z m -22.72085,-0.39077 c 0.57534,-0.22313 1.5199,-0.71082 2.09902,-1.08375 1.13499,-0.73088 2.74544,-2.78461 2.74544,-3.50111 0,-1.26271 -3.7976,-4.50247 -9.68092,-8.25887 -1.35603,-0.8658 -3.68922,-2.3718 -5.18487,-3.34666 -3.03369,-1.97735 -3.34913,-2.02321 -5.60302,-0.81455 -1.9408,1.04076 -4.3617,4.41415 -4.73656,6.60014 l -0.17905,1.04407 1.64875,0.88498 c 2.36738,1.27072 5.03339,2.46855 7.10379,3.19171 1.76332,0.6159 3.07209,1.57198 4.45517,3.25457 0.38176,0.46442 1.27359,1.20232 1.98185,1.63978 1.03189,0.63734 1.58743,0.79537 2.79604,0.79537 0.82956,0 1.97902,-0.18255 2.55436,-0.40568 z m 5.96991,-7.306 c 0,-0.39561 -0.817,-0.7967 -1.09493,-0.53753 -0.0937,0.0873 0.0753,0.32626 0.37541,0.53091 0.67482,0.46013 0.71952,0.46054 0.71952,0.007 z m -26.94008,-5.60332 c 1.29191,-2.51173 4.00513,-5.39971 5.37393,-5.72006 0.40994,-0.0959 0.74535,-0.32187 0.74535,-0.50207 0,-0.1802 -0.93929,-1.04649 -2.0873,-1.9251 -2.75364,-2.10745 -5.86888,-5.57601 -5.40038,-6.01288 0.23906,-0.22292 1.18071,0.44175 4.50013,3.17644 l 3.06175,2.52241 h 4.04389 4.04389 l -0.1848,-3.01719 c -0.1213,-1.98041 -0.0866,-3.0172 0.10093,-3.0172 0.27884,0 0.99135,1.90044 1.35251,3.60752 0.0992,0.46897 0.32861,0.86318 0.50975,0.876 2.43093,0.17208 10.59907,-1.26753 10.59907,-1.86805 0,-0.10311 -0.25474,-0.72448 -0.56609,-1.38082 -0.81963,-1.72781 -1.64701,-4.99064 -1.86198,-7.34288 -0.10261,-1.12287 -0.27376,-2.09183 -0.38033,-2.15324 -0.41342,-0.23826 -4.72426,1.54397 -6.15589,2.54502 -2.08374,1.45704 -6.20974,3.21258 -8.90221,3.78774 -2.96603,0.6336 -8.24111,0.64723 -10.99717,0.0284 -2.32035,-0.52098 -5.494487,-1.73548 -7.413717,-2.83666 -0.74069,-0.42498 -1.45932,-0.77184 -1.59695,-0.77079 -0.33118,0.003 -3.73334,4.92087 -4.89877,7.08195 -0.95292,1.767 -3.08894,7.1053 -3.08894,7.7198 0,0.19242 0.34819,0.47855 0.77375,0.63586 0.92188,0.34079 5.26406,1.02322 7.24508,1.13866 1.27607,0.0744 1.41516,0.0271 1.49672,-0.50834 0.0494,-0.32467 0.16666,-0.59032 0.26047,-0.59032 0.0938,0 1.84479,1.53484 3.891067,3.41074 2.04628,1.87591 3.86337,3.41074 4.03798,3.41074 0.17461,0 0.84883,-1.03306 1.49826,-2.29569 z m 18.59771,-1.87049 c -0.082,-1.61537 -1.39396,-2.65418 -2.29312,-1.81573 -0.66062,0.61601 -0.37688,1.47792 0.7141,2.16921 1.28049,0.81136 1.63415,0.73219 1.57902,-0.35348 z m -41.548447,-6.78754 c 0.87506,-2.30915 2.27126,-5.36275 2.92404,-6.39511 0.43908,-0.69439 0.68939,-1.3253 0.55625,-1.40203 -0.47646,-0.27459 -4.3843,-1.44759 -4.82859,-1.44939 -0.68337,-0.003 -2.98201,4.87898 -3.49278,7.4178 -0.1812,0.90064 -0.14504,0.97699 0.46801,0.98827 0.36541,0.007 1.36075,0.2916 2.21187,0.63305 1.91327,0.76756 1.94767,0.77086 2.1612,0.20741 z m 54.814657,-5.36439 c 2.75006,-1.33676 4.66373,-2.54445 6.73015,-4.24728 3.2832,-2.70553 4.67767,-5.3653 4.64972,-8.86875 -0.0197,-2.47493 -0.66175,-4.08272 -1.89944,-4.75676 -0.88738,-0.48327 -0.97497,-0.48542 -2.18749,-0.0536 -0.6947,0.24739 -1.89711,0.99929 -2.67202,1.67088 l -1.40894,1.22107 0.26917,1.30755 c 0.27741,1.34761 0.19419,1.83184 -0.26894,1.56493 -0.42117,-0.24272 -1.2901,-1.99773 -1.48715,-3.00367 -0.21418,-1.09339 -1.35705,-2.52325 -1.80875,-2.26294 -0.44228,0.25489 -0.89763,1.91165 -0.8995,3.27273 -0.002,1.37042 -0.78546,2.16608 -3.55601,3.61084 -2.04385,1.06582 -2.0315,1.02664 -1.49484,4.73992 0.44005,3.04481 1.10505,5.08193 2.01517,6.17313 0.9255,1.10963 0.99137,1.1036 4.01887,-0.36803 z m -23.21238,-4.07092 c 1.93837,-0.43067 6.66765,-2.34108 6.40401,-2.58692 -0.0858,-0.08 -1.21365,0.146 -2.50628,0.50229 -3.19949,0.88187 -3.50358,0.93697 -6.78991,1.2302 -3.53873,0.31576 -7.5334,-0.0193 -11.05235,-0.92697 -2.963867,-0.76451 -3.276357,-0.79502 -2.421037,-0.23638 1.465857,0.9574 5.836617,2.23387 8.768777,2.56091 1.61295,0.1799 5.63765,-0.10784 7.59679,-0.54313 z m -25.758707,-0.99482 c 0.87087,-0.99102 0.96421,-1.20836 0.57827,-1.34646 -0.69993,-0.25046 -4.64306,0.1494 -5.46552,0.55423 l -0.72594,0.35732 1.40681,0.57187 c 2.25853,0.9181 2.51509,1.01065 2.85008,1.02818 0.17479,0.009 0.78513,-0.51517 1.3563,-1.16514 z m 33.685037,-11.58357 c 0.58408,-0.4929 0.68941,-1.92142 0.1769,-2.39933 -0.55964,-0.52186 -1.83682,-0.37413 -2.31935,0.26827 -1.22187,1.62668 0.59665,3.43553 2.14245,2.13106 z m -37.025727,-1.46794 c -0.53414,-1.70701 -0.76762,-4.30212 -0.68101,-7.56917 0.0867,-3.270767 0.0481,-3.64724 -0.37405,-3.647086 -0.68374,2.51e-4 -2.10627,1.42659 -2.48225,2.488907 -0.40852,1.154249 0.0974,6.390789 0.72719,7.526389 0.43006,0.77549 1.90708,1.78851 2.61032,1.7903 0.26603,7.9e-4 0.32759,-0.18092 0.1998,-0.58934 z m 8.32524,-6.63794 c 2.84113,-5.965367 5.26826,-8.02321 14.021457,-11.88809 1.2758,-0.563315 -3.84587,-0.100532 -6.53152,0.590174 -5.444877,1.400334 -9.447077,4.051702 -10.475897,6.940035 -0.77448,2.174314 -1.00109,4.617971 -0.69229,7.465541 0.15327,1.41334 0.40957,2.88914 0.56955,3.27956 0.27357,0.66761 0.33737,0.57712 1.07186,-1.52024 0.42953,-1.22655 1.34612,-3.4167 2.03684,-4.86698 z m 41.255517,3.69166 c 1.34795,-1.05765 1.56478,-1.88951 1.39392,-5.347649 -0.1671,-3.381917 -0.5565,-4.374181 -2.08551,-5.314213 -0.98156,-0.60346 -1.91096,-0.659595 -1.68131,-0.101552 0.61366,1.491197 1.05991,5.22203 0.97617,8.161274 -0.10169,3.56978 -0.0231,3.71618 1.39673,2.60214 z m -8.31066,-1.6489 c 1.78749,-1.58546 1.7531,-5.447661 -0.0565,-6.350761 -1.58421,-0.790599 -3.61093,0.465736 -4.24548,2.631716 -0.36026,1.229745 -0.0492,3.090265 0.64754,3.873115 0.89202,1.00224 2.42363,0.93767 3.65448,-0.15407 z M 92.918743,89.441092 c 5.04427,-3.140998 14.820427,-4.678852 22.743427,-3.57769 3.74322,0.520245 7.59449,1.629078 10.08201,2.902748 2.06646,1.058077 2.35908,0.799659 0.41306,-0.364781 -2.20722,-1.320734 -5.37861,-2.560763 -8.22086,-3.214395 -2.3724,-0.545581 -3.30567,-0.612648 -8.30019,-0.596474 -5.16673,0.01673 -5.8575,0.0754 -8.44087,0.716834 -3.385087,0.840503 -7.424157,2.659347 -9.109487,4.102113 -1.55394,1.330292 -1.26997,1.341081 0.83291,0.03164 z m 2.7042,-3.808654 c 3.86601,-1.808489 10.770937,-2.975038 15.982787,-2.700202 4.82042,0.254195 9.03031,1.240523 13.89548,3.255553 0.81315,0.336786 0.12069,-0.483948 -1.37486,-1.629547 -2.07542,-1.589776 -5.25188,-3.098256 -8.31407,-3.948295 -2.10914,-0.58548 -3.06703,-0.700003 -5.89473,-0.70476 -4.63684,-0.0078 -8.72299,1.031075 -12.358647,3.1421 -2.19751,1.275971 -4.71591,3.480819 -3.97584,3.480819 0.0689,0 0.98681,-0.403051 2.03988,-0.895668 z"
       id="path951" />
  </g>
</svg>
