<?xml version="1.0" encoding="UTF-8" standalone="no"?>
<svg
   xmlns:dc="http://purl.org/dc/elements/1.1/"
   xmlns:cc="http://creativecommons.org/ns#"
   xmlns:rdf="http://www.w3.org/1999/02/22-rdf-syntax-ns#"
   xmlns:svg="http://www.w3.org/2000/svg"
   xmlns="http://www.w3.org/2000/svg"
   xmlns:sodipodi="http://sodipodi.sourceforge.net/DTD/sodipodi-0.dtd"
   xmlns:inkscape="http://www.inkscape.org/namespaces/inkscape"
   width="210mm"
   height="297mm"
   viewBox="0 0 210 200"
   version="1.1"
   id="svg2254"
   inkscape:version="1.0.2-2 (e86c870879, 2021-01-15)"
   sodipodi:docname="astronauta_dab.svg">
  <defs
     id="defs2248" />
  <sodipodi:namedview
     id="base"
     pagecolor="#ffffff"
     bordercolor="#666666"
     borderopacity="1.0"
     inkscape:pageopacity="0.0"
     inkscape:pageshadow="2"
     inkscape:zoom="0.98994949"
     inkscape:cx="393.75989"
     inkscape:cy="633.30732"
     inkscape:document-units="mm"
     inkscape:current-layer="layer1"
     inkscape:document-rotation="0"
     showgrid="false"
     inkscape:window-width="1920"
     inkscape:window-height="1057"
     inkscape:window-x="-8"
     inkscape:window-y="-8"
     inkscape:window-maximized="1" />
  <metadata
     id="metadata2251">
    <rdf:RDF>
      <cc:Work
         rdf:about="">
        <dc:format>image/svg+xml</dc:format>
        <dc:type
           rdf:resource="http://purl.org/dc/dcmitype/StillImage" />
        <dc:title></dc:title>
      </cc:Work>
    </rdf:RDF>
  </metadata>
  <g
     inkscape:label="Layer 1"
     inkscape:groupmode="layer"
     id="layer1">
    <path
       style="fill:#ffffff;fill-opacity:1;stroke:#3936eb;stroke-width:0.553;stroke-miterlimit:4;stroke-dasharray:none;stroke-opacity:1"
       d="m 96.151988,206.04138 c 2.425766,-0.64587 4.470342,-1.83185 5.136882,-2.97969 0.32884,-0.56631 0.6392,-2.33227 0.78465,-4.46466 0.13234,-1.94028 0.32786,-3.82883 0.4345,-4.19679 0.16304,-0.56259 0.0612,-0.63126 -0.64004,-0.43171 -0.45865,0.13052 -2.125476,0.41835 -3.704056,0.63964 -2.765794,0.38771 -4.396082,0.26355 -8.330556,-0.63447 l -0.970139,-0.22142 -0.01122,3.12793 c -0.0098,2.74154 -0.07158,3.04829 -0.499855,2.48323 -0.456282,-0.60202 -0.546608,-0.60672 -1.364216,-0.071 -1.842283,1.20711 -2.10748,4.25125 -0.50056,5.7458 1.568432,1.45877 6.162459,1.9356 9.664608,1.00314 z m 32.080352,-2.01257 c 2.95962,-0.91414 4.72811,-2.49053 4.72811,-4.21453 0,-0.6305 -0.79375,-2.87572 -1.76389,-4.98938 -0.97014,-2.11367 -1.76389,-3.98556 -1.76389,-4.15977 0,-0.71122 -0.71072,-0.6586 -2.17755,0.16123 -1.79282,1.00202 -5.02167,1.80276 -8.67036,2.15022 -1.4067,0.13395 -2.55764,0.34998 -2.55764,0.48006 0,0.13007 0.76,1.18112 1.68889,2.33567 2.26323,2.81302 3.71855,3.29469 7.30694,2.41841 0.53736,-0.13122 0.4953,-0.0478 -0.17639,0.34994 -1.23823,0.73321 -3.15359,0.99361 -4.46769,0.60741 -0.94141,-0.27667 -1.22524,-0.20892 -1.81154,0.43239 -1.04775,1.14605 -1.23512,2.17798 -0.61367,3.37972 0.67313,1.30169 1.93329,1.71543 5.35644,1.75864 1.64513,0.0208 3.35459,-0.22582 4.92224,-0.71001 z m -27.92698,-10.78002 c 1.1769,-0.32216 2.18827,-0.62197 2.24749,-0.66624 0.12903,-0.0965 1.46856,-6.51861 1.47519,-7.07259 0.002,-0.21288 -0.31646,-0.53038 -0.70891,-0.70555 -0.491,-0.21916 0.41677,-0.33879 2.91041,-0.38356 1.99318,-0.0358 4.57516,-0.30168 5.73772,-0.59087 2.31513,-0.5759 2.92495,-0.49746 1.42958,0.18387 -1.17218,0.53408 -1.08749,1.25063 0.61447,5.19915 l 1.15571,2.68125 3.00586,-0.0499 c 3.58863,-0.0595 7.05014,-0.87851 8.9142,-2.10908 1.48544,-0.98063 1.46624,-0.78409 0.44389,-4.54384 -0.31656,-1.16416 -0.82421,-4.73139 -1.12812,-7.92716 -0.30391,-3.19578 -0.61644,-5.91388 -0.69451,-6.04021 -0.0781,-0.12633 -1.82196,0.18306 -3.87529,0.68754 l -3.73333,0.91723 0.21709,1.5952 c 0.3275,2.40652 -0.0942,2.74275 -4.41008,3.5161 -7.20646,1.29131 -15.219776,1.79484 -17.112366,1.07527 -0.607504,-0.23097 -1.127767,-0.84787 -1.487589,-1.76389 -0.537323,-1.36789 -0.601917,-1.40869 -2.230237,-1.40869 h -1.676886 l 0.504179,1.93071 c 0.482639,1.84822 0.466711,2.01973 -0.372787,4.01429 -1.616509,3.84065 -2.990631,10.3944 -2.272457,10.83826 1.94432,1.20165 7.738515,1.52825 11.046773,0.62267 z m 29.36919,-16.82702 c 0.62089,-1.20066 0.3924,-2.82987 -1.51596,-10.80947 -1.75727,-7.34782 -1.4721,-6.82478 -3.02243,-5.54357 l -0.94511,0.78107 0.76873,2.64678 c 0.4228,1.45573 1.12591,3.00355 1.56248,3.43958 0.81572,0.81475 1.06284,2.49926 0.45571,3.1064 -0.21426,0.21426 -0.21686,1.17661 -0.007,2.62819 0.18202,1.2596 0.33413,3.01777 0.33804,3.90706 0.004,0.8893 0.11327,1.72308 0.24305,1.85286 0.32241,0.32241 1.487,-0.77981 2.12259,-2.0089 z m -28.99678,-0.13794 c -0.34706,-3.05197 -0.44913,-3.2632 -1.576756,-3.2632 -0.90105,0 -1.02473,-0.14412 -1.21094,-1.41111 -0.11407,-0.77611 -0.302574,-2.05703 -0.418899,-2.84649 -0.158485,-1.0756 -0.342568,-1.38509 -0.734409,-1.23473 -0.287602,0.11037 -0.850452,0.20066 -1.250777,0.20066 -0.685013,0 -0.7158,0.14397 -0.52288,2.44513 0.22806,2.72027 1.203671,7.01719 1.747657,7.69724 0.204523,0.25568 1.160548,0.44098 2.275208,0.44098 h 1.922466 z m 9.88129,1.11637 c 4.073,-0.54161 6.45021,-1.01079 6.77695,-1.33752 0.21742,-0.21742 -0.78591,-7.06273 -1.3397,-9.14026 -0.33513,-1.25722 -0.42242,-1.32441 -1.48554,-1.14363 -2.42849,0.41297 -9.41523,1.20326 -12.72343,1.43919 l -3.480066,0.24818 0.24412,2.15773 c 0.13426,1.18675 0.3084,2.22201 0.38697,2.30057 0.0786,0.0786 0.58133,0.15891 1.117246,0.17854 0.94834,0.0347 0.9876,0.11891 1.46714,3.14525 l 0.49271,3.10956 2.33153,-0.22079 c 1.28232,-0.12144 4.07777,-0.45301 6.21207,-0.73682 z m -4.94291,-2.63944 c -0.13333,-0.78919 -0.18698,-1.48544 -0.1192,-1.54721 0.0678,-0.0618 0.77598,-0.22008 1.5738,-0.35178 l 1.45058,-0.23947 0.23872,1.49287 c 0.27236,1.7033 -0.0403,2.06662 -1.78595,2.07507 -1.03087,0.005 -1.13393,-0.1035 -1.35795,-1.42948 z m 4.78095,0.22892 c -0.14301,-0.3866 -0.24445,-1.10685 -0.22542,-1.60057 0.0301,-0.78168 0.21227,-0.9122 1.40981,-1.01025 1.56237,-0.12794 1.96268,0.26361 1.97078,1.92764 0.005,1.04285 -0.0817,1.11778 -1.44487,1.24778 -1.19848,0.11429 -1.49542,0.0163 -1.7103,-0.5646 z m -4.98245,-3.39816 c -0.20486,-0.12662 -0.3218,-0.84905 -0.25987,-1.60541 0.11058,-1.35045 0.13801,-1.3752 1.52373,-1.3752 1.40159,0 1.41183,0.01 1.5176,1.45857 0.10466,1.43365 0.085,1.46108 -1.15125,1.60541 -0.69175,0.0808 -1.42535,0.0432 -1.63021,-0.0834 z m 4.49766,-0.56997 c -0.12936,-0.12935 -0.23519,-0.82635 -0.23519,-1.5489 0,-1.25341 0.0607,-1.32133 1.32292,-1.47952 1.72837,-0.21663 1.85208,-0.11758 1.85208,1.4828 0,0.90791 -0.18345,1.42294 -0.55802,1.56668 -0.74156,0.28456 -2.08808,0.27266 -2.38179,-0.0211 z m -15.404637,2.72547 c 0,-0.57065 -0.170021,-1.14261 -0.377825,-1.27104 -0.617125,-0.3814 -3.527749,0.19936 -3.737412,0.74574 -0.433931,1.13081 0.164221,1.56281 2.163889,1.56281 1.924279,0 1.951348,-0.0144 1.951348,-1.03751 z m -1.167377,-2.3544 c 0.695135,-0.18641 0.753099,-0.37447 0.576097,-1.869 -0.284911,-2.40559 0.164511,-2.71499 4.365531,-3.00538 5.500466,-0.38021 10.989256,-0.93707 14.041026,-1.42453 3.5862,-0.57283 4.32317,-0.32331 4.62528,1.56593 0.12507,0.78216 0.42342,1.4221 0.66301,1.4221 0.40932,0 5.86874,-1.27465 6.76605,-1.57972 0.28965,-0.0985 0.1047,-1.16608 -0.62039,-3.58115 -0.69457,-2.31343 -0.91648,-3.55743 -0.67726,-3.79665 0.23923,-0.23923 0.35581,-0.2171 0.35581,0.0675 0,0.23283 0.14617,0.42333 0.32482,0.42333 0.34442,0 11.31685,-9.07479 11.31685,-9.35965 0,-0.0919 -0.6465,-0.75125 -1.43666,-1.46512 -1.68264,-1.52016 -2.79668,-3.52628 -2.79668,-5.03617 0,-1.16111 -0.1904,-1.25078 -1.55456,-0.73213 -0.5357,0.20367 -1.11677,0.87115 -1.44754,1.66278 -0.77844,1.86308 -1.45422,2.49771 -2.93834,2.7594 -0.97615,0.17213 -1.53057,0.57024 -2.27058,1.63048 -0.909,1.30232 -0.95046,1.50884 -0.57922,2.88477 l 0.39987,1.48203 -1.89023,1.69913 c -2.2928,2.06098 -6.54691,4.21268 -10.35689,5.23842 -3.84594,1.03543 -11.928446,1.1117 -15.345839,0.14481 -1.261181,-0.35682 -2.579539,-0.66191 -2.929689,-0.67797 -0.501526,-0.023 -0.589061,-0.21902 -0.412475,-0.92373 0.328461,-1.31079 2.392528,-4.54594 4.031601,-6.31899 0.784976,-0.84914 1.427229,-1.58904 1.427229,-1.64422 0,-0.0552 -0.732381,-0.45488 -1.627512,-0.8882 -1.997449,-0.96695 -3.50437,-3.18082 -3.843506,-5.64662 -0.131798,-0.95829 -0.318005,-1.74235 -0.413791,-1.74235 -0.09579,0 -1.212889,0.58089 -2.482448,1.29087 -3.608115,2.01778 -6.491511,4.66068 -7.835207,7.18171 -1.101547,2.06671 -1.160168,2.35487 -1.009291,4.96117 0.131994,2.28012 0.343255,3.06314 1.200591,4.44984 1.521573,2.46109 4.156721,4.29074 7.932783,5.50792 0.389513,0.12556 0.712223,1.01245 1.040349,2.85914 0.470355,2.64719 0.487711,2.67708 1.551992,2.67231 0.591976,-0.003 1.424125,-0.0981 1.849219,-0.21208 z m 28.448884,-0.49691 c 3.9915,-0.98894 4.46849,-1.22949 4.46849,-2.25347 0,-1.32202 -0.9521,-1.38645 -5.10608,-0.34556 -3.4668,0.86869 -3.75321,1.0041 -3.56972,1.68768 0.10973,0.40877 0.20167,0.94165 0.20432,1.18419 0.007,0.60186 0.64946,0.55804 4.00299,-0.27284 z m -11.40651,-11.6389 c 5.44114,-1.52112 11.22577,-5.20026 10.72775,-6.82306 -0.12763,-0.4159 -0.27616,-0.80677 -0.33007,-0.86861 -0.0539,-0.0618 -0.88115,0.4502 -1.83833,1.13787 -4.26998,3.06767 -9.65412,4.74602 -16.14407,5.03245 -3.120726,0.13773 -4.919946,0.0404 -6.845793,-0.37034 -2.445001,-0.52146 -2.64215,-0.51808 -3.075587,0.0526 -0.769257,1.01291 -0.55776,1.37985 1.055698,1.83159 4.500976,1.2602 11.957212,1.26358 16.450402,0.007 z m -2.76506,-2.97009 c 4.75228,-0.92915 8.03223,-2.35645 11.55726,-5.02922 1.76497,-1.33825 3.40472,-3.51058 2.80164,-3.71161 -0.27924,-0.0931 -0.26423,-0.68608 0.0533,-2.10483 0.60341,-2.69631 0.28546,-10.83667 -0.50715,-12.98464 -0.54677,-1.48174 -0.54564,-1.61023 0.0178,-2.02225 0.56446,-0.41274 0.55985,-0.52091 -0.0746,-1.74795 -1.21648,-2.35285 -5.24991,-6.27896 -7.85919,-7.6501 -3.45412,-1.81509 -5.85849,-2.34326 -10.66699,-2.34326 -6.702387,0 -11.655771,1.75428 -15.220251,5.39039 -3.362304,3.42986 -4.795329,6.98019 -5.086275,12.60127 -0.138105,2.66819 -0.03606,4.43355 0.364846,6.31211 0.633779,2.96972 0.717768,3.11959 1.421059,2.53592 0.404103,-0.33538 0.433197,-0.65016 0.138292,-1.49613 -0.21047,-0.60376 -0.278451,-1.98068 -0.155748,-3.15464 0.773695,-7.40232 8.929042,-13.0167 18.907817,-13.0167 5.55139,0 10.24108,1.67824 13.46202,4.81748 2.54975,2.48508 3.31261,4.30035 3.31261,7.88252 0,3.37907 -0.63853,5.11435 -2.81956,7.66239 -3.98323,4.6535 -12.88133,7.42707 -19.705984,6.14242 -1.947679,-0.36662 -2.101642,-0.34401 -2.722291,0.39982 -0.361823,0.43363 -0.663137,0.89814 -0.669593,1.03224 -0.04566,0.94851 9.347658,1.28705 13.450978,0.48477 z m -6.5628,-7.45204 c 2.32205,-1.39084 5.80009,-4.6202 5.80009,-5.38538 0,-0.34735 -0.25736,-0.42668 -0.8785,-0.27078 l -0.87849,0.22048 1.23128,-2.24 c 1.18937,-2.1638 1.60667,-4.1217 0.87848,-4.1217 -0.19402,0 -0.35359,0.35719 -0.35458,0.79375 -0.002,1.03524 -1.32813,3.18479 -2.55583,4.14397 -1.27683,0.99754 -1.2239,0.70583 0.26458,-1.45803 1.94247,-2.82386 1.59256,-4.9069 -0.72648,-4.32486 -0.71981,0.18066 -0.79047,0.31781 -0.47114,0.91449 0.82854,1.54814 -0.97825,4.03648 -3.854826,5.30892 -1.90201,0.84135 -2.279141,0.60336 -0.64464,-0.40682 1.686076,-1.04205 3.824546,-3.4861 3.676716,-4.20211 -0.20194,-0.97811 -2.814576,-0.64041 -5.149765,0.66565 -3.435537,1.92148 -5.000988,3.38526 -4.99873,4.67407 0.0052,2.96814 1.304389,4.9758 4.054976,6.26623 1.916663,0.8992 2.200233,0.86363 4.606859,-0.57788 z m 37.89359,-0.85586 c 3.17147,-1.85224 5.63111,-4.72698 3.45291,-4.03565 -0.75587,0.2399 -0.74826,0.19937 0.17772,-0.94637 1.35815,-1.68047 2.07566,-3.06315 1.7076,-3.29062 -0.17209,-0.10636 -0.59012,0.24182 -0.92896,0.77373 -0.67899,1.06588 -2.27485,2.52205 -2.7858,2.54192 -0.17934,0.007 -0.007,-0.3445 0.38391,-0.78106 1.15228,-1.28823 2.30217,-3.39865 2.06281,-3.78593 -0.26746,-0.43275 -2.63631,-0.46877 -3.29675,-0.0501 -0.37886,0.24016 -0.36167,0.34006 0.0882,0.51269 1.30226,0.49972 0.31391,2.97276 -1.57934,3.9518 -1.33282,0.68922 -1.32368,0.25729 0.0214,-1.01227 0.58208,-0.54939 1.05833,-1.27736 1.05833,-1.61772 0,-0.55943 -0.21139,-0.58684 -2.20208,-0.28554 -1.21114,0.18331 -2.96982,0.72234 -3.90819,1.19785 l -1.70612,0.86455 0.24574,1.47936 c 0.13516,0.81365 0.45482,1.88816 0.71036,2.38781 0.53012,1.03654 3.14386,3.50127 3.71295,3.50127 0.20812,0 1.4615,-0.63256 2.78529,-1.4057 z m -56.620367,-3.37924 c -0.309793,-1.15183 -0.656067,-3.64204 -0.769497,-5.53381 -0.155225,-2.58881 -0.326596,-3.43958 -0.692837,-3.43958 -1.414508,0 -1.474326,5.61077 -0.106773,10.01503 0.748536,2.4107 0.760191,2.42476 1.443498,1.74145 0.661075,-0.66107 0.666144,-0.77337 0.125609,-2.78309 z m 42.767127,0.6398 c 0.53811,-2.53727 0.33019,-10.33488 -0.33265,-12.47548 -0.56077,-1.81094 -0.68902,-1.96585 -1.49931,-1.81096 -1.04787,0.20032 -1.03788,0.10247 -0.32177,3.15205 0.42524,1.81092 0.52867,3.642 0.41971,7.43022 l -0.14461,5.02709 h 0.79903 c 0.63826,0 0.85549,-0.26618 1.0796,-1.32292 z m 1.88708,-1.36798 c 0.78432,-3.38054 0.058,-11.19421 -1.14353,-12.30216 -0.27058,-0.2495 -0.31757,-0.0946 -0.16053,0.52917 0.97923,3.88927 1.19592,11.15048 0.39479,13.22917 -0.21043,0.54601 -0.17421,0.61559 0.16021,0.30771 0.23766,-0.21881 0.57474,-1.01256 0.74906,-1.76389 z m -39.443614,-6.68364 c 0.999236,-1.47786 1.377072,-1.74943 2.912103,-2.09309 2.101095,-0.47039 4.34934,-1.82815 5.534331,-3.34228 2.321284,-2.96606 12.61917,-2.78266 17.8786,0.31841 1.02212,0.60266 1.76493,0.94452 1.65069,0.75968 -0.41443,-0.67057 -3.95315,-2.44556 -6.31536,-3.16773 -2.92581,-0.89448 -8.1124,-0.99086 -11.415036,-0.21213 -4.124196,0.97246 -8.453037,3.62106 -10.295514,6.29931 -1.109627,1.61297 -2.166673,4.40465 -2.128418,5.62121 0.01436,0.4566 0.233617,0.10251 0.527481,-0.85188 0.276599,-0.89832 1.019605,-2.39749 1.651123,-3.3315 z"
       id="path2831"
       sodipodi:nodetypes="sssssssccsssssssssssssssssscscccsssssccssssscssssscssscccsscsssccsccssssssssscsssssscsscscssssscsssscscsscsssccccssssccssssscsssssssssssssssssscsssssssssssssssscccsssscscssssscsccssscsscsssssssssssssssssssscsscssssssssssssssssscsssssssscsssssssssssssssscsssscssssssssssssss" />
    <path
       style="fill:none;stroke:#3936eb;stroke-width:0.264583px;stroke-linecap:butt;stroke-linejoin:miter;stroke-opacity:1"
       d="m 84.757847,145.02713 c 0.03974,0.38865 0.187562,0.74807 0.367496,1.18601"
       id="path2843"
       sodipodi:nodetypes="cc" />
    <path
       style="fill:none;stroke:#3936eb;stroke-width:0.264583px;stroke-linecap:butt;stroke-linejoin:miter;stroke-opacity:1"
       d="m 94.414832,153.8955 c 0.356992,0.18538 0.843167,0.20009 1.25921,0.23814"
       id="path2845"
       sodipodi:nodetypes="cc" />
    <path
       style="fill:#3936eb;fill-opacity:1;stroke:#3936eb;stroke-width:0.622506;stroke-linecap:round;stroke-linejoin:round;stroke-opacity:1"
       d="m 98.811996,154.34046 c -0.385869,-0.0478 -1.062395,-0.15121 -1.503389,-0.22978 -0.440997,-0.0786 -1.154772,-0.1545 -1.586169,-0.16871 -0.431398,-0.0142 -0.815515,-0.0451 -0.853594,-0.0686 -0.08729,-0.054 0.07464,-0.2581 1.265775,-1.59573 0.520012,-0.58397 0.975029,-1.11698 1.011147,-1.18447 0.116838,-0.21831 -0.07296,-0.37734 -1.039111,-0.87065 -1.199724,-0.61256 -1.781215,-1.01461 -2.386973,-1.65038 -1.131395,-1.18744 -1.692283,-2.38921 -2.029219,-4.34783 -0.233413,-1.35684 -0.327136,-1.66461 -0.521788,-1.71346 -0.372956,-0.0936 -4.034213,1.98402 -5.664025,3.21412 l -0.311367,0.23501 -0.106542,-0.32078 c -0.0586,-0.17642 -0.117695,-0.50052 -0.131324,-0.72023 -0.01363,-0.2197 -0.09618,-0.62497 -0.183446,-0.90059 -0.147801,-0.46681 -0.158525,-0.60408 -0.156593,-2.00452 0.0019,-1.40933 0.01384,-1.55356 0.18992,-2.3052 0.532702,-2.27383 1.660171,-4.24676 3.449386,-6.03597 2.475908,-2.47591 6.040387,-4.28555 10.022774,-5.08843 5.559412,-1.12081 11.339432,-0.35508 15.412042,2.04178 1.33596,0.78626 2.2008,1.47534 3.36365,2.68008 1.61477,1.67295 2.30086,2.91653 2.64758,4.79892 0.17475,0.94875 0.1758,4.04196 0.002,4.9779 -0.23261,1.25038 -0.69279,2.38155 -1.3999,3.44109 -0.44829,0.67172 -1.24579,1.63954 -1.84766,2.24227 -2.88551,2.88957 -7.89341,5.03808 -12.99092,5.57339 -1.18113,0.12404 -3.653738,0.12446 -4.65195,8e-4 z m 0.367495,-4.29627 c 0.955649,-0.33325 2.657199,-1.38266 4.061199,-2.50471 1.62314,-1.29717 3.0449,-2.68663 3.58785,-3.50634 0.27047,-0.40833 0.28081,-0.81171 0.0259,-1.01219 -0.20499,-0.16124 -0.38192,-0.17019 -0.90973,-0.046 -0.21131,0.0497 -0.3842,0.076 -0.3842,0.0584 0,-0.0176 0.28333,-0.54737 0.62962,-1.17724 1.04994,-1.90975 1.49755,-3.06865 1.55201,-4.01836 0.0344,-0.60069 -0.0387,-0.81641 -0.32323,-0.95283 -0.40874,-0.19599 -0.69239,0.14288 -0.78673,0.9399 -0.0881,0.7443 -0.32826,1.30321 -0.99608,2.31813 -0.36031,0.5476 -1.59006,1.87089 -1.73863,1.87089 -0.0398,0 0.23075,-0.45751 0.60135,-1.01668 1.14096,-1.72157 1.49537,-2.56533 1.49545,-3.56031 7e-5,-0.87668 -0.25945,-1.27396 -0.96781,-1.48156 -0.30983,-0.0908 -0.44379,-0.0956 -0.85973,-0.031 -0.6248,0.0971 -1.05485,0.28511 -1.15496,0.50484 -0.0655,0.14382 -0.0454,0.25002 0.13328,0.70211 0.24515,0.62037 0.25978,0.90032 0.0778,1.48936 -0.32221,1.0432 -1.44855,2.27157 -2.83389,3.09061 -0.505853,0.29907 -1.904554,0.9328 -1.952639,0.88471 -0.01326,-0.0133 0.273147,-0.2252 0.636468,-0.47098 1.481461,-1.00216 3.065781,-2.6705 3.551021,-3.73934 0.68036,-1.49861 -1.55315,-1.79635 -4.355992,-0.5807 -1.218589,0.52854 -3.331636,1.84362 -4.419555,2.75059 -0.646779,0.5392 -1.213011,1.20112 -1.455457,1.70142 -0.204856,0.42273 -0.24561,1.2737 -0.105227,2.1972 0.372623,2.45126 1.784686,4.1515 4.400727,5.2988 1.197208,0.52506 1.664073,0.57964 2.491105,0.29124 z M 85.713758,141.5334 c 0.0713,-0.11725 0.242496,-0.54572 0.380431,-0.95215 0.466858,-1.37563 1.580338,-3.37655 2.384394,-4.28473 0.404053,-0.45639 0.904904,-0.70519 1.99214,-0.98962 2.265937,-0.5928 3.715602,-1.42191 5.334492,-3.05096 1.290191,-1.29829 1.896367,-1.63208 3.674957,-2.02355 1.350928,-0.29734 1.914698,-0.34606 3.975638,-0.34357 2.07579,0.002 2.96804,0.0801 4.67721,0.4068 2.3459,0.4484 3.93147,1.01746 5.90966,2.121 0.99925,0.55744 1.36267,0.70058 1.57339,0.61972 0.13999,-0.0537 0.12574,-0.26029 -0.0318,-0.46055 -0.44312,-0.56333 -3.39823,-2.07772 -5.62952,-2.88491 -2.68453,-0.97116 -7.36351,-1.25388 -11.042547,-0.66723 -3.121602,0.49777 -6.745293,2.13263 -9.287616,4.1902 -0.85588,0.69268 -1.912927,1.82438 -2.403779,2.57353 -0.801452,1.2232 -1.677768,3.26649 -1.934986,4.51175 -0.106389,0.51507 -0.140927,1.32201 -0.06005,1.4029 0.118809,0.1188 0.364876,0.0338 0.487963,-0.16863 z"
       id="path2847" />
    <path
       style="fill:#3936eb;fill-opacity:1;stroke:#3936eb;stroke-width:0.279307;stroke-linecap:round;stroke-linejoin:round;stroke-miterlimit:4;stroke-dasharray:none;stroke-opacity:1"
       d="m 105.61492,171.3104 c -0.13558,-0.14064 -0.12403,-1.95315 0.0138,-2.17046 0.0779,-0.12287 0.39835,-0.16178 1.10044,-0.13364 l 0.99049,0.0397 0.1196,0.9762 c 0.0784,0.64021 0.0731,1.02275 -0.0156,1.11145 -0.16736,0.16736 -2.07091,0.31969 -2.20871,0.17675 z"
       id="path2849" />
    <path
       style="fill:#3936eb;fill-opacity:1;stroke:#3936eb;stroke-width:0.279307;stroke-linecap:round;stroke-linejoin:round;stroke-miterlimit:4;stroke-dasharray:none;stroke-opacity:1"
       d="m 110.13939,170.63869 c -0.0446,-0.11626 -0.0811,-0.6293 -0.0811,-1.14009 0,-1.09736 0.0256,-1.1178 1.40317,-1.11957 l 0.93544,-0.001 0.04,1.00227 c 0.0356,0.89244 0.008,1.02788 -0.24867,1.23612 -0.39303,0.31842 -1.92879,0.33527 -2.04882,0.0225 z"
       id="path2851" />
    <path
       style="fill:#3936eb;fill-opacity:1;stroke:#3936eb;stroke-width:0.279307;stroke-linecap:round;stroke-linejoin:round;stroke-miterlimit:4;stroke-dasharray:none;stroke-opacity:1"
       d="m 106.19377,175.54765 c -0.18715,-0.34969 -0.42592,-1.93098 -0.30889,-2.04569 0.15705,-0.15394 2.30372,-0.48625 2.37684,-0.36795 0.0366,0.0593 0.10463,0.60078 0.15109,1.20333 0.10327,1.33913 0.002,1.45722 -1.24852,1.45722 -0.67856,0 -0.86358,-0.0471 -0.97052,-0.24691 z"
       id="path2853" />
    <path
       style="fill:#3936eb;fill-opacity:1;stroke:#3936eb;stroke-width:0.279307;stroke-linecap:round;stroke-linejoin:round;stroke-miterlimit:4;stroke-dasharray:none;stroke-opacity:1"
       d="m 110.89042,175.09612 c -0.217,-0.26147 -0.44947,-1.52102 -0.35223,-1.90844 0.0915,-0.36469 0.39038,-0.46244 1.4213,-0.4649 0.90294,-0.002 1.09447,0.19468 1.23355,1.26771 0.1225,0.9451 -0.0413,1.11111 -1.20049,1.21676 -0.74098,0.0675 -0.97329,0.0441 -1.10213,-0.11113 z"
       id="path2855" />
  </g>
</svg>
