<svg width="709" height="685" viewBox="0 0 709 685" fill="none" xmlns="http://www.w3.org/2000/svg">
<g filter="url(#filter0_f_169_310)">
<circle cx="558.5" cy="108.5" r="110.5" fill="url(#paint0_linear_169_310)"/>
</g>
<g filter="url(#filter1_i_169_310)">
<circle cx="418.5" cy="740.5" r="290.5" fill="#C4C4C4"/>
</g>
<g filter="url(#filter2_i_169_310)">
<ellipse cx="631.134" cy="644.64" rx="6.42117" ry="15.4699" transform="rotate(-29.0966 631.134 644.64)" fill="#A2A2A2"/>
</g>
<g filter="url(#filter3_i_169_310)">
<ellipse cx="506.183" cy="674.096" rx="15.2425" ry="13.3711" transform="rotate(-29.0966 506.183 674.096)" fill="#A2A2A2"/>
</g>
<g filter="url(#filter4_i_169_310)">
<ellipse cx="580.183" cy="607.096" rx="10.7823" ry="23.8643" transform="rotate(-29.0966 580.183 607.096)" fill="#A2A2A2"/>
</g>
<g filter="url(#filter5_i_169_310)">
<ellipse cx="245.969" cy="534.955" rx="10.7823" ry="23.8642" transform="rotate(-131.859 245.969 534.955)" fill="#A2A2A2"/>
</g>
<g filter="url(#filter6_i_169_310)">
<ellipse cx="252.969" cy="606.955" rx="10.7823" ry="23.8642" transform="rotate(-140.403 252.969 606.955)" fill="#A2A2A2"/>
</g>
<g filter="url(#filter7_i_169_310)">
<ellipse cx="362.491" cy="654.017" rx="18.3647" ry="40.6463" transform="rotate(171.009 362.491 654.017)" fill="#A2A2A2"/>
</g>
<g filter="url(#filter8_i_169_310)">
<ellipse cx="587.5" cy="671.096" rx="5.51246" ry="9.63061" transform="rotate(-29.0966 587.5 671.096)" fill="#A2A2A2"/>
</g>
<g filter="url(#filter9_i_169_310)">
<ellipse cx="673" cy="657.415" rx="3.19457" ry="4.54185" transform="rotate(-29.0966 673 657.415)" fill="#A2A2A2"/>
</g>
<g filter="url(#filter10_i_169_310)">
<ellipse cx="518.5" cy="522.096" rx="5.51246" ry="9.63061" transform="rotate(-29.0966 518.5 522.096)" fill="#A2A2A2"/>
</g>
<g filter="url(#filter11_i_169_310)">
<ellipse cx="509.5" cy="608.096" rx="5.51246" ry="9.63061" transform="rotate(-29.0966 509.5 608.096)" fill="#A2A2A2"/>
</g>
<g filter="url(#filter12_i_169_310)">
<ellipse cx="619.5" cy="581.096" rx="5.51246" ry="9.63061" transform="rotate(-29.0966 619.5 581.096)" fill="#A2A2A2"/>
</g>
<g filter="url(#filter13_if_169_310)">
<circle cx="113" cy="343" r="15" fill="#C25C5C"/>
</g>
<g filter="url(#filter14_if_169_310)">
<circle cx="20" cy="600" r="41" fill="#515EA5"/>
</g>
<g filter="url(#filter15_d_169_310)">
<path d="M402.328 285.729L415.327 286.05C422.626 293.405 432.296 295.362 440.783 300.013L458.83 321.058L467.517 327.07L468.638 339.152L463.986 347.717L459.278 350.894L452.833 364.394L451.6 370.577L459.783 366.549C459.783 366.549 462.081 360.253 462.249 359.743C462.417 359.232 465.163 353.503 465.163 353.503L471.776 354.354L476.372 351.574L482.033 348.795L487.357 353.787L489.151 360.593L486.068 367.967L479.511 375.909L474.523 379.142L468.974 386.062L462.641 391.621L452.945 397.577L451.824 400.583L452.216 411.474L452.341 428.518L450.835 441.272L445.525 447.048L444.342 447.776L444.034 450.499L443.543 459.321L444.613 463.051L451.232 467.504L452.658 471.795L449.567 478.092L432.685 480.218L421.271 475.686L417.823 466.822L415.762 456.554L414.138 447.489L402.288 447.409L401.575 455.992L398.88 472.076L392.737 477.771L379.659 480.018L369.633 476.769L365.392 471.675L365.59 466.862L371.416 463.894L373.794 461.287L372.882 448.171L370.346 446.125L365.947 442.235L365.234 432.087L361.667 428.076L353.701 418.209L351.522 408.262L354.058 401.845L358.378 392.259L362.975 386.924L364.996 383.916L365.273 376.336L364.441 365.466L359.249 355.158L356.634 349.824L350.65 345.251L348.153 338.954L348.827 330.09L352.592 325.678L359.051 320.584L363.292 314.086L373.041 303.177L386.911 293.911L397.968 290.221L400.782 287.534L402.328 285.729Z" fill="white" stroke="white" stroke-width="0.17049"/>
<path d="M373.115 481.417C368.098 480.337 364.284 478.031 362.84 475.206C362.045 473.649 362.069 470.857 362.893 469.099C363.849 467.06 366.574 464.496 369.41 462.966L371.88 461.634L371.811 455.094L371.743 448.553L369.813 447.689C367.452 446.633 365.789 445.083 364.617 442.848C363.889 441.458 363.7 440.228 363.567 436.007L363.406 430.859L361.104 429.255C356.775 426.238 353.421 421.075 351.725 414.82C349.291 405.841 352.65 395.495 360.616 387.433L363.489 384.525L363.488 375.992L363.487 367.459L361.035 362.589C359.687 359.91 358.138 356.317 357.594 354.606C356.662 351.679 356.489 351.434 354.685 350.509C350.081 348.148 346.751 341.93 346.751 335.695C346.751 331.246 348.554 326.398 351.293 323.481C352.894 321.777 356.232 319.812 357.528 319.812C358.045 319.812 358.703 318.963 359.579 317.165C361.281 313.671 362.977 311.478 368.168 306.055C377.116 296.707 385.746 291.723 397.445 289.145C398.168 288.986 398.64 288.537 398.811 287.847C399.189 286.325 401.457 283.872 403.148 283.157C404.907 282.413 411.278 282.329 413.331 283.022C415.182 283.647 417.351 285.737 417.983 287.506C418.388 288.642 418.807 288.991 420.176 289.34C427.114 291.105 433.847 293.96 438.397 297.067C445.023 301.589 454.478 311.498 457.099 316.665C458.002 318.446 458.966 319.811 459.321 319.815C460.691 319.827 464.218 321.891 465.685 323.538C470.713 329.184 471.573 337.895 467.796 344.919C466.507 347.315 463.624 350.055 461.619 350.789C460.408 351.232 460.163 351.597 459.553 353.87C459.173 355.287 457.656 358.919 456.184 361.941C454.711 364.962 453.57 367.498 453.648 367.577C453.759 367.689 458.134 365.057 458.857 364.444C458.947 364.367 459.084 363.051 459.161 361.519C459.341 357.939 459.962 355.579 461.252 353.572C463.235 350.487 466.825 349.374 469.057 351.151L470.118 351.996L471.52 350.664C473.699 348.593 475.857 347.784 479.199 347.784C482.691 347.784 484.858 348.651 487.141 350.961C489.446 353.294 490.372 355.72 490.358 359.387C490.329 366.92 485.985 373.595 478.191 378.082C476.147 379.259 474.974 380.276 474.157 381.581C471.076 386.5 462.873 393.862 456.574 397.361L453.492 399.072L453.373 420.113C453.256 440.746 453.236 441.186 452.35 442.848C451.145 445.108 449.489 446.638 447.081 447.715L445.093 448.605V455.143V461.68L447.241 462.782C448.422 463.388 450.297 464.743 451.406 465.793C457.439 471.505 454.727 478.525 445.512 481.051C441.907 482.039 433.874 482.033 429.894 481.039C423.79 479.516 418.651 476.238 416.854 472.721C416.489 472.007 415.906 468.899 415.558 465.816C414.926 460.213 413.478 450.715 413.038 449.291C412.831 448.618 412.319 448.549 408.339 448.655L403.873 448.775L402.966 454.069C402.468 456.981 401.756 462.004 401.385 465.23C401.014 468.457 400.449 471.729 400.13 472.502C398.762 475.817 393.662 479.269 387.893 480.785C383.658 481.898 376.728 482.194 373.115 481.415L373.115 481.417ZM445.048 477.556C447.527 476.806 450.536 474.983 450.526 474.239C450.521 473.93 450.406 473.947 450.192 474.287C449.535 475.334 443.765 475.864 439.054 475.31C431.231 474.39 430.34 473.919 427.495 469.212C426.272 467.188 425.37 466.564 425.657 467.941C425.742 468.349 426.12 470.16 426.497 471.966C426.874 473.773 427.355 475.358 427.566 475.49C427.776 475.621 427.853 475.885 427.737 476.076C427.326 476.748 428.665 477.355 431.943 477.982C435.897 478.739 441.772 478.548 445.048 477.556V477.556ZM393.605 474.455C396.357 472.605 397.266 471.134 397.639 467.928L397.92 465.507H395.79C392.35 465.507 391.619 466.052 391.314 468.846C391.172 470.154 390.711 472.422 390.29 473.885L389.524 476.547L390.421 476.269C390.915 476.116 392.347 475.3 393.605 474.455ZM448.258 471.245C449.003 470.751 449.277 470.187 449.277 469.149C449.277 467.464 448.871 467.08 444.941 465.057L441.954 463.518L442.111 459.165C442.198 456.76 442.104 454.893 441.902 454.993C434.814 458.48 432.909 458.916 424.692 458.93C417.392 458.943 417.552 458.889 418.147 461.133C418.365 461.956 418.664 462.051 420.966 462.024C422.421 462.008 424.203 462.28 425.064 462.651C427.117 463.535 429.907 466.149 430.9 468.119C432.025 470.35 433.105 470.936 437.395 471.642C441.862 472.377 446.825 472.196 448.258 471.245ZM382.504 470.951C384.315 470.448 384.719 470.117 385.786 468.26C388.286 463.908 390.471 462.517 395.294 462.205C398.589 461.993 399.043 461.727 399.054 460.001L399.06 458.942L392.05 458.933C384.294 458.924 381.691 458.433 377.19 456.133L374.712 454.868L374.854 459.234L374.997 463.601L372.89 464.66C368.486 466.873 367.674 467.569 367.674 469.128C367.674 471.482 368.936 471.913 375.206 471.702C378.083 471.605 381.367 471.268 382.503 470.952L382.504 470.951ZM398.92 454.738C399.691 454.439 399.623 453.648 398.826 453.648C398.467 453.648 398.262 453.791 398.369 453.965C398.477 454.14 397.089 454.221 395.286 454.146C392.253 454.019 392.023 454.068 392.213 454.803C392.4 455.526 392.688 455.568 395.391 455.276C397.025 455.099 398.613 454.857 398.92 454.738H398.92ZM432.32 454.843C432.386 454.768 432.294 454.316 432.116 453.839C431.806 453.012 431.642 452.993 428.534 453.427C425.436 453.86 424.214 454.585 425.366 455.306C425.791 455.571 432.043 455.155 432.32 454.843ZM381.469 452.829C382.052 451.726 382.02 447.595 381.417 446.256C380.874 445.05 377.817 443.06 376.507 443.06C375.285 443.06 374.788 444.312 374.788 447.398C374.788 450.447 375.135 451.107 377.509 452.582C379.537 453.841 380.889 453.926 381.469 452.829H381.469ZM439.223 452.806C441.587 451.586 442.163 450.523 442.163 447.385C442.163 444.179 441.67 443.06 440.259 443.06C438.924 443.06 436.555 444.634 435.709 446.083C434.816 447.613 434.814 452.079 435.706 452.982C436.57 453.856 437.256 453.822 439.223 452.806H439.223ZM400.165 449.706C400.665 449.199 400.211 449.104 396.235 448.885C392.575 448.683 392.364 448.718 392.364 449.517C392.364 450.313 392.585 450.352 396.12 450.181C398.185 450.081 400.005 449.868 400.165 449.706ZM429.498 449.397C431.108 449.048 431.522 448.782 431.522 448.101C431.522 447.444 431.322 447.298 430.67 447.478C430.201 447.607 428.654 447.922 427.23 448.178C425.291 448.526 424.699 448.792 424.869 449.239C425.137 449.947 426.717 450.001 429.498 449.397ZM411.614 445.029C411.614 444.947 411.408 444.28 411.155 443.546C410.716 442.271 410.595 442.212 408.424 442.212C406.372 442.212 406.114 442.317 405.745 443.299C405.521 443.896 405.337 444.563 405.337 444.781C405.337 444.999 406.75 445.177 408.476 445.177C410.202 445.177 411.614 445.11 411.614 445.029ZM447.771 443.887C450.618 441.357 450.649 441.088 450.469 420.239C450.381 409.993 450.211 401.51 450.091 401.389C449.83 401.125 439.556 404.698 439.806 404.966C439.902 405.069 440.657 408.965 441.483 413.624C443.162 423.085 444.46 433.245 444.904 440.412C445.237 445.765 445.414 445.981 447.771 443.887ZM371.596 442.742C371.725 441.635 371.951 438.967 372.099 436.812L372.366 432.895L371.171 432.89C370.514 432.888 369.27 432.767 368.407 432.623L366.837 432.36L366.855 436.333C366.875 440.805 367.495 442.535 369.579 443.925C370.258 444.377 370.936 444.749 371.088 444.751C371.239 444.752 371.468 443.848 371.596 442.742L371.596 442.742ZM395.294 439.947C395.294 439.866 393.88 439.093 392.152 438.228C390.423 437.364 387.587 435.513 385.849 434.115C383.193 431.979 382.709 431.398 382.819 430.477C383.066 428.391 384.123 428.329 386.304 430.272C393.234 436.445 400.962 439.178 410.141 438.701C413.094 438.547 415.807 438.13 417.682 437.541C421.745 436.265 427.312 433.281 429.885 430.998C432.245 428.906 433.578 428.576 434.017 429.974C434.229 430.65 433.907 431.278 432.685 432.57C430.909 434.447 426.411 437.565 423.645 438.836C422.131 439.532 422.026 439.654 422.939 439.662C426.841 439.696 435.585 435.94 439.098 432.722L441.002 430.977L440.37 426.615C440.023 424.216 439.656 422.169 439.555 422.067C439.454 421.964 438.299 422.254 436.988 422.711C433.797 423.822 426.134 425.508 421.239 426.175C419 426.481 413.152 426.717 407.848 426.717C398.031 426.717 392.311 426.125 385.696 424.424C383.985 423.984 382.446 423.711 382.276 423.817C382.106 423.923 381.835 424.619 381.673 425.363C381.492 426.2 380.452 427.655 378.94 429.184L376.5 431.654L379.097 433.604C380.525 434.677 382.912 436.137 384.401 436.849C387.52 438.341 395.294 440.552 395.294 439.947ZM378.582 423.706C379.803 419.961 378.017 415.855 374.247 413.738C372.816 412.934 372.512 412.554 372.622 411.704C372.794 410.369 373.874 409.523 374.976 409.858C375.691 410.076 375.744 410.023 375.29 409.542C374.281 408.474 370.655 408.868 368.093 410.324C366.827 411.044 365.791 411.833 365.791 412.079C365.791 413.065 369.196 416.553 372.698 419.155C376.527 421.999 377.694 423.717 377.023 425.524C376.762 426.227 376.811 426.258 377.409 425.767C377.785 425.457 378.313 424.529 378.582 423.706ZM419.896 423.129C425.347 422.528 431.6 421.226 435.677 419.842C438.874 418.758 439.021 418.652 438.939 417.49C438.891 416.821 438.759 416.179 438.644 416.062C438.529 415.946 436.966 416.243 435.172 416.723C428.646 418.47 416.733 419.762 407.138 419.764C399.701 419.766 388.373 418.627 383.263 417.365C382.52 417.182 382.321 417.314 382.321 417.991C382.321 419.488 382.776 420.136 384.137 420.574C386.362 421.29 394.452 422.721 398.432 423.102C403.948 423.63 415.222 423.644 419.896 423.129V423.129ZM358.067 416.059C358.894 414.356 360.398 412.249 361.786 410.846C364.057 408.552 368.683 405.789 370.252 405.789C371.669 405.789 371.043 405.029 369.064 404.346C366.529 403.472 362.089 403.484 359.512 404.373C357.022 405.231 353.865 408.252 353.865 409.776C353.865 411.168 354.547 411.531 355.121 410.446C355.58 409.578 358.716 407.059 359.338 407.059C359.769 407.059 360.979 408.296 360.979 408.737C360.979 408.928 359.99 410.106 358.782 411.354C356.256 413.964 355.305 416.124 355.938 417.808C356.167 418.419 356.428 418.918 356.517 418.918C356.606 418.918 357.304 417.632 358.067 416.059ZM427.036 415.135C432.625 414.258 437.034 413.193 437.71 412.557C438.179 412.116 436.671 405.081 434.398 397.106C432.141 389.188 430.412 384.797 429.59 384.901C429.255 384.943 427.046 385.406 424.682 385.929L420.383 386.882L422.316 387.825C424.886 389.078 426.528 390.733 427.29 392.837C427.634 393.788 428.507 397.687 429.23 401.502C430.711 409.317 430.582 410.814 428.259 412.793C426.088 414.641 424.913 414.744 407.639 414.604C392.056 414.477 391.252 414.432 389.855 413.601C387.962 412.476 386.506 410.264 386.506 408.516C386.506 406.578 388.879 394.236 389.576 392.547C390.429 390.481 392.56 388.539 394.894 387.7L396.958 386.958L392.673 386.037C390.317 385.531 388.072 384.988 387.685 384.83C387.176 384.623 386.806 384.887 386.349 385.78C384.304 389.782 378.438 411.808 379.225 412.531C380.266 413.488 390.99 415.578 397.595 416.113C398.746 416.206 404.584 416.221 410.568 416.147C418.974 416.043 422.719 415.813 427.036 415.135ZM425.226 411.042C425.811 410.894 426.563 410.238 426.896 409.586C427.444 408.514 427.381 407.756 426.24 401.695C424.741 393.731 424.46 392.927 422.689 391.56C420.811 390.111 418.856 389.962 406.446 390.324L395.743 390.636L394.231 391.966C392.597 393.402 392.154 394.838 390.443 404.241C389.766 407.967 389.751 408.531 390.307 409.535C390.727 410.295 391.399 410.741 392.379 410.912C394.378 411.259 423.909 411.377 425.226 411.042ZM415.517 408.136C412.982 407.02 411.813 403.679 413.04 401.061C414.797 397.314 420.454 397.123 422.307 400.748C423.604 403.288 422.846 406.146 420.439 407.788C418.832 408.884 417.44 408.982 415.517 408.136ZM419.301 404.47C419.981 403.486 419.801 402.476 418.799 401.659C417.932 400.953 417.25 400.992 416.457 401.796C415.185 403.082 416.107 405.365 417.898 405.365C418.328 405.365 418.96 404.962 419.301 404.47ZM395.103 407.337C394.536 406.918 394.407 406.472 394.612 405.643L394.891 404.518H399.616C404.653 404.518 405.977 404.94 405.692 406.452C405.57 407.1 405.057 407.329 403.24 407.547C399.246 408.026 395.918 407.941 395.103 407.337ZM394.617 401.367C394.49 401.031 394.452 400.411 394.532 399.99C394.663 399.3 395.193 399.224 399.857 399.224C404.236 399.224 405.105 399.333 405.476 399.93C405.796 400.442 405.765 400.819 405.366 401.306C404.593 402.249 394.973 402.303 394.618 401.367H394.617ZM394.736 396.189C394.158 395.604 394.488 393.943 395.266 393.521C395.711 393.28 397.958 393.083 400.258 393.083C403.502 393.083 404.588 393.232 405.098 393.748C405.884 394.544 405.935 395.273 405.253 395.963C404.715 396.507 395.251 396.711 394.736 396.189ZM411.631 395.856C411.354 395.518 411.192 394.899 411.271 394.48C411.399 393.805 411.991 393.705 416.475 393.6C420.514 393.505 421.637 393.607 422.044 394.102C422.423 394.565 422.435 394.945 422.091 395.597C421.665 396.401 421.249 396.471 416.882 396.471C413.243 396.471 412.018 396.328 411.631 395.856H411.631ZM377.817 402.628C377.94 401.976 377.56 400.656 376.821 399.174C375.808 397.142 375.625 396.266 375.625 393.447C375.625 391.447 375.453 390.118 375.195 390.118C374.958 390.118 373.811 390.881 372.646 391.812C370.218 393.755 369.779 393.844 368.681 392.614C367.519 391.315 364.986 390.118 363.396 390.118C362.22 390.118 361.75 390.461 360.241 392.416C359.266 393.679 358.468 394.823 358.468 394.957C358.468 395.091 359.833 395.205 361.502 395.211C366.287 395.226 370.645 397.393 374.972 401.907C376.103 403.087 377.161 403.97 377.323 403.868C377.485 403.767 377.708 403.209 377.817 402.628ZM444.599 399.5C447.115 398.603 450.562 397.107 452.259 396.176C455.299 394.509 455.344 394.46 455.249 392.901C455.111 390.631 452.96 384.578 451.315 381.831C449.51 378.817 446.536 375.408 446.093 375.844C445.731 376.201 445.849 376.414 447.742 378.827C448.48 379.766 448.837 380.624 448.687 381.098C448.554 381.517 446.797 382.717 444.781 383.765L441.117 385.671L441.258 390.965C441.395 396.118 441.366 396.325 440.172 398.695C439.35 400.326 439.123 401.13 439.485 401.13C439.782 401.13 442.084 400.396 444.599 399.5ZM366.062 399.633C365.29 399.294 364.444 399.15 364.183 399.314C363.677 399.63 365.151 400.179 366.628 400.224C367.178 400.241 366.984 400.038 366.062 399.633ZM459.567 390.597C459.459 390.217 459.16 389.049 458.902 388.001C458.284 385.48 456.503 380.771 455.832 379.878C455.52 379.464 455.082 379.302 454.78 379.49C454.391 379.734 454.517 380.326 455.294 381.895C455.86 383.04 456.847 385.72 457.486 387.85C458.31 390.597 458.81 391.659 459.206 391.505C459.513 391.386 459.675 390.978 459.567 390.597ZM372.857 387.506C373.431 387.046 370.544 385.463 369.127 385.461C368.431 385.46 367.415 385.775 366.871 386.161L365.882 386.862L367.488 387.696C368.371 388.154 369.363 388.802 369.692 389.135C370.212 389.661 370.437 389.613 371.389 388.771C371.993 388.238 372.653 387.668 372.857 387.506ZM467.59 384.865C468.986 383.354 470.722 381.245 471.448 380.178L472.767 378.238L470.961 375.712C469.967 374.323 468.936 373.232 468.668 373.288C468.4 373.343 466.41 375.126 464.246 377.25L460.31 381.111L461.576 385.158L462.841 389.205L463.946 388.408C464.554 387.97 466.194 386.375 467.59 384.865ZM377.532 381.572C377.752 380.87 377.633 380.805 376.6 381.065C375.949 381.229 374.79 381.626 374.024 381.948L372.631 382.533L374.442 384.171L376.253 385.808L376.767 384.092C377.049 383.148 377.394 382.014 377.532 381.572ZM419.775 383.548C425.176 382.728 430.659 381.144 434.738 379.226C436.523 378.387 437.914 377.63 437.829 377.544C437.745 377.458 436.19 377.967 434.374 378.675C424.946 382.35 412.748 383.947 401.802 382.94C393.486 382.174 388.579 380.999 379.601 377.623L378.764 377.308L379.601 377.915C382.279 379.856 390.497 382.54 396.758 383.518C401.948 384.329 414.525 384.345 419.775 383.548V383.548ZM442.268 381.236C444.42 380.123 444.569 379.897 443.651 379.126C442.72 378.344 439.236 380.508 439.539 381.68C439.66 382.147 439.876 382.469 440.019 382.396C440.163 382.323 441.174 381.801 442.268 381.236ZM370.252 380.051L373.448 378.455L370.142 375.36L366.837 372.265V376.956C366.837 379.537 366.886 381.648 366.947 381.648C367.007 381.648 368.494 380.929 370.252 380.051H370.252ZM422.285 378.68C431.328 376.759 440.163 373.126 445.579 369.103C448.955 366.595 452.892 361.873 454.702 358.159C457.137 353.167 457.689 350.375 457.945 341.769C458.396 326.609 456.33 318.696 450.208 312.128C442.567 303.93 430.991 300.77 408.56 300.758C382.733 300.744 368.417 306.226 362.619 318.35C359.969 323.891 359.315 327.953 359.318 338.871C359.32 348.604 359.7 351.622 361.489 356.106C364.368 363.319 371.123 369.871 379.985 374.044C385.592 376.685 391.631 378.284 401.362 379.703C402.052 379.804 406.101 379.815 410.359 379.727C416.124 379.609 419.169 379.341 422.285 378.679V378.68ZM400.598 376.995C387.088 375.265 376.222 370.573 369.469 363.551C366.252 360.206 364.313 357.023 362.816 352.632C361.762 349.539 361.648 348.587 361.485 341.562C361.226 330.368 362.219 324.583 365.382 318.855C368.551 313.117 375.052 308.536 383.246 306.269C395.44 302.894 415.681 302.516 429.399 305.407C443.688 308.418 451.604 315.218 454.327 326.821C455.111 330.161 455.186 331.559 455.055 340.321C454.916 349.593 454.853 350.251 453.82 353.134C449.654 364.757 437.481 373.246 420.512 376.361C416.205 377.151 404.685 377.518 400.598 376.995ZM462.973 374.351C464.877 372.434 466.435 370.733 466.435 370.569C466.435 370.406 465.589 369.695 464.556 368.989C460.966 366.537 461.313 366.538 457.52 368.978C455.633 370.192 454.015 371.249 453.924 371.325C453.833 371.402 454.523 372.305 455.458 373.331C456.392 374.358 457.46 375.791 457.831 376.517C458.202 377.242 458.732 377.836 459.009 377.836C459.286 377.836 461.07 376.267 462.973 374.351V374.351ZM477.982 374.517C484.595 370.169 488.289 363.295 487.192 357.379C486.881 355.7 484.335 352.528 482.836 351.951C480.801 351.168 476.715 354.864 475.428 358.652C474.997 359.92 474.997 360.384 475.428 361.086C476.309 362.523 476.527 364.22 476.056 365.989C475.602 367.698 474.818 368.198 472.885 368.01C472.096 367.933 472.028 367.707 472.178 365.645C472.38 362.861 471.776 361.784 469.409 360.704C467.698 359.922 467.69 359.909 467.67 357.548L467.651 355.177L466.861 357.225C466.426 358.351 465.946 360.666 465.794 362.369C465.553 365.068 465.612 365.52 466.257 365.885C467.717 366.712 472.573 371.964 473.781 374.024C474.459 375.179 475.125 376.129 475.262 376.133C475.399 376.138 476.623 375.411 477.982 374.517ZM464.082 345.169C466.136 342.741 467.05 339.823 467.05 335.695C467.05 331.564 466.136 328.648 464.077 326.214C462.692 324.576 460.303 322.912 459.909 323.311C459.815 323.406 459.939 324.42 460.184 325.566C460.429 326.711 460.735 332.168 460.864 337.693C461.128 349.002 461.031 348.777 464.082 345.169ZM355.824 338.553C355.846 330.829 356.265 325.937 357.087 323.767C357.461 322.781 355.005 324.157 353.448 325.807C350.978 328.423 350.307 330.538 350.314 335.695C350.318 339.664 350.459 340.638 351.26 342.277C352.148 344.092 354.873 347.342 355.507 347.342C355.667 347.342 355.81 343.387 355.824 338.553ZM438.78 301.034C434.966 297.903 425.268 293.43 420.213 292.47L418.728 292.188V294.963V297.737L420.507 297.959C421.485 298.082 423.415 298.299 424.796 298.442C427.641 298.737 435.977 300.466 437.56 301.09C438.486 301.455 439.25 301.42 438.78 301.034ZM383.367 299.881C385.208 299.434 389.304 298.746 392.469 298.353L398.223 297.639V294.927V292.215L396.863 292.5C393.755 293.151 387.735 295.427 384.363 297.226C380.766 299.146 377.455 301.538 379.182 300.969C379.643 300.818 381.526 300.328 383.367 299.881ZM415.702 293.765C415.827 289.482 415.141 287.409 413.288 286.471C411.994 285.817 405.33 285.758 403.961 286.389C402.134 287.232 401.571 288.858 401.571 293.29V297.343L407.743 297.479C411.138 297.554 414.293 297.607 414.753 297.596C415.518 297.579 415.599 297.249 415.702 293.765ZM456.731 425.405C457.033 425.283 457.394 425.298 457.533 425.439C457.672 425.58 457.425 425.68 456.984 425.661C456.497 425.641 456.397 425.541 456.731 425.405V425.405ZM457.647 414.517C457.647 414.425 457.939 414.237 458.296 414.098C458.668 413.953 458.836 414.024 458.69 414.264C458.444 414.667 457.647 414.86 457.647 414.517Z" fill="#3936EB"/>
</g>
<path d="M280.766 261.758C301.272 280.076 323.676 294.873 349.247 303.793C336.312 285.259 325.557 264.96 321.03 239.618" fill="white"/>
<path d="M280.766 261.758C301.272 280.076 323.676 294.873 349.247 303.793C336.312 285.259 325.557 264.96 321.03 239.618" stroke="#3936EB" stroke-width="0.750694"/>
<path d="M280.464 288.941C323.799 288.941 358.928 269.031 358.928 244.471C358.928 219.91 323.799 200 280.464 200C237.13 200 202 219.91 202 244.471C202 269.031 237.13 288.941 280.464 288.941Z" fill="white" stroke="#3936EB" stroke-width="1.07159" stroke-linecap="round" stroke-linejoin="round"/>
<path d="M307.318 280.489L313.748 285.693L327.134 285.904L333.122 278.656C331.144 275.174 328.76 273.3 326.579 270.622L307.318 280.489Z" fill="white" stroke="white" stroke-width="0.17049"/>
<path d="M226.516 238.098C225.611 238.098 224.789 237.888 224.052 237.468C223.315 237.039 222.731 236.446 222.302 235.69C221.882 234.925 221.672 234.061 221.672 233.1C221.672 232.139 221.882 231.28 222.302 230.524C222.731 229.759 223.315 229.166 224.052 228.746C224.789 228.317 225.611 228.102 226.516 228.102C227.431 228.102 228.257 228.317 228.994 228.746C229.731 229.166 230.31 229.759 230.73 230.524C231.15 231.28 231.36 232.139 231.36 233.1C231.36 234.061 231.15 234.925 230.73 235.69C230.31 236.446 229.731 237.039 228.994 237.468C228.257 237.888 227.431 238.098 226.516 238.098ZM226.516 237.244C227.244 237.244 227.897 237.076 228.476 236.74C229.055 236.404 229.512 235.923 229.848 235.298C230.184 234.663 230.352 233.931 230.352 233.1C230.352 232.269 230.184 231.541 229.848 230.916C229.512 230.291 229.055 229.81 228.476 229.474C227.897 229.138 227.244 228.97 226.516 228.97C225.788 228.97 225.135 229.138 224.556 229.474C223.977 229.81 223.52 230.291 223.184 230.916C222.848 231.541 222.68 232.269 222.68 233.1C222.68 233.931 222.848 234.663 223.184 235.298C223.52 235.923 223.977 236.404 224.556 236.74C225.135 237.076 225.788 237.244 226.516 237.244ZM234.133 227.64V238H233.153V227.64H234.133ZM235.904 234.164C235.904 233.38 236.058 232.694 236.366 232.106C236.684 231.509 237.118 231.051 237.668 230.734C238.228 230.407 238.858 230.244 239.558 230.244C240.286 230.244 240.912 230.412 241.434 230.748C241.966 231.084 242.349 231.513 242.582 232.036V230.356H243.562V238H242.582V236.306C242.34 236.829 241.952 237.263 241.42 237.608C240.898 237.944 240.272 238.112 239.544 238.112C238.854 238.112 238.228 237.949 237.668 237.622C237.118 237.295 236.684 236.833 236.366 236.236C236.058 235.639 235.904 234.948 235.904 234.164ZM242.582 234.178C242.582 233.562 242.456 233.021 242.204 232.554C241.952 232.087 241.607 231.728 241.168 231.476C240.739 231.224 240.263 231.098 239.74 231.098C239.199 231.098 238.714 231.219 238.284 231.462C237.855 231.705 237.514 232.059 237.262 232.526C237.02 232.983 236.898 233.529 236.898 234.164C236.898 234.789 237.02 235.34 237.262 235.816C237.514 236.283 237.855 236.642 238.284 236.894C238.714 237.137 239.199 237.258 239.74 237.258C240.263 237.258 240.739 237.132 241.168 236.88C241.607 236.628 241.952 236.269 242.204 235.802C242.456 235.335 242.582 234.794 242.582 234.178ZM241.266 228.102L238.396 229.768V229.012L241.266 227.22V228.102ZM246.696 236.376L245.24 240.044H244.568L245.604 236.376H246.696ZM250.458 234.08C250.458 233.277 250.608 232.573 250.906 231.966C251.214 231.359 251.63 230.893 252.152 230.566C252.675 230.239 253.258 230.076 253.902 230.076C254.453 230.076 254.934 230.188 255.344 230.412C255.764 230.636 256.086 230.93 256.31 231.294V230.188H258.704V238H256.31V236.894C256.077 237.258 255.75 237.552 255.33 237.776C254.92 238 254.439 238.112 253.888 238.112C253.254 238.112 252.675 237.949 252.152 237.622C251.63 237.286 251.214 236.815 250.906 236.208C250.608 235.592 250.458 234.883 250.458 234.08ZM256.31 234.094C256.31 233.497 256.142 233.025 255.806 232.68C255.48 232.335 255.078 232.162 254.602 232.162C254.126 232.162 253.72 232.335 253.384 232.68C253.058 233.016 252.894 233.483 252.894 234.08C252.894 234.677 253.058 235.153 253.384 235.508C253.72 235.853 254.126 236.026 254.602 236.026C255.078 236.026 255.48 235.853 255.806 235.508C256.142 235.163 256.31 234.691 256.31 234.094ZM263.614 238.112C262.933 238.112 262.326 237.995 261.794 237.762C261.262 237.529 260.842 237.211 260.534 236.81C260.226 236.399 260.054 235.942 260.016 235.438H262.382C262.41 235.709 262.536 235.928 262.76 236.096C262.984 236.264 263.26 236.348 263.586 236.348C263.885 236.348 264.114 236.292 264.272 236.18C264.44 236.059 264.524 235.905 264.524 235.718C264.524 235.494 264.408 235.331 264.174 235.228C263.941 235.116 263.563 234.995 263.04 234.864C262.48 234.733 262.014 234.598 261.64 234.458C261.267 234.309 260.945 234.08 260.674 233.772C260.404 233.455 260.268 233.03 260.268 232.498C260.268 232.05 260.39 231.644 260.632 231.28C260.884 230.907 261.248 230.613 261.724 230.398C262.21 230.183 262.784 230.076 263.446 230.076C264.426 230.076 265.196 230.319 265.756 230.804C266.326 231.289 266.652 231.933 266.736 232.736H264.524C264.487 232.465 264.366 232.251 264.16 232.092C263.964 231.933 263.703 231.854 263.376 231.854C263.096 231.854 262.882 231.91 262.732 232.022C262.583 232.125 262.508 232.269 262.508 232.456C262.508 232.68 262.625 232.848 262.858 232.96C263.101 233.072 263.474 233.184 263.978 233.296C264.557 233.445 265.028 233.595 265.392 233.744C265.756 233.884 266.074 234.117 266.344 234.444C266.624 234.761 266.769 235.191 266.778 235.732C266.778 236.189 266.648 236.6 266.386 236.964C266.134 237.319 265.766 237.599 265.28 237.804C264.804 238.009 264.249 238.112 263.614 238.112ZM272.597 235.97V238H271.379C270.511 238 269.834 237.79 269.349 237.37C268.864 236.941 268.621 236.245 268.621 235.284V232.176H267.669V230.188H268.621V228.284H271.015V230.188H272.583V232.176H271.015V235.312C271.015 235.545 271.071 235.713 271.183 235.816C271.295 235.919 271.482 235.97 271.743 235.97H272.597ZM276.325 231.49C276.605 231.061 276.955 230.725 277.375 230.482C277.795 230.23 278.261 230.104 278.775 230.104V232.638H278.117C277.519 232.638 277.071 232.769 276.773 233.03C276.474 233.282 276.325 233.73 276.325 234.374V238H273.931V230.188H276.325V231.49ZM283.475 238.112C282.709 238.112 282.019 237.949 281.403 237.622C280.796 237.295 280.315 236.829 279.961 236.222C279.615 235.615 279.443 234.906 279.443 234.094C279.443 233.291 279.62 232.587 279.975 231.98C280.329 231.364 280.815 230.893 281.431 230.566C282.047 230.239 282.737 230.076 283.503 230.076C284.268 230.076 284.959 230.239 285.575 230.566C286.191 230.893 286.676 231.364 287.031 231.98C287.385 232.587 287.563 233.291 287.563 234.094C287.563 234.897 287.381 235.606 287.017 236.222C286.662 236.829 286.172 237.295 285.547 237.622C284.931 237.949 284.24 238.112 283.475 238.112ZM283.475 236.04C283.932 236.04 284.319 235.872 284.637 235.536C284.963 235.2 285.127 234.719 285.127 234.094C285.127 233.469 284.968 232.988 284.651 232.652C284.343 232.316 283.96 232.148 283.503 232.148C283.036 232.148 282.649 232.316 282.341 232.652C282.033 232.979 281.879 233.459 281.879 234.094C281.879 234.719 282.028 235.2 282.327 235.536C282.635 235.872 283.017 236.04 283.475 236.04ZM293.593 230.104C294.508 230.104 295.236 230.403 295.777 231C296.328 231.588 296.603 232.4 296.603 233.436V238H294.223V233.758C294.223 233.235 294.088 232.829 293.817 232.54C293.546 232.251 293.182 232.106 292.725 232.106C292.268 232.106 291.904 232.251 291.633 232.54C291.362 232.829 291.227 233.235 291.227 233.758V238H288.833V230.188H291.227V231.224C291.47 230.879 291.796 230.608 292.207 230.412C292.618 230.207 293.08 230.104 293.593 230.104ZM297.79 234.08C297.79 233.277 297.94 232.573 298.238 231.966C298.546 231.359 298.962 230.893 299.484 230.566C300.007 230.239 300.59 230.076 301.234 230.076C301.785 230.076 302.266 230.188 302.676 230.412C303.096 230.636 303.418 230.93 303.642 231.294V230.188H306.036V238H303.642V236.894C303.409 237.258 303.082 237.552 302.662 237.776C302.252 238 301.771 238.112 301.22 238.112C300.586 238.112 300.007 237.949 299.484 237.622C298.962 237.286 298.546 236.815 298.238 236.208C297.94 235.592 297.79 234.883 297.79 234.08ZM303.642 234.094C303.642 233.497 303.474 233.025 303.138 232.68C302.812 232.335 302.41 232.162 301.934 232.162C301.458 232.162 301.052 232.335 300.716 232.68C300.39 233.016 300.226 233.483 300.226 234.08C300.226 234.677 300.39 235.153 300.716 235.508C301.052 235.853 301.458 236.026 301.934 236.026C302.41 236.026 302.812 235.853 303.138 235.508C303.474 235.163 303.642 234.691 303.642 234.094ZM315.482 230.188V238H313.088V236.936C312.846 237.281 312.514 237.561 312.094 237.776C311.684 237.981 311.226 238.084 310.722 238.084C310.125 238.084 309.598 237.953 309.14 237.692C308.683 237.421 308.328 237.034 308.076 236.53C307.824 236.026 307.698 235.433 307.698 234.752V230.188H310.078V234.43C310.078 234.953 310.214 235.359 310.484 235.648C310.755 235.937 311.119 236.082 311.576 236.082C312.043 236.082 312.412 235.937 312.682 235.648C312.953 235.359 313.088 234.953 313.088 234.43V230.188H315.482ZM321.556 235.97V238H320.338C319.47 238 318.793 237.79 318.308 237.37C317.823 236.941 317.58 236.245 317.58 235.284V232.176H316.628V230.188H317.58V228.284H319.974V230.188H321.542V232.176H319.974V235.312C319.974 235.545 320.03 235.713 320.142 235.816C320.254 235.919 320.441 235.97 320.702 235.97H321.556ZM322.413 234.08C322.413 233.277 322.563 232.573 322.861 231.966C323.169 231.359 323.585 230.893 324.107 230.566C324.63 230.239 325.213 230.076 325.857 230.076C326.408 230.076 326.889 230.188 327.299 230.412C327.719 230.636 328.041 230.93 328.265 231.294V230.188H330.659V238H328.265V236.894C328.032 237.258 327.705 237.552 327.285 237.776C326.875 238 326.394 238.112 325.843 238.112C325.209 238.112 324.63 237.949 324.107 237.622C323.585 237.286 323.169 236.815 322.861 236.208C322.563 235.592 322.413 234.883 322.413 234.08ZM328.265 234.094C328.265 233.497 328.097 233.025 327.761 232.68C327.435 232.335 327.033 232.162 326.557 232.162C326.081 232.162 325.675 232.335 325.339 232.68C325.013 233.016 324.849 233.483 324.849 234.08C324.849 234.677 325.013 235.153 325.339 235.508C325.675 235.853 326.081 236.026 326.557 236.026C327.033 236.026 327.435 235.853 327.761 235.508C328.097 235.163 328.265 234.691 328.265 234.094ZM335.541 227.822L335.261 234.528H333.231L332.951 227.822H335.541ZM334.281 238.112C333.861 238.112 333.516 237.991 333.245 237.748C332.984 237.496 332.853 237.188 332.853 236.824C332.853 236.451 332.984 236.138 333.245 235.886C333.516 235.634 333.861 235.508 334.281 235.508C334.692 235.508 335.028 235.634 335.289 235.886C335.56 236.138 335.695 236.451 335.695 236.824C335.695 237.188 335.56 237.496 335.289 237.748C335.028 237.991 334.692 238.112 334.281 238.112Z" fill="black"/>
<path d="M231.796 259.091C231.198 259.091 230.669 258.987 230.21 258.779C229.759 258.571 229.404 258.281 229.144 257.908C228.884 257.535 228.745 257.119 228.728 256.66H229.69C229.733 257.102 229.928 257.492 230.275 257.83C230.622 258.159 231.129 258.324 231.796 258.324C232.411 258.324 232.897 258.168 233.252 257.856C233.616 257.535 233.798 257.132 233.798 256.647C233.798 256.257 233.698 255.945 233.499 255.711C233.3 255.468 233.053 255.291 232.758 255.178C232.463 255.057 232.056 254.927 231.536 254.788C230.929 254.623 230.448 254.463 230.093 254.307C229.738 254.151 229.434 253.908 229.183 253.579C228.932 253.25 228.806 252.803 228.806 252.24C228.806 251.772 228.927 251.356 229.17 250.992C229.413 250.619 229.755 250.329 230.197 250.121C230.639 249.913 231.146 249.809 231.718 249.809C232.559 249.809 233.235 250.017 233.746 250.433C234.266 250.84 234.565 251.369 234.643 252.019H233.655C233.594 251.646 233.391 251.317 233.044 251.031C232.697 250.736 232.229 250.589 231.64 250.589C231.094 250.589 230.639 250.736 230.275 251.031C229.911 251.317 229.729 251.711 229.729 252.214C229.729 252.595 229.829 252.903 230.028 253.137C230.227 253.371 230.474 253.549 230.769 253.67C231.072 253.791 231.48 253.921 231.991 254.06C232.58 254.225 233.057 254.389 233.421 254.554C233.785 254.71 234.093 254.953 234.344 255.282C234.595 255.611 234.721 256.053 234.721 256.608C234.721 257.033 234.608 257.436 234.383 257.817C234.158 258.198 233.824 258.506 233.382 258.74C232.94 258.974 232.411 259.091 231.796 259.091ZM242.901 255.087C242.901 255.399 242.893 255.637 242.875 255.802H236.986C237.012 256.339 237.142 256.799 237.376 257.18C237.61 257.561 237.918 257.852 238.299 258.051C238.681 258.242 239.097 258.337 239.547 258.337C240.137 258.337 240.631 258.194 241.029 257.908C241.437 257.622 241.705 257.236 241.835 256.751H242.797C242.624 257.444 242.251 258.012 241.679 258.454C241.116 258.887 240.405 259.104 239.547 259.104C238.88 259.104 238.282 258.957 237.753 258.662C237.225 258.359 236.809 257.934 236.505 257.388C236.211 256.833 236.063 256.188 236.063 255.451C236.063 254.714 236.211 254.069 236.505 253.514C236.8 252.959 237.212 252.535 237.74 252.24C238.269 251.945 238.871 251.798 239.547 251.798C240.223 251.798 240.813 251.945 241.315 252.24C241.827 252.535 242.217 252.933 242.485 253.436C242.763 253.93 242.901 254.48 242.901 255.087ZM241.978 255.061C241.987 254.532 241.879 254.082 241.653 253.709C241.437 253.336 241.138 253.055 240.756 252.864C240.375 252.673 239.959 252.578 239.508 252.578C238.832 252.578 238.256 252.795 237.779 253.228C237.303 253.661 237.038 254.272 236.986 255.061H241.978ZM245.086 250.563C244.904 250.563 244.748 250.498 244.618 250.368C244.488 250.238 244.423 250.078 244.423 249.887C244.423 249.696 244.488 249.54 244.618 249.419C244.748 249.289 244.904 249.224 245.086 249.224C245.268 249.224 245.42 249.289 245.541 249.419C245.671 249.54 245.736 249.696 245.736 249.887C245.736 250.078 245.671 250.238 245.541 250.368C245.42 250.498 245.268 250.563 245.086 250.563ZM245.528 260.677C245.528 261.249 245.385 261.669 245.099 261.938C244.813 262.215 244.384 262.354 243.812 262.354H243.175V261.574H243.669C244.007 261.574 244.25 261.5 244.397 261.353C244.545 261.214 244.618 260.976 244.618 260.638V251.902H245.528V260.677ZM247.197 255.438C247.197 254.71 247.34 254.073 247.626 253.527C247.921 252.972 248.324 252.548 248.835 252.253C249.355 251.95 249.94 251.798 250.59 251.798C251.266 251.798 251.847 251.954 252.332 252.266C252.826 252.578 253.182 252.977 253.398 253.462V251.902H254.308V259H253.398V257.427C253.173 257.912 252.813 258.315 252.319 258.636C251.834 258.948 251.253 259.104 250.577 259.104C249.936 259.104 249.355 258.952 248.835 258.649C248.324 258.346 247.921 257.917 247.626 257.362C247.34 256.807 247.197 256.166 247.197 255.438ZM253.398 255.451C253.398 254.879 253.281 254.376 253.047 253.943C252.813 253.51 252.493 253.176 252.085 252.942C251.687 252.708 251.245 252.591 250.759 252.591C250.257 252.591 249.806 252.704 249.407 252.929C249.009 253.154 248.692 253.484 248.458 253.917C248.233 254.342 248.12 254.849 248.12 255.438C248.12 256.019 248.233 256.53 248.458 256.972C248.692 257.405 249.009 257.739 249.407 257.973C249.806 258.198 250.257 258.311 250.759 258.311C251.245 258.311 251.687 258.194 252.085 257.96C252.493 257.726 252.813 257.392 253.047 256.959C253.281 256.526 253.398 256.023 253.398 255.451ZM260.85 253.475C261.084 252.981 261.444 252.578 261.929 252.266C262.423 251.954 263.004 251.798 263.671 251.798C264.321 251.798 264.902 251.95 265.413 252.253C265.924 252.548 266.323 252.972 266.609 253.527C266.904 254.073 267.051 254.71 267.051 255.438C267.051 256.166 266.904 256.807 266.609 257.362C266.323 257.917 265.92 258.346 265.4 258.649C264.889 258.952 264.312 259.104 263.671 259.104C262.995 259.104 262.41 258.952 261.916 258.649C261.431 258.337 261.075 257.934 260.85 257.44V259H259.953V249.38H260.85V253.475ZM266.128 255.438C266.128 254.849 266.011 254.342 265.777 253.917C265.552 253.484 265.24 253.154 264.841 252.929C264.442 252.704 263.992 252.591 263.489 252.591C263.004 252.591 262.557 252.708 262.15 252.942C261.751 253.176 261.435 253.51 261.201 253.943C260.967 254.376 260.85 254.879 260.85 255.451C260.85 256.023 260.967 256.526 261.201 256.959C261.435 257.392 261.751 257.726 262.15 257.96C262.557 258.194 263.004 258.311 263.489 258.311C263.992 258.311 264.442 258.198 264.841 257.973C265.24 257.739 265.552 257.405 265.777 256.972C266.011 256.53 266.128 256.019 266.128 255.438ZM275.148 255.087C275.148 255.399 275.139 255.637 275.122 255.802H269.233C269.259 256.339 269.389 256.799 269.623 257.18C269.857 257.561 270.164 257.852 270.546 258.051C270.927 258.242 271.343 258.337 271.794 258.337C272.383 258.337 272.877 258.194 273.276 257.908C273.683 257.622 273.952 257.236 274.082 256.751H275.044C274.87 257.444 274.498 258.012 273.926 258.454C273.362 258.887 272.652 259.104 271.794 259.104C271.126 259.104 270.528 258.957 270 258.662C269.471 258.359 269.055 257.934 268.752 257.388C268.457 256.833 268.31 256.188 268.31 255.451C268.31 254.714 268.457 254.069 268.752 253.514C269.046 252.959 269.458 252.535 269.987 252.24C270.515 251.945 271.118 251.798 271.794 251.798C272.47 251.798 273.059 251.945 273.562 252.24C274.073 252.535 274.463 252.933 274.732 253.436C275.009 253.93 275.148 254.48 275.148 255.087ZM274.225 255.061C274.233 254.532 274.125 254.082 273.9 253.709C273.683 253.336 273.384 253.055 273.003 252.864C272.621 252.673 272.205 252.578 271.755 252.578C271.079 252.578 270.502 252.795 270.026 253.228C269.549 253.661 269.285 254.272 269.233 255.061H274.225ZM285.262 251.772C286.094 251.772 286.77 252.036 287.29 252.565C287.819 253.085 288.083 253.843 288.083 254.84V259H287.186V254.944C287.186 254.173 287 253.583 286.627 253.176C286.255 252.769 285.748 252.565 285.106 252.565C284.439 252.565 283.906 252.786 283.507 253.228C283.109 253.67 282.909 254.311 282.909 255.152V259H282.012V254.944C282.012 254.173 281.826 253.583 281.453 253.176C281.081 252.769 280.569 252.565 279.919 252.565C279.252 252.565 278.719 252.786 278.32 253.228C277.922 253.67 277.722 254.311 277.722 255.152V259H276.812V251.902H277.722V253.124C277.948 252.682 278.268 252.348 278.684 252.123C279.1 251.889 279.564 251.772 280.075 251.772C280.691 251.772 281.228 251.919 281.687 252.214C282.155 252.509 282.493 252.942 282.701 253.514C282.892 252.951 283.217 252.522 283.676 252.227C284.144 251.924 284.673 251.772 285.262 251.772ZM296.194 258.116L298.586 251.902H299.548L296.701 259H295.674L292.827 251.902H293.802L296.194 258.116ZM301.236 250.563C301.054 250.563 300.898 250.498 300.768 250.368C300.638 250.238 300.573 250.078 300.573 249.887C300.573 249.696 300.638 249.54 300.768 249.419C300.898 249.289 301.054 249.224 301.236 249.224C301.418 249.224 301.574 249.289 301.704 249.419C301.834 249.54 301.899 249.696 301.899 249.887C301.899 250.078 301.834 250.238 301.704 250.368C301.574 250.498 301.418 250.563 301.236 250.563ZM301.691 251.902V259H300.781V251.902H301.691ZM307.08 251.772C307.929 251.772 308.623 252.036 309.16 252.565C309.697 253.085 309.966 253.843 309.966 254.84V259H309.069V254.944C309.069 254.173 308.874 253.583 308.484 253.176C308.103 252.769 307.578 252.565 306.911 252.565C306.226 252.565 305.68 252.782 305.273 253.215C304.866 253.648 304.662 254.285 304.662 255.126V259H303.752V251.902H304.662V253.111C304.887 252.678 305.212 252.348 305.637 252.123C306.062 251.889 306.543 251.772 307.08 251.772ZM311.562 255.438C311.562 254.71 311.71 254.073 312.004 253.527C312.299 252.972 312.702 252.548 313.213 252.253C313.733 251.95 314.318 251.798 314.968 251.798C315.592 251.798 316.156 251.95 316.658 252.253C317.161 252.556 317.529 252.951 317.763 253.436V249.38H318.673V259H317.763V257.414C317.547 257.908 317.191 258.315 316.697 258.636C316.203 258.948 315.623 259.104 314.955 259.104C314.305 259.104 313.72 258.952 313.2 258.649C312.689 258.346 312.286 257.917 311.991 257.362C311.705 256.807 311.562 256.166 311.562 255.438ZM317.763 255.451C317.763 254.879 317.646 254.376 317.412 253.943C317.178 253.51 316.858 253.176 316.45 252.942C316.052 252.708 315.61 252.591 315.124 252.591C314.622 252.591 314.171 252.704 313.772 252.929C313.374 253.154 313.057 253.484 312.823 253.917C312.598 254.342 312.485 254.849 312.485 255.438C312.485 256.019 312.598 256.53 312.823 256.972C313.057 257.405 313.374 257.739 313.772 257.973C314.171 258.198 314.622 258.311 315.124 258.311C315.61 258.311 316.052 258.194 316.45 257.96C316.858 257.726 317.178 257.392 317.412 256.959C317.646 256.526 317.763 256.023 317.763 255.451ZM323.858 259.104C323.191 259.104 322.588 258.957 322.051 258.662C321.522 258.359 321.102 257.934 320.79 257.388C320.487 256.833 320.335 256.188 320.335 255.451C320.335 254.714 320.491 254.073 320.803 253.527C321.115 252.972 321.54 252.548 322.077 252.253C322.614 251.95 323.217 251.798 323.884 251.798C324.551 251.798 325.154 251.95 325.691 252.253C326.237 252.548 326.662 252.972 326.965 253.527C327.277 254.073 327.433 254.714 327.433 255.451C327.433 256.179 327.277 256.82 326.965 257.375C326.653 257.93 326.224 258.359 325.678 258.662C325.132 258.957 324.525 259.104 323.858 259.104ZM323.858 258.311C324.326 258.311 324.759 258.207 325.158 257.999C325.557 257.782 325.877 257.462 326.12 257.037C326.371 256.604 326.497 256.075 326.497 255.451C326.497 254.827 326.376 254.303 326.133 253.878C325.89 253.445 325.57 253.124 325.171 252.916C324.772 252.699 324.339 252.591 323.871 252.591C323.403 252.591 322.97 252.699 322.571 252.916C322.172 253.124 321.852 253.445 321.609 253.878C321.375 254.303 321.258 254.827 321.258 255.451C321.258 256.075 321.375 256.604 321.609 257.037C321.852 257.462 322.168 257.782 322.558 257.999C322.957 258.207 323.39 258.311 323.858 258.311ZM330.314 249.913L330.197 256.595H329.43L329.326 249.913H330.314ZM329.859 259.065C329.668 259.065 329.508 259 329.378 258.87C329.256 258.74 329.196 258.58 329.196 258.389C329.196 258.198 329.256 258.042 329.378 257.921C329.508 257.791 329.668 257.726 329.859 257.726C330.041 257.726 330.192 257.791 330.314 257.921C330.444 258.042 330.509 258.198 330.509 258.389C330.509 258.58 330.444 258.74 330.314 258.87C330.192 259 330.041 259.065 329.859 259.065Z" fill="black"/>
<defs>
<filter id="filter0_f_169_310" x="444" y="-6" width="229" height="229" filterUnits="userSpaceOnUse" color-interpolation-filters="sRGB">
<feFlood flood-opacity="0" result="BackgroundImageFix"/>
<feBlend mode="normal" in="SourceGraphic" in2="BackgroundImageFix" result="shape"/>
<feGaussianBlur stdDeviation="2" result="effect1_foregroundBlur_169_310"/>
</filter>
<filter id="filter1_i_169_310" x="102" y="450" width="607" height="602" filterUnits="userSpaceOnUse" color-interpolation-filters="sRGB">
<feFlood flood-opacity="0" result="BackgroundImageFix"/>
<feBlend mode="normal" in="SourceGraphic" in2="BackgroundImageFix" result="shape"/>
<feColorMatrix in="SourceAlpha" type="matrix" values="0 0 0 0 0 0 0 0 0 0 0 0 0 0 0 0 0 0 127 0" result="hardAlpha"/>
<feOffset dx="-26" dy="21"/>
<feGaussianBlur stdDeviation="14"/>
<feComposite in2="hardAlpha" operator="arithmetic" k2="-1" k3="1"/>
<feColorMatrix type="matrix" values="0 0 0 0 0 0 0 0 0 0 0 0 0 0 0 0 0 0 0.33 0"/>
<feBlend mode="normal" in2="shape" result="effect1_innerShadow_169_310"/>
</filter>
<filter id="filter2_i_169_310" x="621.748" y="630.763" width="18.7706" height="31.7533" filterUnits="userSpaceOnUse" color-interpolation-filters="sRGB">
<feFlood flood-opacity="0" result="BackgroundImageFix"/>
<feBlend mode="normal" in="SourceGraphic" in2="BackgroundImageFix" result="shape"/>
<feColorMatrix in="SourceAlpha" type="matrix" values="0 0 0 0 0 0 0 0 0 0 0 0 0 0 0 0 0 0 127 0" result="hardAlpha"/>
<feOffset dy="4"/>
<feGaussianBlur stdDeviation="2"/>
<feComposite in2="hardAlpha" operator="arithmetic" k2="-1" k3="1"/>
<feColorMatrix type="matrix" values="0 0 0 0 0 0 0 0 0 0 0 0 0 0 0 0 0 0 0.25 0"/>
<feBlend mode="normal" in2="shape" result="effect1_innerShadow_169_310"/>
</filter>
<filter id="filter3_i_169_310" x="491.358" y="660.258" width="29.6494" height="31.6765" filterUnits="userSpaceOnUse" color-interpolation-filters="sRGB">
<feFlood flood-opacity="0" result="BackgroundImageFix"/>
<feBlend mode="normal" in="SourceGraphic" in2="BackgroundImageFix" result="shape"/>
<feColorMatrix in="SourceAlpha" type="matrix" values="0 0 0 0 0 0 0 0 0 0 0 0 0 0 0 0 0 0 127 0" result="hardAlpha"/>
<feOffset dy="4"/>
<feGaussianBlur stdDeviation="2"/>
<feComposite in2="hardAlpha" operator="arithmetic" k2="-1" k3="1"/>
<feColorMatrix type="matrix" values="0 0 0 0 0 0 0 0 0 0 0 0 0 0 0 0 0 0 0.25 0"/>
<feBlend mode="normal" in2="shape" result="effect1_innerShadow_169_310"/>
</filter>
<filter id="filter4_i_169_310" x="565.235" y="585.589" width="29.8966" height="47.0137" filterUnits="userSpaceOnUse" color-interpolation-filters="sRGB">
<feFlood flood-opacity="0" result="BackgroundImageFix"/>
<feBlend mode="normal" in="SourceGraphic" in2="BackgroundImageFix" result="shape"/>
<feColorMatrix in="SourceAlpha" type="matrix" values="0 0 0 0 0 0 0 0 0 0 0 0 0 0 0 0 0 0 127 0" result="hardAlpha"/>
<feOffset dy="4"/>
<feGaussianBlur stdDeviation="2"/>
<feComposite in2="hardAlpha" operator="arithmetic" k2="-1" k3="1"/>
<feColorMatrix type="matrix" values="0 0 0 0 0 0 0 0 0 0 0 0 0 0 0 0 0 0 0.25 0"/>
<feBlend mode="normal" in2="shape" result="effect1_innerShadow_169_310"/>
</filter>
<filter id="filter5_i_169_310" x="226.789" y="517.116" width="38.36" height="39.6774" filterUnits="userSpaceOnUse" color-interpolation-filters="sRGB">
<feFlood flood-opacity="0" result="BackgroundImageFix"/>
<feBlend mode="normal" in="SourceGraphic" in2="BackgroundImageFix" result="shape"/>
<feColorMatrix in="SourceAlpha" type="matrix" values="0 0 0 0 0 0 0 0 0 0 0 0 0 0 0 0 0 0 127 0" result="hardAlpha"/>
<feOffset dy="4"/>
<feGaussianBlur stdDeviation="2"/>
<feComposite in2="hardAlpha" operator="arithmetic" k2="-1" k3="1"/>
<feColorMatrix type="matrix" values="0 0 0 0 0 0 0 0 0 0 0 0 0 0 0 0 0 0 0.25 0"/>
<feBlend mode="normal" in2="shape" result="effect1_innerShadow_169_310"/>
</filter>
<filter id="filter6_i_169_310" x="235.634" y="587.319" width="34.6704" height="43.2721" filterUnits="userSpaceOnUse" color-interpolation-filters="sRGB">
<feFlood flood-opacity="0" result="BackgroundImageFix"/>
<feBlend mode="normal" in="SourceGraphic" in2="BackgroundImageFix" result="shape"/>
<feColorMatrix in="SourceAlpha" type="matrix" values="0 0 0 0 0 0 0 0 0 0 0 0 0 0 0 0 0 0 127 0" result="hardAlpha"/>
<feOffset dy="4"/>
<feGaussianBlur stdDeviation="2"/>
<feComposite in2="hardAlpha" operator="arithmetic" k2="-1" k3="1"/>
<feColorMatrix type="matrix" values="0 0 0 0 0 0 0 0 0 0 0 0 0 0 0 0 0 0 0.25 0"/>
<feBlend mode="normal" in2="shape" result="effect1_innerShadow_169_310"/>
</filter>
<filter id="filter7_i_169_310" x="343.267" y="613.766" width="38.4489" height="84.5021" filterUnits="userSpaceOnUse" color-interpolation-filters="sRGB">
<feFlood flood-opacity="0" result="BackgroundImageFix"/>
<feBlend mode="normal" in="SourceGraphic" in2="BackgroundImageFix" result="shape"/>
<feColorMatrix in="SourceAlpha" type="matrix" values="0 0 0 0 0 0 0 0 0 0 0 0 0 0 0 0 0 0 127 0" result="hardAlpha"/>
<feOffset dy="4"/>
<feGaussianBlur stdDeviation="2"/>
<feComposite in2="hardAlpha" operator="arithmetic" k2="-1" k3="1"/>
<feColorMatrix type="matrix" values="0 0 0 0 0 0 0 0 0 0 0 0 0 0 0 0 0 0 0.25 0"/>
<feBlend mode="normal" in2="shape" result="effect1_innerShadow_169_310"/>
</filter>
<filter id="filter8_i_169_310" x="580.782" y="662.262" width="13.4364" height="21.6685" filterUnits="userSpaceOnUse" color-interpolation-filters="sRGB">
<feFlood flood-opacity="0" result="BackgroundImageFix"/>
<feBlend mode="normal" in="SourceGraphic" in2="BackgroundImageFix" result="shape"/>
<feColorMatrix in="SourceAlpha" type="matrix" values="0 0 0 0 0 0 0 0 0 0 0 0 0 0 0 0 0 0 127 0" result="hardAlpha"/>
<feOffset dy="4"/>
<feGaussianBlur stdDeviation="2"/>
<feComposite in2="hardAlpha" operator="arithmetic" k2="-1" k3="1"/>
<feColorMatrix type="matrix" values="0 0 0 0 0 0 0 0 0 0 0 0 0 0 0 0 0 0 0.25 0"/>
<feBlend mode="normal" in2="shape" result="effect1_innerShadow_169_310"/>
</filter>
<filter id="filter9_i_169_310" x="669.44" y="653.152" width="7.11926" height="12.526" filterUnits="userSpaceOnUse" color-interpolation-filters="sRGB">
<feFlood flood-opacity="0" result="BackgroundImageFix"/>
<feBlend mode="normal" in="SourceGraphic" in2="BackgroundImageFix" result="shape"/>
<feColorMatrix in="SourceAlpha" type="matrix" values="0 0 0 0 0 0 0 0 0 0 0 0 0 0 0 0 0 0 127 0" result="hardAlpha"/>
<feOffset dy="4"/>
<feGaussianBlur stdDeviation="2"/>
<feComposite in2="hardAlpha" operator="arithmetic" k2="-1" k3="1"/>
<feColorMatrix type="matrix" values="0 0 0 0 0 0 0 0 0 0 0 0 0 0 0 0 0 0 0.25 0"/>
<feBlend mode="normal" in2="shape" result="effect1_innerShadow_169_310"/>
</filter>
<filter id="filter10_i_169_310" x="511.782" y="513.262" width="13.4363" height="21.6685" filterUnits="userSpaceOnUse" color-interpolation-filters="sRGB">
<feFlood flood-opacity="0" result="BackgroundImageFix"/>
<feBlend mode="normal" in="SourceGraphic" in2="BackgroundImageFix" result="shape"/>
<feColorMatrix in="SourceAlpha" type="matrix" values="0 0 0 0 0 0 0 0 0 0 0 0 0 0 0 0 0 0 127 0" result="hardAlpha"/>
<feOffset dy="4"/>
<feGaussianBlur stdDeviation="2"/>
<feComposite in2="hardAlpha" operator="arithmetic" k2="-1" k3="1"/>
<feColorMatrix type="matrix" values="0 0 0 0 0 0 0 0 0 0 0 0 0 0 0 0 0 0 0.25 0"/>
<feBlend mode="normal" in2="shape" result="effect1_innerShadow_169_310"/>
</filter>
<filter id="filter11_i_169_310" x="502.782" y="599.262" width="13.4363" height="21.6685" filterUnits="userSpaceOnUse" color-interpolation-filters="sRGB">
<feFlood flood-opacity="0" result="BackgroundImageFix"/>
<feBlend mode="normal" in="SourceGraphic" in2="BackgroundImageFix" result="shape"/>
<feColorMatrix in="SourceAlpha" type="matrix" values="0 0 0 0 0 0 0 0 0 0 0 0 0 0 0 0 0 0 127 0" result="hardAlpha"/>
<feOffset dy="4"/>
<feGaussianBlur stdDeviation="2"/>
<feComposite in2="hardAlpha" operator="arithmetic" k2="-1" k3="1"/>
<feColorMatrix type="matrix" values="0 0 0 0 0 0 0 0 0 0 0 0 0 0 0 0 0 0 0.25 0"/>
<feBlend mode="normal" in2="shape" result="effect1_innerShadow_169_310"/>
</filter>
<filter id="filter12_i_169_310" x="612.782" y="572.262" width="13.4364" height="21.6685" filterUnits="userSpaceOnUse" color-interpolation-filters="sRGB">
<feFlood flood-opacity="0" result="BackgroundImageFix"/>
<feBlend mode="normal" in="SourceGraphic" in2="BackgroundImageFix" result="shape"/>
<feColorMatrix in="SourceAlpha" type="matrix" values="0 0 0 0 0 0 0 0 0 0 0 0 0 0 0 0 0 0 127 0" result="hardAlpha"/>
<feOffset dy="4"/>
<feGaussianBlur stdDeviation="2"/>
<feComposite in2="hardAlpha" operator="arithmetic" k2="-1" k3="1"/>
<feColorMatrix type="matrix" values="0 0 0 0 0 0 0 0 0 0 0 0 0 0 0 0 0 0 0.25 0"/>
<feBlend mode="normal" in2="shape" result="effect1_innerShadow_169_310"/>
</filter>
<filter id="filter13_if_169_310" x="94" y="324" width="38" height="38" filterUnits="userSpaceOnUse" color-interpolation-filters="sRGB">
<feFlood flood-opacity="0" result="BackgroundImageFix"/>
<feBlend mode="normal" in="SourceGraphic" in2="BackgroundImageFix" result="shape"/>
<feColorMatrix in="SourceAlpha" type="matrix" values="0 0 0 0 0 0 0 0 0 0 0 0 0 0 0 0 0 0 127 0" result="hardAlpha"/>
<feOffset dx="-9" dy="4"/>
<feGaussianBlur stdDeviation="2"/>
<feComposite in2="hardAlpha" operator="arithmetic" k2="-1" k3="1"/>
<feColorMatrix type="matrix" values="0 0 0 0 0 0 0 0 0 0 0 0 0 0 0 0 0 0 0.25 0"/>
<feBlend mode="normal" in2="shape" result="effect1_innerShadow_169_310"/>
<feGaussianBlur stdDeviation="2" result="effect2_foregroundBlur_169_310"/>
</filter>
<filter id="filter14_if_169_310" x="-25" y="556" width="89" height="89" filterUnits="userSpaceOnUse" color-interpolation-filters="sRGB">
<feFlood flood-opacity="0" result="BackgroundImageFix"/>
<feBlend mode="normal" in="SourceGraphic" in2="BackgroundImageFix" result="shape"/>
<feColorMatrix in="SourceAlpha" type="matrix" values="0 0 0 0 0 0 0 0 0 0 0 0 0 0 0 0 0 0 127 0" result="hardAlpha"/>
<feOffset dx="-9" dy="4"/>
<feGaussianBlur stdDeviation="2"/>
<feComposite in2="hardAlpha" operator="arithmetic" k2="-1" k3="1"/>
<feColorMatrix type="matrix" values="0 0 0 0 0 0 0 0 0 0 0 0 0 0 0 0 0 0 0.25 0"/>
<feBlend mode="normal" in2="shape" result="effect1_innerShadow_169_310"/>
<feGaussianBlur stdDeviation="1.5" result="effect2_foregroundBlur_169_310"/>
</filter>
<filter id="filter15_d_169_310" x="340.751" y="282.547" width="151.607" height="209.304" filterUnits="userSpaceOnUse" color-interpolation-filters="sRGB">
<feFlood flood-opacity="0" result="BackgroundImageFix"/>
<feColorMatrix in="SourceAlpha" type="matrix" values="0 0 0 0 0 0 0 0 0 0 0 0 0 0 0 0 0 0 127 0" result="hardAlpha"/>
<feOffset dx="-2" dy="6"/>
<feGaussianBlur stdDeviation="2"/>
<feComposite in2="hardAlpha" operator="out"/>
<feColorMatrix type="matrix" values="0 0 0 0 0 0 0 0 0 0 0 0 0 0 0 0 0 0 0.56 0"/>
<feBlend mode="normal" in2="BackgroundImageFix" result="effect1_dropShadow_169_310"/>
<feBlend mode="normal" in="SourceGraphic" in2="effect1_dropShadow_169_310" result="shape"/>
</filter>
<linearGradient id="paint0_linear_169_310" x1="490" y1="219" x2="589" y2="108" gradientUnits="userSpaceOnUse">
<stop stop-color="#FF00C7"/>
<stop offset="0.735146" stop-color="#FF00C7" stop-opacity="0.352181"/>
<stop offset="1" stop-color="#FF00C7" stop-opacity="0"/>
</linearGradient>
</defs>
</svg>
