<?xml version="1.0" encoding="UTF-8" standalone="no"?>
<svg
   xmlns:dc="http://purl.org/dc/elements/1.1/"
   xmlns:cc="http://creativecommons.org/ns#"
   xmlns:rdf="http://www.w3.org/1999/02/22-rdf-syntax-ns#"
   xmlns:svg="http://www.w3.org/2000/svg"
   xmlns="http://www.w3.org/2000/svg"
   xmlns:sodipodi="http://sodipodi.sourceforge.net/DTD/sodipodi-0.dtd"
   xmlns:inkscape="http://www.inkscape.org/namespaces/inkscape"
   width="210mm"
   height="297mm"
   viewBox="0 0 210 297"
   version="1.1"
   id="svg8"
   inkscape:version="1.0.2-2 (e86c870879, 2021-01-15)"
   sodipodi:docname="foguete.svg">
  <defs
     id="defs2" />
  <sodipodi:namedview
     id="base"
     pagecolor="#ffffff"
     bordercolor="#666666"
     borderopacity="1.0"
     inkscape:pageopacity="0.0"
     inkscape:pageshadow="2"
     inkscape:zoom="0.35"
     inkscape:cx="400"
     inkscape:cy="560"
     inkscape:document-units="mm"
     inkscape:current-layer="layer1"
     inkscape:document-rotation="0"
     showgrid="false"
     inkscape:window-width="1512"
     inkscape:window-height="1041"
     inkscape:window-x="52"
     inkscape:window-y="0"
     inkscape:window-maximized="0" />
  <metadata
     id="metadata5">
    <rdf:RDF>
      <cc:Work
         rdf:about="">
        <dc:format>image/svg+xml</dc:format>
        <dc:type
           rdf:resource="http://purl.org/dc/dcmitype/StillImage" />
        <dc:title></dc:title>
      </cc:Work>
    </rdf:RDF>
  </metadata>
  <g
     inkscape:label="Layer 1"
     inkscape:groupmode="layer"
     id="layer1">
    <g
       id="g1189"
       transform="matrix(0.47050333,0,0,0.46266414,167.30338,80.346991)">
      <path
         style="fill:#3936eb;fill-opacity:1;stroke-width:2.26818"
         d="m -275.21855,241.24766 c -16.88586,-1.03479 -19.58961,-2.27008 -22.45726,-10.26071 -4.4867,-12.50197 -1.66969,-16.34846 11.97306,-16.34846 h 11.66682 v -81.67473 c 0,-92.033256 0.0792,-92.512973 15.9692,-96.571092 9.48653,-2.422756 61.57414,-3.166578 67.80366,-0.968248 2.05775,0.726147 3.74133,2.579028 3.74133,4.117511 0,4.629181 -5.99553,5.437778 -40.31945,5.437778 -30.17764,0 -33.03743,0.344777 -35.31453,4.257486 -1.63153,2.803471 -2.26578,31.588665 -1.85714,84.285595 l 0.62056,80.02816 7.68703,0.68157 c 7.01679,0.62215 7.6916,0.14766 7.73903,-5.43776 0.0646,-7.61033 7.22944,-22.28599 13.30076,-27.24377 6.8525,-5.59574 21.85199,-10.76905 29.17545,-10.06263 4.56638,0.44049 9.06262,-1.4522 15.17611,-6.38842 7.03222,-5.67803 10.71352,-7.01437 19.32284,-7.01437 7.99572,0 10.99813,-0.94479 12.09639,-3.80646 7.19419,-18.74559 37.60131,-20.3229 46.22918,-2.39808 2.53239,5.2612 4.36081,6.20454 12.02557,6.20454 9.54051,0 16.309987,2.43952 24.10221,8.68579 2.601775,2.08559 9.99938,4.41842 16.439112,5.18408 20.276173,2.41073 34.025845,14.73943 36.686586,32.89504 1.163273,7.93787 1.948755,8.7602 8.962075,9.38204 l 7.6870582,0.68161 v -82.35707 c 0,-61.155362 -0.730689,-83.029021 -2.838283,-84.967212 -1.9435192,-1.787267 -13.5247292,-2.610139 -36.7355562,-2.610139 -28.898789,0 -34.111578,-0.513484 -35.350366,-3.48219 -2.630608,-6.304191 4.697387,-7.600037 39.092202,-6.912874 33.8217332,0.67571 33.9630722,0.699775 39.6179382,6.745449 l 5.675053,6.067314 v 83.620532 83.62055 h 13.0088758 13.00888 v 8.45949 c 0,4.83176 -1.775055,10.45738 -4.139203,13.11834 -4.138974,4.65864 -4.146562,4.65889 -147.236682,5.13496 -78.70361,0.2619 -147.35496,0.21514 -152.55851,-0.10374 z M 18.804741,227.1454 c 0.750064,-3.58247 -5.877065,-3.80647 -112.618777,-3.80647 -91.994234,0 -113.913284,-0.55129 -116.050044,-2.91899 -1.44889,-1.60546 -1.934,-3.56307 -1.07804,-4.35025 0.85597,-0.78714 41.29247,-1.4312 89.85893,-1.4312 h 88.302567 l -0.0084,-7.0691 c -0.0196,-16.1508 -17.610084,-29.52374 -35.393818,-26.9086 -7.542694,1.10913 -9.151375,0.43208 -15.006625,-6.31623 -5.469176,-6.30397 -8.088144,-7.55854 -15.778282,-7.55854 -5.071312,0 -9.878392,0.97881 -10.682382,2.1751 -0.804,1.19631 -3.52774,2.17512 -6.05274,2.17512 -3.76821,0 -4.59087,-1.53698 -4.59087,-8.57711 0,-14.12948 -14.27071,-20.12581 -25.27399,-10.61976 -3.66595,3.16719 -5.47424,7.20265 -5.47424,12.21683 0,6.77926 -0.50333,7.33911 -5.32179,5.91938 -17.73907,-5.22671 -30.26114,-2.39179 -33.72146,7.63428 -1.35185,3.91695 -2.86251,4.34489 -11.41431,3.23332 -12.43753,-1.61663 -24.18786,3.57362 -31.79557,14.04444 -7.07528,9.73798 -6.26151,18.29455 1.83469,19.2913 3.25222,0.40036 6.96861,1.66464 8.2586,2.80946 4.89587,4.34484 -5.42261,6.18474 -34.86763,6.21727 -28.60461,0.0314 -30.15692,0.25794 -30.15692,4.3994 0,4.33216 1.18926,4.36173 153.11761,3.80641 143.6677382,-0.5251 153.166776,-0.79454 153.914517,-4.36606 z M -159.44594,119.86665 c 0.8715,-4.27206 2.04314,-8.92137 2.60366,-10.33179 0.56047,-1.41046 0.0831,-3.91601 -1.06086,-5.56789 -1.66992,-2.41138 -5.56927,-1.23219 -19.77964,5.98155 -9.73482,4.94175 -18.89913,8.98503 -20.36507,8.98503 -1.66975,0 -2.66539,-4.69847 -2.66539,-12.57777 0,-12.04869 0.54721,-13.18399 13.00885,-26.99043 l 13.00888,-14.412693 V 45.635166 c 0,-20.768928 4.07544,-38.8003722 12.08474,-53.4682762 6.86246,-12.5675248 23.29154,-32.0165728 27.0452,-32.0165728 5.12918,0 19.86881,17.569827 28.28342,33.7142478 9.288482,17.8209372 13.695494,37.7714842 12.614372,57.1047282 l -0.7723,13.810513 12.832905,14.341734 c 11.264202,12.58857 12.960939,15.76141 13.880201,25.9553 1.408291,15.617 -1.929184,16.38098 -23.180984,5.30644 -9.349384,-4.87208 -18.028414,-8.27314 -19.286764,-7.55795 -1.34572,0.76484 -1.63027,6.141 -0.69099,13.0545 l 1.59697,11.75417 h -25.37088 -25.37086 z m 37.44166,-5.38726 c -1.10103,-3.87192 -2.84699,-4.3695 -13.35659,-3.80645 -9.29373,0.49791 -12.27195,1.52808 -12.87689,4.45415 -0.67836,3.28148 1.16369,3.80646 13.35662,3.80646 13.08902,0 14.04904,-0.33209 12.87686,-4.45416 z m -48.80587,-18.80428 c 4.50071,-2.69736 4.7872,-3.8786 2.55971,-10.55302 -1.37953,-4.13363 -3.12793,-7.45328 -3.88536,-7.37703 -3.33103,0.33544 -19.11642,20.14682 -19.11642,23.99203 0,4.10014 0.2841,4.12292 7.68703,0.61643 4.22787,-2.00258 9.96765,-5.00786 12.75504,-6.67841 z m 93.089801,7.14041 c 0,-4.78699 -19.117293,-25.89954 -21.482426,-23.72454 -1.144765,1.05274 -2.692715,4.81985 -3.439925,8.37141 -1.24377,5.91173 -0.39815,6.95752 10.007952,12.37656 13.100765,6.82228 14.914399,7.18424 14.914399,2.97657 z m -40.124631,-8.352 c 12.06937,-17.97895 16.74497,-55.878159 9.66034,-78.304049 l -3.26395,-10.3317872 h -23.40362 c -23.33369,0 -23.4113,0.01785 -25.96423,5.9815592 -3.96389,9.259709 -5.31571,41.575535 -2.29745,54.921599 1.48804,6.579716 5.29592,17.101818 8.46199,23.382458 l 5.7565,11.41934 h 13.15243 c 12.28841,0 13.46422,-0.46441 17.89799,-7.06912 z m -31.01475,-42.791152 c -4.16795,-3.832919 -6.91378,-8.650552 -6.91378,-12.130437 0,-8.20816 11.79512,-18.488458 21.2128,-18.488458 10.3784,0 18.99641,8.387573 18.99641,18.488458 0,17.124755 -19.95776,24.395915 -33.29543,12.130437 z m 21.36114,-5.485376 c 6.63922,-7.356673 -2.54553,-20.075182 -10.96882,-15.189022 -7.7143,4.474887 -9.16882,9.031443 -4.42252,13.854421 5.15099,5.234236 11.38424,5.774727 15.39134,1.334601 z m 7.98873,-55.6184812 c -2.31716,-3.6072998 -6.52934,-9.2301568 -9.3604,-12.4952398 -4.90979,-5.662493 -5.355,-5.763732 -9.64514,-2.193327 -2.47373,2.058747 -6.90474,7.681606 -9.84662,12.495237 l -5.34892,8.7520508 h 19.20704 19.20701 z"
         id="path949" />
      <path
         style="opacity:1;fill:#ffffff;fill-opacity:1;stroke:none;stroke-width:12.6983;stroke-linecap:round;stroke-linejoin:round;stroke-miterlimit:4;stroke-dasharray:none;stroke-opacity:1"
         d="m -579.9045,346.0854 c -18.89167,-39.26546 -31.54339,-73.74384 -36.66841,-99.92854 -2.13787,-10.92279 -3.63,-32.00817 -4.23177,-59.79941 -1.77775,-82.10155 7.88979,-144.339647 24.29391,-156.400374 7.85682,-5.77653 33.33569,-7.497887 108.05789,-7.300409 l 66.70281,0.176285 8.31871,27.805796 c 9.87618,33.011694 11.79741,42.571296 14.72801,73.283282 3.80171,39.8407 -1.80258,104.96722 -12.63604,146.84151 -10.43933,40.35096 -28.32805,79.80197 -44.07822,97.20826 -11.85449,13.10099 -17.60125,14.31419 -67.05844,14.15687 l -40.14849,-0.12771 z m 106.40642,-134.1489 c 37.18063,-18.04443 48.88891,-67.05206 24.42614,-102.24114 -27.00589,-38.847316 -78.31519,-40.719969 -116.53416,-4.25319 -30.5809,29.17889 -31.01196,56.13909 -1.38479,86.61054 18.97476,19.5155 36.54258,26.63818 63.85479,25.88926 15.13229,-0.41494 20.25933,-1.45382 29.63802,-6.00547 z"
         id="path1167"
         transform="scale(0.26458333)" />
      <path
         style="opacity:1;fill:#ffffff;fill-opacity:1;stroke:none;stroke-width:12.6983;stroke-linecap:round;stroke-linejoin:round;stroke-miterlimit:4;stroke-dasharray:none;stroke-opacity:1"
         d="m -523.86141,179.86762 c -12.57473,-6.27426 -24.6575,-20.84406 -24.62934,-29.69885 0.031,-9.75417 6.2885,-18.87816 18.79725,-27.4082 13.97118,-9.5273 20.89902,-10.74084 32.29406,-5.65687 11.24881,5.01873 18.85699,14.82225 21.90642,28.22752 2.15325,9.46567 1.94626,11.10376 -2.5362,20.07101 -9.07295,18.15063 -27.06524,23.8293 -45.83219,14.46539 z"
         id="path1169"
         transform="scale(0.26458333)" />
      <path
         style="opacity:1;fill:#ffffff;fill-opacity:1;stroke:none;stroke-width:12.6983;stroke-linecap:round;stroke-linejoin:round;stroke-miterlimit:4;stroke-dasharray:none;stroke-opacity:1"
         d="m -573.07818,-21.590272 c 23.78905,-40.797564 54.03457,-77.10518 64.20436,-77.072831 5.91873,0.01883 20.69583,14.968175 39.06505,39.520413 11.62454,15.537312 30.93882,44.652254 30.93253,46.628644 -0.002,0.520933 -31.45447,0.847105 -69.89515,0.724827 l -69.89215,-0.222322 z"
         id="path1171"
         transform="scale(0.26458333)" />
      <path
         style="opacity:1;fill:#ffffff;fill-opacity:1;stroke:none;stroke-width:12.6983;stroke-linecap:round;stroke-linejoin:round;stroke-miterlimit:4;stroke-dasharray:none;stroke-opacity:1"
         d="m -547.4828,446.85586 c -3.92436,-0.78193 -8.23856,-2.10847 -9.58712,-2.94786 -3.93288,-2.44798 -2.80615,-10.32706 2.13646,-14.93997 6.27557,-5.85694 18.26964,-8.21723 49.02333,-9.6472 32.83618,-1.52679 39.81623,0.62066 43.60532,13.4154 2.98225,10.07026 1.51966,12.03205 -10.70102,14.35347 -10.37767,1.97133 -64.25876,1.80215 -74.47697,-0.23388 z"
         id="path1173"
         transform="scale(0.26458333)" />
      <path
         style="opacity:1;fill:#ffffff;fill-opacity:1;stroke:none;stroke-width:12.6983;stroke-linecap:round;stroke-linejoin:round;stroke-miterlimit:4;stroke-dasharray:none;stroke-opacity:1"
         d="m -720.97304,387.67369 c 0.0311,-9.77523 5.42056,-19.50292 26.1941,-47.2789 10.31872,-13.79701 35.82686,-40.91503 41.14071,-43.73721 4.72652,-2.51025 9.76064,5.48229 16.70667,26.52476 6.76568,20.49611 6.50081,24.52361 -2.10664,32.0327 -7.35041,6.41245 -73.8812,40.45005 -79.03272,40.43366 -2.06143,-0.007 -2.91996,-2.36579 -2.90212,-7.97501 z"
         id="path1175"
         transform="scale(0.26458333)" />
      <path
         style="opacity:1;fill:#ffffff;fill-opacity:1;stroke:none;stroke-width:12.6983;stroke-linecap:round;stroke-linejoin:round;stroke-miterlimit:4;stroke-dasharray:none;stroke-opacity:1"
         d="m -340.19293,380.87219 c -34.86768,-17.61905 -46.28794,-25.65557 -47.78551,-33.62704 -2.2788,-12.12985 9.26482,-47.4921 15.4968,-47.47228 9.55503,0.0304 54.7751,47.37347 70.76084,74.08294 8.8764,14.83096 8.8343,21.85742 -0.13606,22.7074 -4.41763,0.41858 -15.14344,-3.97151 -38.33607,-15.69102 z"
         id="path1177"
         transform="scale(0.26458333)" />
      <path
         style="opacity:1;fill:#ffffff;fill-opacity:1;stroke:none;stroke-width:12.6983;stroke-linecap:round;stroke-linejoin:round;stroke-miterlimit:4;stroke-dasharray:none;stroke-opacity:1"
         d="m -1064.3946,871.17317 c -19.623,-2.13975 -23.7799,-4.27525 -23.7547,-12.20331 0.037,-11.74165 4.5649,-12.36242 101.05987,-13.85616 107.22585,-1.65984 138.37716,-4.53088 146.55243,-13.50689 2.67642,-2.93856 2.8756,-4.50442 1.01793,-8.00222 -2.57836,-4.85476 -16.01307,-11.32048 -27.67397,-13.31865 -14.15938,-2.42629 -20.61342,-5.28997 -25.7385,-11.42027 -12.69504,-15.18497 -1.56478,-48.98521 25.02111,-75.98388 15.22075,-15.45704 31.50072,-25.95771 51.02098,-32.90879 12.03659,-4.28618 16.38884,-4.67125 51.53254,-4.55946 21.11208,0.0671 39.54563,-0.62284 40.96344,-1.53332 1.4178,-0.91048 5.1785,-7.26251 8.35712,-14.11562 8.81285,-19.00051 22.22629,-29.1426 44.61546,-33.73439 15.70331,-3.22059 45.35616,-0.95777 70.65356,5.3916 11.54476,2.89761 22.67377,4.74001 24.73113,4.09422 4.42101,-1.3877 5.29882,-4.86419 6.43594,-25.48906 1.06826,-19.37578 8.14255,-34.90351 20.4,-44.77705 41.95222,-33.79307 89.58747,-14.69137 93.28295,37.40642 2.2817,32.16648 3.54147,34.35662 19.79171,34.40831 8.36202,0.0266 12.52482,-1.21822 19.5724,-5.85281 16.35606,-10.756 55.67922,-13.28004 73.95003,-4.74663 4.2447,1.9825 16.8781,12.93804 28.0742,24.34564 24.68323,25.1495 28.06495,26.54172 56.11459,23.10169 40.09397,-4.91714 76.38723,7.45128 104.35958,35.56483 19.97261,20.07342 29.89528,45.38418 29.79787,76.0084 l -0.0431,13.53662 -95.46319,1.03384 c -52.50475,0.56863 -157.28427,0.85549 -232.84337,0.63744 -138.44982,-0.39959 -324.88369,1.84083 -338.92085,4.07277 -6.66249,1.05935 -7.58219,1.89029 -7.59801,6.86472 -0.0281,8.82206 5.64986,13.94277 18.13082,16.35154 23.39231,4.51459 131.47165,6.26481 454.54753,7.36082 373.095098,1.26579 395.975491,1.98412 395.942256,12.43212 -0.02577,8.10013 -21.776864,10.44348 -118.228963,12.73742 -181.486043,4.31631 -977.386993,4.8336 -1015.660793,0.66011 z"
         id="path1179"
         transform="scale(0.26458333)" />
    </g>
  </g>
</svg>
