<svg width="110" height="84" viewBox="0 0 110 84" fill="none" xmlns="http://www.w3.org/2000/svg">
<path d="M0.145712 83.2861C-0.157648 82.4956 0.34749 82.3474 3.34603 82.3474C6.36617 82.3474 6.77693 82.4783 6.46018 83.3396C6.27094 83.8542 0.344452 83.804 0.145712 83.2861V83.2861ZM7.601 83.4304C7.5189 83.2976 7.5244 82.9996 7.6132 82.7682C7.74269 82.4308 8.20566 82.3474 9.95093 82.3474H12.1272L12.0096 80.9287C11.8796 79.362 12.4653 77.7067 13.2337 77.4691C13.4743 77.3947 14.4153 77.313 15.3248 77.2875C16.2343 77.262 16.9785 77.1916 16.9785 77.1311C16.9785 77.0706 16.8567 76.7934 16.7078 76.5153C16.393 75.927 15.7988 72.0745 15.3888 67.9627C15.2062 66.1312 14.9624 64.9477 14.7173 64.7027C14.1419 64.1272 14.2131 62.0887 14.8237 61.6588C15.0938 61.4686 15.5605 60.8305 15.8608 60.2407C16.5858 58.8169 17.9135 57.5255 19.2936 56.9017L20.4181 56.3935L20.422 54.0908C20.424 52.8243 20.539 51.6095 20.677 51.3912C20.8462 51.1235 21.3649 50.9943 22.2701 50.9943C23.1753 50.9943 23.694 51.1235 23.8632 51.3912C24.0012 51.6095 24.1159 52.8192 24.1181 54.0796L24.1221 56.3711L25.3069 56.9446C26.5271 57.5353 28.8846 59.9026 28.8846 60.5372C28.8846 60.7339 29.2053 61.1921 29.5973 61.5556L30.3099 62.2164L31.6478 61.5001C32.3836 61.1062 34.0275 59.7615 35.3008 58.5118L37.6159 56.2398L37.6015 54.6754C37.5935 53.815 37.4423 51.3053 37.2653 49.0983C37.0883 46.8913 37.0355 44.7305 37.148 44.2965C37.3381 43.5627 38.7448 42.0631 39.4697 41.8215C39.7082 41.742 39.6889 41.4802 39.3918 40.7692C39.056 39.9657 38.6524 39.6563 36.7202 38.721C35.4684 38.1151 34.2563 37.3326 34.0266 36.9821C32.8688 35.215 32.8757 22.0484 34.0356 20.2784C34.2523 19.9477 35.3592 19.2225 36.4954 18.6669L38.5611 17.6568L39.7818 15.1433C48.443 -2.69107 73.0192 -5.15315 84.8624 10.627C86.3643 12.6281 88.6806 16.7585 88.6806 17.4354C88.6806 17.5715 89.1271 17.8374 89.6728 18.0264C91.2429 18.5701 93.4366 20.1214 93.7467 20.9074C94.1418 21.9085 94.3456 32.0313 94.0213 34.5437C93.85 35.8704 93.5794 36.8115 93.2678 37.1643C93.0004 37.467 91.8242 38.1666 90.6541 38.7189C88.8682 39.5619 88.4502 39.8833 88.0509 40.7207C87.6704 41.5186 87.6461 41.7412 87.9294 41.833C88.1243 41.8962 88.7484 42.41 89.3165 42.9748L90.3492 44.0017L90.1771 47.498C90.0824 49.421 89.9302 51.7723 89.839 52.7233L89.673 54.4523L90.7383 55.1572C93.7144 57.1267 95.5511 60.6848 95.5551 64.488C95.5591 67.8077 94.2709 70.0719 91.6051 71.4334C90.6791 71.9063 89.5302 72.2933 89.052 72.2933C88.5739 72.2933 88.1091 72.4123 88.0191 72.5578C87.9171 72.7229 88.4465 72.8224 89.4263 72.8224C90.5539 72.8224 91.0978 72.9438 91.3541 73.2527C91.753 73.7333 91.8231 75.4808 91.4882 76.5927L91.269 77.3203H95.2473H99.2255L99.7739 78.0175C100.207 78.5675 100.322 79.0943 100.322 80.5135C100.322 82.2791 100.336 82.3138 101.05 82.396C101.573 82.4562 101.777 82.6283 101.777 83.0089C101.777 83.5358 101.579 83.5383 54.7638 83.6049C26.6327 83.6449 7.69026 83.5748 7.60098 83.4304H7.601ZM78.2952 80.9647L98.9984 80.8922L98.999 79.9156C98.9992 79.3785 98.8924 78.8729 98.7616 78.7921C98.5872 78.6843 20.8789 78.5477 19.2275 78.6522C19.082 78.6612 19.8758 79.0083 20.9914 79.4231C22.2033 79.8736 24.1205 80.3084 25.7539 80.5032C28.7562 80.8612 46.9862 81.2718 53.4911 81.1279C55.7467 81.078 66.9086 81.0046 78.2953 80.9647H78.2952ZM35.8549 76.4604C35.5373 75.1941 35.6066 73.7277 36.0067 73.2455C36.2557 72.9456 36.8106 72.8224 37.913 72.8224C38.7683 72.8224 39.4681 72.7685 39.4681 72.7026C39.4681 72.5846 38.8934 71.1942 38.767 71.0063C38.7314 70.9533 38.309 71.1516 37.8284 71.4468C36.2597 72.4106 33.5985 73.1411 31.0216 73.3153L28.5282 73.4839L28.2175 74.9391C28.0466 75.7395 27.8164 76.6027 27.706 76.8573C27.5195 77.2875 27.8091 77.3203 31.7879 77.3203H36.0706L35.8549 76.4604ZM26.081 76.7547C26.8118 76.4217 27.3072 75.2986 27.2787 74.0397C27.2629 73.3417 27.2262 73.2982 27.0327 73.7485C26.9076 74.0395 26.7969 74.5866 26.7867 74.9642C26.7765 75.3419 26.5175 75.8776 26.2111 76.1549C25.7246 76.5952 25.2266 76.6589 22.2702 76.6589C17.9483 76.6589 17.9523 76.6619 17.5271 73.1416C17.3564 71.7291 17.1578 70.1865 17.0857 69.7136C17.0136 69.2406 17.066 68.8537 17.2022 68.8537C17.4819 68.8537 17.7439 70.1436 17.9007 72.2933C18.0249 73.9961 18.6313 75.5998 19.2392 75.833C19.9115 76.091 24.5439 76.0252 25.2748 75.7473C25.8366 75.5337 25.9589 75.273 26.1122 73.9614C26.211 73.1167 26.403 71.9038 26.5389 71.266C26.6749 70.6282 26.7518 70.0721 26.7099 70.0302C26.668 69.9883 25.9793 70.0342 25.1795 70.1314C23.7513 70.3057 23.7238 70.3253 23.6377 71.2326C23.536 72.3046 23.2501 72.5482 22.0874 72.5538C21.0579 72.5588 20.8604 72.2722 20.8234 70.7202C20.7959 69.5642 20.7601 69.5118 19.9449 69.4322C19.41 69.38 19.0952 69.2048 19.0952 68.9592C19.0952 68.6921 19.3229 68.5931 19.8171 68.6452C20.2142 68.6871 20.5505 68.6023 20.5645 68.4568C20.5785 68.3113 20.6852 67.6177 20.8016 66.9156C20.9184 66.2116 20.9095 65.5411 20.7818 65.4209C20.6545 65.3009 19.5546 65.1177 18.3377 65.0137L16.125 64.8246L16.3039 66.773C16.6413 70.4466 17.2629 74.9568 17.5279 75.6539C18.0022 76.9013 18.4476 77.0383 22.0593 77.0474C24.0266 77.0524 25.6942 76.9309 26.081 76.7547L26.081 76.7547ZM19.8393 75.0229C20.0303 74.9465 20.2585 74.9559 20.3464 75.0438C20.4343 75.1317 20.2781 75.1943 19.9992 75.1828C19.6909 75.1701 19.6282 75.1074 19.8393 75.0229V75.0229ZM89.9972 76.3422C90.3564 75.8855 90.53 75.338 90.4794 74.8209C90.4016 74.0252 90.3756 74.0119 88.7596 73.9346C87.3324 73.8664 86.9734 73.9525 86.0008 74.5961L84.8828 75.336H63.6775H42.4722L41.3541 74.5961C40.3816 73.9525 40.0225 73.8664 38.5953 73.9346C36.9793 74.0118 36.9534 74.0252 36.8755 74.8209C36.8249 75.338 36.9985 75.8855 37.3577 76.3422L37.919 77.0558H63.6775H89.4359L89.9972 76.3422ZM38.2411 75.8659C38.1497 75.6276 38.1971 75.3105 38.3465 75.1611C38.7778 74.7298 39.6004 75.0205 39.6004 75.6042C39.6004 76.2772 38.4816 76.4926 38.2411 75.8659V75.8659ZM87.6223 75.4683C87.6223 75.3227 87.8604 75.2037 88.1514 75.2037C88.4425 75.2037 88.7669 75.1947 88.8724 75.1839C88.9779 75.173 89.1069 75.292 89.159 75.4484C89.213 75.6103 88.9023 75.7329 88.4381 75.7329C87.9894 75.7329 87.6223 75.6138 87.6223 75.4683V75.4683ZM85.5056 73.3516L86.4316 72.6901L84.7118 72.5391C82.4175 72.3376 81.1988 71.7127 80.2212 70.2368C78.7892 68.0749 79.319 65.3895 81.5551 63.4755C82.6523 62.5364 86.0811 61.1808 87.3594 61.1808C87.9982 61.1808 87.9958 61.1973 88.6672 52.2325C89.2405 44.5772 89.2241 44.341 88.0543 43.3934C87.5291 42.968 85.8421 42.9359 63.7183 42.9304C40.3122 42.9244 39.9351 42.9324 39.1984 43.4573C38.7869 43.7503 38.3832 44.3159 38.3014 44.7141C38.2195 45.1122 38.6101 51.2981 39.1693 58.4603L40.1861 71.4825L40.9196 72.4442C42.269 74.2134 41.1701 74.1357 63.9421 74.0714L84.5796 74.0131L85.5056 73.3516ZM27.8015 70.2978C27.9453 69.2852 28.1403 67.6346 28.2348 66.6297L28.4066 64.8026L26.2509 64.9688C25.0652 65.0602 23.9822 65.2049 23.8441 65.2902C23.7061 65.3755 23.5931 66.3908 23.5931 67.5464C23.5931 70.0471 23.4642 69.9893 27.025 69.0848C27.3438 69.0038 27.3989 69.2965 27.3296 70.7058C27.2221 72.8925 27.4624 72.6847 27.8015 70.2978ZM29.8938 70.3089C29.9866 68.2383 29.7578 66.2078 29.4319 66.2078C29.314 66.2078 29.1344 67.3091 29.0327 68.6552C28.931 70.0013 28.7811 71.3808 28.6996 71.7208C28.5722 72.2521 28.6399 72.3265 29.1811 72.25C29.7664 72.1672 29.8167 72.0302 29.8938 70.3089ZM33.9904 71.6347C34.8223 71.418 36.2166 70.8805 37.0887 70.4402L38.6744 69.6398V68.4256C38.6744 66.9401 38.1783 59.7834 37.9941 58.6114L37.8605 57.7619L36.9117 58.8121C35.7352 60.1143 33.1309 62.0896 31.5026 62.9147C30.117 63.6169 29.813 64.2781 30.3661 65.3869C30.9523 66.5619 31.3367 69.11 31.1586 70.6396C30.9975 72.0229 30.9999 72.0287 31.7373 72.0287C32.1446 72.0287 33.1585 71.8514 33.9904 71.6347V71.6347ZM23.0639 71.0012C23.0639 70.4337 22.9115 70.1974 22.4686 70.0787C21.5233 69.8254 21.4765 69.8613 21.4765 70.838C21.4765 71.6906 21.5395 71.7641 22.2702 71.7641C22.9686 71.7641 23.0639 71.6725 23.0639 71.0012V71.0012ZM88.1975 70.5073C88.7118 69.2495 88.7782 66.6888 88.3245 65.6031C87.6922 64.0898 86.5764 62.7675 85.9372 62.7741C85.103 62.7831 83.0996 63.7559 82.2409 64.5698C81.219 65.5383 80.7431 66.525 80.7431 67.6752C80.7431 69.9845 82.5338 71.2344 85.8429 71.2347C87.8385 71.2349 87.9089 71.2132 88.1975 70.5073V70.5073ZM91.3533 70.2889C92.5098 69.7011 93.6707 68.1365 94.1347 66.5402C95.0231 63.4843 93.5819 59.0411 90.9953 56.8612C90.3038 56.2785 89.6921 55.8512 89.6358 55.9116C89.5795 55.972 89.4488 57.1129 89.3453 58.4469C89.1585 60.8539 89.1618 60.8731 89.7787 60.9604C90.1947 61.0193 90.4004 61.2236 90.4004 61.5776C90.4004 62.0212 90.1971 62.1198 89.1436 62.1874C88.4524 62.2318 87.8869 62.3169 87.8869 62.3767C87.8869 62.4364 88.234 63.0326 88.6582 63.7015C89.9601 65.7544 90.225 67.728 89.558 70.4043C89.4187 70.9631 89.4688 71.0083 90.0337 70.8338C90.3809 70.7265 90.9748 70.4813 91.3533 70.2889ZM23.0639 67.2662V65.1495H22.2702H21.4765V67.1118C21.4765 69.1049 21.5819 69.316 22.6009 69.3619C23.0051 69.3801 23.0639 69.1136 23.0639 67.2662V67.2662ZM20.8949 63.5358C20.9733 62.8605 20.9382 62.8451 18.9367 62.6759C15.4507 62.3812 15.391 62.3915 15.391 63.2836C15.391 64.035 15.4418 64.0673 16.7801 64.1664C17.5441 64.223 18.7645 64.259 19.4921 64.2464C20.7128 64.2252 20.8212 64.1703 20.8949 63.5359V63.5358ZM23.0639 63.562C23.0639 62.8565 22.9758 62.7683 22.2702 62.7683C21.5647 62.7683 21.4765 62.8565 21.4765 63.562C21.4765 64.2676 21.5647 64.3558 22.2702 64.3558C22.9758 64.3558 23.0639 64.2676 23.0639 63.562ZM25.8421 63.558C26.5697 63.4335 27.6412 63.1478 28.2233 62.923L29.2817 62.5142L27.5619 62.6261C26.616 62.6876 25.3361 62.7447 24.7176 62.753C23.6861 62.7669 23.5931 62.8252 23.5931 63.4579C23.5931 64.0077 23.6871 64.1108 24.0561 63.966C24.3108 63.8661 25.1145 63.6825 25.8421 63.558V63.558ZM20.9473 60.2805C20.9473 58.6271 20.9278 58.5798 20.1337 58.303C19.1312 57.9535 18.3233 58.4086 17.2043 59.9533C15.9392 61.6997 16.1279 61.8916 19.1614 61.9437L20.9473 61.9744V60.2805ZM23.0639 60.2546V58.5348H22.2702H21.4765V60.2546V61.9744H22.2702H23.0639V60.2546ZM27.9665 61.658C28.2531 61.3713 27.5732 60.1757 26.5169 59.1087C25.3154 57.8952 25.2411 57.8689 24.267 58.3127C23.646 58.5957 23.5931 58.754 23.5931 60.3311V62.0424L25.7101 61.9198C26.8745 61.8524 27.8899 61.7346 27.9665 61.658V61.658ZM23.0065 54.8968L23.0813 51.9202H22.2789H21.4764V54.9805V58.0408L22.204 57.9571L22.9317 57.8734L23.0065 54.8968ZM41.7179 41.3384C41.6285 41.1937 41.3148 40.9466 41.0208 40.7892C40.5349 40.5292 40.5131 40.5531 40.7803 41.0524C40.9419 41.3545 41.2556 41.6016 41.4774 41.6016C41.6991 41.6016 41.8074 41.4832 41.7179 41.3384ZM86.574 41.0536C86.8605 40.5183 86.8515 40.516 86.1864 40.9518C85.4078 41.4619 85.3448 41.6016 85.8932 41.6016C86.1063 41.6016 86.4127 41.355 86.574 41.0536V41.0536ZM38.3085 37.699C37.2531 34.1284 36.8059 26.366 37.4435 22.6839C37.6703 21.3742 37.9376 20.0243 38.0374 19.6842L38.219 19.0657L36.9253 19.7217C34.4691 20.9672 34.5733 20.5723 34.5733 28.637C34.5733 36.668 34.4859 36.3236 36.8223 37.5044C38.3059 38.2542 38.4794 38.2769 38.3085 37.699V37.699ZM90.4753 37.5217C92.7131 36.3734 92.6232 36.5546 92.9365 32.5633C93.206 29.1304 92.9535 22.3292 92.5141 21.1842C92.3582 20.7778 90.0554 19.3766 89.5434 19.3766C89.3981 19.3766 89.4657 19.9777 89.6998 20.7657C90.2856 22.7386 90.2678 32.446 89.6733 35.2516C89.442 36.343 89.1708 37.4443 89.0707 37.699C88.8325 38.3048 88.9873 38.2852 90.4754 37.5217H90.4753ZM42.0244 32.4799C42.3345 32.2627 42.6642 31.6465 42.7676 31.0909C42.8698 30.5416 43.4374 29.1397 44.0289 27.9755C44.9673 26.1287 45.6221 25.3501 49.1654 21.8681C51.399 19.6732 53.2264 17.7469 53.2264 17.5875C53.2264 17.4281 53.0295 17.1008 52.7888 16.8601C51.9022 15.9735 49.074 17.1134 45.4108 19.8337C42.0084 22.3603 40.8463 23.9716 40.2536 26.9839C39.8578 28.9957 40.0172 31.2669 40.6184 32.1845C41.1395 32.9797 41.2713 33.0074 42.0244 32.4799V32.4799ZM46.0026 15.5622C48.8994 13.6692 52.1689 12.0352 54.6119 11.2595C56.1424 10.7735 56.3304 10.5672 55.8845 9.86231C55.6753 9.53158 55.4195 9.5647 54.1026 10.0931C50.1397 11.683 46.0565 14.0979 42.6431 16.8705C39.8897 19.1069 39.2549 19.7338 39.0611 20.4074C38.9164 20.9105 39.3352 20.6581 41.0917 19.1833C42.3087 18.1615 44.5187 16.532 46.0026 15.5622ZM88.134 19.7049C87.8677 18.941 84.9104 16.4278 81.6691 14.2109C79.9195 13.0142 75.3235 10.6849 72.887 9.75996C71.8156 9.35329 71.7718 9.35738 71.606 9.87976C71.5116 10.1773 71.4979 10.4842 71.5756 10.5619C71.6533 10.6396 72.6465 11.0297 73.7826 11.4288C76.3906 12.345 79.5372 13.9414 81.976 15.5858C84.4253 17.2372 87.8868 19.9537 87.8868 20.2243C87.8868 20.3401 87.9997 20.4349 88.1377 20.4349C88.2948 20.4349 88.2934 20.1623 88.1337 19.7049H88.134ZM43.467 14.9724C46.5465 12.6278 49.9118 10.6937 53.1236 9.42253C55.8808 8.33128 55.6461 8.68534 56.1455 4.86297C56.3043 3.64719 56.3719 2.59016 56.2958 2.514C56.0251 2.24331 51.9777 4.06817 49.9087 5.39377C46.1017 7.83286 42.397 12.1134 40.6249 16.1204C40.0342 17.4561 40.0187 17.5711 40.4749 17.2363C40.7547 17.031 42.1011 16.0122 43.467 14.9724ZM86.2992 15.0885C84.4607 11.526 81.0567 7.71992 77.7486 5.52787C76.1043 4.43826 72.8784 2.869 71.6479 2.56018C70.9304 2.38011 70.9028 2.40667 71.0491 3.13493C71.1335 3.55488 71.3348 4.91031 71.4965 6.14699C71.6582 7.38368 71.8105 8.39672 71.835 8.3982C72.3176 8.4274 76.1097 9.92796 77.6842 10.7128C79.977 11.8557 84.2258 14.6111 85.9025 16.0425C86.4846 16.5395 87.0053 16.9027 87.0597 16.8498C87.1141 16.7969 86.7719 16.0042 86.2992 15.0885ZM61.5789 9.80458C63.9906 9.54547 65.0051 9.55779 67.3286 9.87448C69.7003 10.1977 70.1719 10.2016 70.288 9.89918C70.5175 9.30095 70.2642 9.1621 68.2534 8.78394C65.1477 8.19987 59.7175 8.40067 57.2819 9.18966C57.1057 9.24676 57.036 9.53606 57.1205 9.85925C57.2398 10.3155 57.4063 10.3977 57.9599 10.2738C58.3396 10.1888 59.9682 9.97771 61.5789 9.80467V9.80458ZM59.1367 7.60259C61.7794 7.0969 65.5677 7.09541 68.1998 7.59859C69.3303 7.81488 70.3085 7.93854 70.3736 7.8734C70.4387 7.8082 70.328 6.47043 70.1275 4.90046L69.7629 2.04596L68.3077 1.74075C66.409 1.34252 61.5233 1.30643 59.4068 1.67505C57.5288 2.00208 57.7217 1.67005 57.1961 5.48558C56.9312 7.40945 56.8844 7.99915 56.9967 7.99908C57.0331 7.99905 57.9961 7.82046 59.1367 7.6022V7.60259ZM103.027 83.3591C102.8 83.1319 102.795 82.9535 103.007 82.6977C103.215 82.4468 104.095 82.3486 106.109 82.3515C109.056 82.3555 109.767 82.5437 109.497 83.2468C109.361 83.6007 108.842 83.6703 106.337 83.6703C104.391 83.6703 103.229 83.5611 103.027 83.3591H103.027ZM16.1046 26.1199C12.2278 25.1416 9.30559 21.9022 9.30559 18.5828C9.30559 16.0645 11.3565 13.0676 13.905 11.862C22.2327 7.92237 31.2092 15.5305 26.5699 22.5961C25.8764 23.6523 25.9682 24.1395 27.0935 25.3763C28.1504 26.5379 27.2149 26.7898 24.4339 26.0924C23.0749 25.7515 22.5261 25.7247 21.7387 25.9606C20.0506 26.4664 17.7368 26.5318 16.1046 26.1199V26.1199ZM21.9162 24.7979C22.612 24.5086 22.9239 24.511 23.7683 24.8121C25.3613 25.3801 25.4965 25.3231 25.0042 24.2907C24.5796 23.4001 24.5851 23.3684 25.3132 22.5048C26.3541 21.2703 26.7681 20.1428 26.7681 18.5426C26.7681 13.3186 19.8898 10.1359 14.3724 12.8068C12.1102 13.9019 10.3639 16.4182 10.3639 18.5828C10.3639 20.7351 12.151 23.2835 14.436 24.3897C16.6506 25.4617 19.8939 25.6387 21.9162 24.7979V24.7979ZM17.5077 21.3866C17.5077 20.8828 19.3482 15.5978 19.6232 15.3118C19.744 15.1863 19.9664 15.1599 20.1175 15.2533C20.4841 15.4799 18.285 21.7579 17.839 21.7579C17.6568 21.7579 17.5077 21.5908 17.5077 21.3866V21.3866ZM14.8754 19.5641C14.228 19.2427 13.652 18.8292 13.5953 18.6452C13.4867 18.2925 14.8502 17.6194 16.2343 17.3426C17.4951 17.0905 17.0501 17.8093 15.6581 18.2733L14.503 18.6584L15.6527 19.0836C16.8489 19.526 17.3855 20.1785 16.5375 20.1594C16.2707 20.1534 15.5228 19.8855 14.8754 19.5641V19.5641ZM20.6827 19.9236C20.6827 19.7563 21.1887 19.3992 21.8071 19.1299C22.5649 18.8 22.8022 18.5904 22.5348 18.4871C22.3165 18.4028 21.8105 18.2143 21.4103 18.0681C20.6466 17.789 20.4157 17.2599 21.0576 17.2599C21.8426 17.2599 23.8577 18.3101 23.8577 18.7192C23.8577 19.1301 22.8171 19.692 21.3956 20.0488C20.9311 20.1653 20.6827 20.1218 20.6827 19.9236Z" fill="#3936EB"/>
<path d="M46.3818 73.8696C44.4071 73.8019 42.5631 73.6512 42.284 73.5348C42.0049 73.4183 41.4442 72.8998 41.038 72.3825C40.1785 71.288 40.3425 72.4817 39.4371 60.7296C38.5695 49.4681 38.3289 45.0598 38.5488 44.4488C38.6483 44.1722 38.9703 43.7679 39.2645 43.5503C39.787 43.1638 40.03 43.1527 49.8494 43.0636C62.7438 42.9466 83.5451 43.0141 85.9478 43.1806C87.7628 43.3064 87.819 43.3244 88.3832 43.9601L88.9606 44.6108L88.8339 47.7413C88.6562 52.1317 87.9494 60.3617 87.7124 60.8012C87.5862 61.0352 87.3159 61.1673 86.9655 61.1662C86.3391 61.1641 84.087 61.9292 82.7448 62.5999C81.5163 63.2138 80.3949 64.3725 79.8163 65.6255C79.4105 66.5045 79.3493 66.8607 79.4217 67.9215C79.5211 69.3755 79.8627 70.1381 80.8684 71.1503C81.7095 71.9968 82.8663 72.4352 84.8024 72.6411L86.1685 72.7864L85.2684 73.3883L84.3682 73.9901L67.1702 73.9914C57.7113 73.9922 48.3565 73.9373 46.3818 73.8696V73.8696Z" fill="white" stroke="white" stroke-width="0.280704" stroke-linecap="round" stroke-linejoin="round"/>
<path d="M40.4233 16.8701C40.4247 16.5002 42.3842 13.0939 43.3343 11.8101C44.781 9.85555 47.531 7.16907 49.3738 5.91033C50.8412 4.90793 54.6913 2.96298 55.6352 2.74721C56.1416 2.63146 56.1552 2.64999 56.1513 3.452C56.1492 3.90502 56.0248 5.07429 55.875 6.05037C55.6606 7.44782 55.5087 7.91429 55.1606 8.2449C54.9174 8.47582 53.721 9.08496 52.5019 9.59855C49.4168 10.8983 46.5912 12.55 43.3643 14.9401C40.6667 16.9381 40.4226 17.0983 40.4233 16.8701V16.8701Z" fill="white" stroke="white" stroke-width="0.280704" stroke-linecap="round" stroke-linejoin="round"/>
<path d="M57.0847 7.43212C57.0881 6.38765 57.7062 2.73664 57.9396 2.38301C58.3225 1.80274 58.8171 1.72315 62.7042 1.61635C65.9008 1.52851 68.9512 1.75071 69.5166 2.11257C69.7142 2.23902 70.4202 7.5851 70.2603 7.74396C70.2147 7.78927 69.3481 7.69014 68.3344 7.52368C65.9621 7.1341 61.4798 7.11672 59.3524 7.48886C57.2736 7.85251 57.0834 7.84775 57.0847 7.43212V7.43212Z" fill="white" stroke="white" stroke-width="0.280704" stroke-linecap="round" stroke-linejoin="round"/>
<path d="M85.9606 16.0251C83.4597 14.0269 79.8443 11.7099 77.3833 10.528C76.1372 9.92963 73.1083 8.69843 72.3344 8.47574C72.1008 8.4085 71.8979 8.3458 71.8835 8.3364C71.8691 8.327 71.6949 7.19662 71.4964 5.82446C71.2979 4.4523 71.1065 3.1488 71.071 2.92781C71.013 2.56632 71.0256 2.52607 71.1969 2.52662C71.8097 2.52847 75.2011 4.04761 76.9656 5.11045C80.0201 6.95043 83.3336 10.3074 85.4316 13.6877C86.0171 14.6311 86.9771 16.5438 86.9322 16.6773C86.9141 16.731 86.4769 16.4376 85.9606 16.0251Z" fill="white" stroke="white" stroke-width="0.140352" stroke-linecap="round" stroke-linejoin="round"/>
<path d="M88.0335 20.389C87.9902 20.3662 87.9229 20.2799 87.8838 20.1973C87.6359 19.6728 83.2524 16.3265 80.9305 14.8892C79.8057 14.1929 78.4501 13.4518 77.2015 12.8505C75.9408 12.2434 74.9295 11.8225 73.4252 11.2791C72.5221 10.9529 71.7473 10.6467 71.6317 10.5705C71.5669 10.5278 71.5568 10.4921 71.5574 10.3082C71.5582 10.0479 71.6692 9.67513 71.778 9.567C71.8878 9.45796 72.0065 9.46595 72.4253 9.61056C74.4422 10.3069 79.0262 12.5632 81.1827 13.9209C82.4724 14.733 84.771 16.4571 86.2001 17.6845C86.8088 18.2073 87.8166 19.2174 87.9814 19.47C88.1763 19.7685 88.2935 20.2881 88.1892 20.3917C88.1398 20.4409 88.1316 20.4407 88.0335 20.389V20.389Z" fill="white" stroke="white" stroke-width="0.0496218" stroke-linecap="round" stroke-linejoin="round"/>
<path d="M57.4089 10.2783C57.2617 10.2175 57.155 10.0094 57.1085 9.69223C57.0782 9.48509 57.1621 9.26101 57.2885 9.21173C57.7398 9.03576 58.8795 8.81114 59.9698 8.6833C62.5822 8.37695 65.67 8.39408 67.7873 8.72666C69.0966 8.93232 69.9822 9.16341 70.2055 9.35766C70.3147 9.45271 70.3318 9.48657 70.3298 9.60489C70.3265 9.79524 70.245 9.97021 70.1327 10.0278C69.8843 10.1552 69.5259 10.1348 67.4495 9.87464C66.7056 9.78144 65.9016 9.68616 65.6628 9.66291C65.11 9.60909 63.5993 9.6048 62.9901 9.65532C61.4586 9.78234 58.5794 10.1277 57.9162 10.264C57.6644 10.3157 57.51 10.3201 57.4089 10.2783V10.2783Z" fill="white" stroke="white" stroke-width="0.0496218" stroke-linecap="round" stroke-linejoin="round"/>
<path d="M39.0623 20.5891C39.0341 20.5148 39.1053 20.2912 39.2265 20.0735C39.5202 19.5462 40.1623 18.9352 42.0848 17.3536C44.6102 15.2761 46.9775 13.6733 49.7354 12.1739C51.8691 11.0139 54.9613 9.6694 55.4956 9.66943C55.6796 9.66945 55.8046 9.75818 55.9333 9.97998C56.1426 10.3405 56.1169 10.548 55.8396 10.7375C55.6176 10.8891 55.4199 10.9695 54.5278 11.2704C53.5458 11.6016 52.8409 11.8779 51.8899 12.3046C48.2466 13.9389 44.6222 16.2552 40.8255 19.3757C39.7292 20.2767 39.4369 20.4958 39.2001 20.5939C39.0947 20.6375 39.0806 20.6371 39.0623 20.5891V20.5891Z" fill="white" stroke="white" stroke-width="0.0496218" stroke-linecap="round" stroke-linejoin="round"/>
<path d="M41.1008 32.7426C40.9857 32.6663 40.9408 32.6124 40.7088 32.2726C40.419 31.8482 40.2577 31.3623 40.1315 30.5335C40.0487 29.9894 40.055 28.4003 40.1426 27.7773C40.4404 25.6575 41.0467 24.1426 42.1392 22.7891C43.5437 21.0491 47.4702 18.1731 49.853 17.1392C51.4135 16.4621 52.3685 16.4074 52.8598 16.9672C53.0357 17.1675 53.1922 17.4377 53.1922 17.541C53.1923 17.6452 53.1142 17.7498 52.653 18.2627C52.0183 18.9686 51.5219 19.4764 49.0881 21.9095C46.1406 24.8559 45.5145 25.537 44.8621 26.5063C44.0949 27.646 43.1294 29.7025 42.8105 30.8762C42.5112 31.9779 42.2573 32.3749 41.6496 32.6917C41.3935 32.8253 41.2459 32.839 41.1008 32.7426H41.1008Z" fill="white" stroke="white" stroke-width="0.0496218" stroke-linecap="round" stroke-linejoin="round"/>
<path d="M37.8959 37.9913C37.5764 37.8672 36.2438 37.2044 35.879 36.988C34.9432 36.4333 34.7333 35.8826 34.6276 33.7062C34.5727 32.5759 34.5993 23.5608 34.6595 22.8819C34.7894 21.4173 35.0264 20.8577 35.7122 20.3951C35.8851 20.2785 38.1569 19.0967 38.176 19.1135C38.1792 19.1163 38.1365 19.2761 38.0812 19.4687C37.9589 19.8943 37.6624 21.3391 37.4782 22.4065C37.2228 23.8863 37.1524 24.8745 37.1473 27.0493C37.1379 31.0831 37.5449 34.9199 38.2724 37.6564C38.3159 37.8198 38.344 37.9815 38.3349 38.0157C38.3119 38.1024 38.1603 38.0939 37.8959 37.9913V37.9913Z" fill="white" stroke="white" stroke-width="0.0496218" stroke-linecap="round" stroke-linejoin="round"/>
<path d="M89.0553 37.9181C89.2164 37.5096 89.7759 35.0346 89.8643 34.3397C90.0761 32.6735 90.197 29.3023 90.1483 26.417C90.0936 23.1725 89.9983 21.8894 89.7248 20.7148C89.5124 19.8028 89.4952 19.4691 89.6609 19.471C89.9946 19.4746 91.7598 20.502 92.2511 20.9786C92.5444 21.263 92.6355 21.6901 92.7905 23.5087C93.1417 27.6277 92.9971 33.9617 92.5114 35.7428C92.3422 36.363 91.9504 36.6945 90.5357 37.4144C89.1461 38.1215 88.9486 38.1887 89.0553 37.9181V37.9181Z" fill="white" stroke="white" stroke-width="0.140352" stroke-linecap="round" stroke-linejoin="round"/>
<path d="M85.7379 41.5837C85.5081 41.564 85.4909 41.5096 85.6636 41.3482C85.8441 41.1796 86.6362 40.6526 86.7094 40.6523C86.7584 40.6522 86.7435 40.7051 86.6361 40.9129C86.4675 41.2392 86.3013 41.4267 86.0927 41.5265C85.953 41.5933 85.9172 41.5991 85.7379 41.5837V41.5837Z" fill="white" stroke="white" stroke-width="0.0248109" stroke-linecap="round" stroke-linejoin="round"/>
<path d="M41.2674 41.5279C41.0938 41.4428 40.8696 41.1948 40.743 40.9476C40.6173 40.7025 40.6017 40.62 40.6856 40.6455C40.7148 40.6544 40.8411 40.7152 40.9662 40.7806C41.3662 40.9896 41.7406 41.3091 41.7402 41.4412C41.7396 41.5746 41.4654 41.6249 41.2674 41.5279Z" fill="white" stroke="white" stroke-width="0.035088" stroke-linecap="round" stroke-linejoin="round"/>
<path d="M17.1581 25.1442C15.1205 24.7648 13.7317 24.0799 12.5095 22.8517C10.9933 21.3281 10.2197 19.3826 10.5122 17.8284C10.8883 15.8299 12.5415 13.794 14.557 12.8474C17.6058 11.4154 21.0582 11.6536 23.7933 13.4847C24.9288 14.2448 25.542 14.953 26.1276 16.1803C26.5065 16.9745 26.6025 17.3537 26.6568 18.2709C26.7489 19.8281 26.3995 20.9407 25.4066 22.2516C25.0017 22.7863 24.6714 23.3443 24.6725 23.4916C24.6736 23.639 24.7944 24.0259 24.9408 24.3513C25.0872 24.6768 25.1601 24.9872 25.1027 25.0411C25.0453 25.095 24.5025 24.9827 23.8964 24.7916L22.7943 24.4442L21.6245 24.808C20.3448 25.2059 18.3116 25.359 17.1581 25.1442V25.1442ZM18.4611 20.833C19.0987 19.4639 20.0261 16.6568 20.1151 15.827C20.1846 15.179 20.1688 15.1255 19.9078 15.1247C19.5255 15.1234 19.3766 15.4426 18.3411 18.4817C17.4921 20.9734 17.3582 21.5186 17.5481 21.7098C17.795 21.9582 18.0522 21.7111 18.4611 20.833ZM16.9963 20.0604C17.1355 19.8368 16.4349 19.3027 15.5777 18.979L14.7641 18.6717L15.635 18.353C16.4804 18.0436 17.0712 17.6445 17.0721 17.3822C17.0729 17.1637 16.1692 17.2372 15.2967 17.5267C14.2092 17.8874 13.5947 18.2703 13.5937 18.5879C13.5915 19.2401 16.676 20.5749 16.9963 20.0604V20.0604ZM22.1182 19.8929C23.2202 19.524 23.882 19.0939 23.8831 18.7457C23.8849 18.1868 21.8166 17.1684 20.8477 17.2511C20.7558 17.2589 20.6802 17.389 20.6797 17.5401C20.6789 17.8077 20.7717 17.863 22.2727 18.4896C22.5829 18.6191 22.5538 18.6497 21.6693 19.1241C21.0163 19.4742 20.7268 19.7092 20.6962 19.9139C20.6386 20.2984 20.9191 20.2943 22.1182 19.8929V19.8929Z" fill="white" stroke="white" stroke-width="0.198487" stroke-linecap="round" stroke-linejoin="round"/>
<path d="M19.5662 76.9515C17.9661 76.7917 17.6237 76.4029 17.2746 74.349C16.9802 72.6169 16.597 69.5537 16.355 66.9991C16.2663 66.0633 16.1821 65.1945 16.1677 65.0683L16.1416 64.8389L16.4155 64.8688C16.5661 64.8852 17.2101 64.9433 17.8465 64.9979C19.1729 65.1116 20.2016 65.254 20.5525 65.3724C20.7764 65.448 20.7981 65.4687 20.8354 65.6434C20.9042 65.9658 20.8148 66.8132 20.5498 68.3509C20.5106 68.5783 20.2879 68.6618 19.8192 68.625C19.3808 68.5905 19.1546 68.6563 19.0906 68.8368C18.978 69.1545 19.2771 69.359 20.0069 69.4634C20.5078 69.5351 20.6368 69.5997 20.7205 69.8209C20.7444 69.884 20.7819 70.2987 20.8038 70.7425C20.8629 71.9373 20.9508 72.2281 21.319 72.446C21.4633 72.5314 21.5634 72.5438 22.1217 72.5456C23.2836 72.5493 23.509 72.3556 23.6612 71.2224C23.7409 70.6292 23.7984 70.4914 24.0113 70.3821C24.2332 70.2682 25.9582 70.0303 26.5477 70.0322L26.7161 70.0327L26.685 70.2806C26.6679 70.417 26.6027 70.7942 26.5401 71.1188C26.3742 71.9791 26.2479 72.7688 26.1095 73.8105C25.972 74.8459 25.89 75.1814 25.72 75.4043C25.4092 75.8118 24.7666 75.913 22.2289 75.9542C20.6438 75.9799 19.5497 75.9248 19.2658 75.8048C18.6072 75.5266 18.0751 74.0347 17.8963 71.965C17.8052 70.9113 17.6716 69.9476 17.5483 69.4558C17.4052 68.8851 17.1913 68.6601 17.0833 68.9668C17.0065 69.1849 17.0153 69.386 17.1429 70.3227C17.2056 70.7831 17.3509 71.9107 17.4657 72.8285C17.5805 73.7464 17.7076 74.661 17.7481 74.8611C17.9862 76.0378 18.3169 76.3849 19.392 76.5864C19.8591 76.674 24.5093 76.6881 25.1016 76.6038C25.6693 76.5229 25.9852 76.3974 26.2398 76.1515C26.5696 75.833 26.7328 75.4636 26.8162 74.8461C26.8967 74.2506 26.9501 74.03 27.0944 73.6956L27.1962 73.4597L27.2291 73.6488C27.3411 74.2913 27.1776 75.266 26.8497 75.9099C26.7028 76.1984 26.3474 76.5798 26.1167 76.6965C25.884 76.8143 25.2358 76.9101 24.2809 76.9677C23.3915 77.0214 20.1545 77.0103 19.5662 76.9515L19.5662 76.9515ZM20.3241 75.1587C20.4788 75.0766 20.3465 74.9731 20.0855 74.9723C19.8284 74.9715 19.634 75.0797 19.751 75.1586C19.8448 75.2218 20.2051 75.2219 20.3241 75.1587V75.1587Z" fill="white" stroke="white" stroke-width="0.070176" stroke-linecap="round" stroke-linejoin="round"/>
<path d="M17.9509 61.8766C16.853 61.8035 16.4871 61.6566 16.4883 61.2891C16.4893 60.9719 17.3534 59.6995 18.0311 59.0172C18.3695 58.6766 18.5347 58.5501 18.8296 58.4061C19.1496 58.2498 19.2454 58.2247 19.5153 58.2264C19.8316 58.2282 20.1933 58.3238 20.5291 58.4939C20.6612 58.5608 20.7367 58.6452 20.8092 58.8072C20.9018 59.014 20.9095 59.1271 20.9234 60.4819L20.9383 61.9348L19.7163 61.9238C19.0442 61.9177 18.2498 61.8965 17.9509 61.8766H17.9509Z" fill="white" stroke="white" stroke-width="0.070176" stroke-linecap="round" stroke-linejoin="round"/>
<path d="M27.3487 72.0435C27.3294 71.9659 27.3302 71.3599 27.3505 70.6969C27.3898 69.4143 27.3616 69.1213 27.1938 69.0674C27.1459 69.0521 26.6411 69.1543 26.0719 69.2945C24.4665 69.6901 24.0829 69.7159 23.8325 69.4454C23.6816 69.2824 23.6438 69.0606 23.6168 68.1801C23.576 66.8503 23.7147 65.3938 23.8909 65.3002C23.9923 65.2463 24.7748 65.1343 25.6422 65.0494C26.6639 64.9494 28.3378 64.8268 28.3612 64.8503C28.3853 64.8746 28.1828 67.0038 28.0408 68.218C27.8096 70.196 27.5705 71.7323 27.4474 72.0304L27.3838 72.1846L27.3487 72.0435Z" fill="white" stroke="white" stroke-width="0.070176" stroke-linecap="round" stroke-linejoin="round"/>
<path d="M23.6246 60.6407C23.6294 59.1356 23.6615 58.8606 23.8591 58.6273C24.0096 58.4495 24.6697 58.1313 24.9717 58.0909C25.1368 58.0688 25.2328 58.0857 25.3969 58.1658C25.8029 58.364 27.0045 59.605 27.4908 60.3284C27.8841 60.9134 28.0897 61.4578 27.971 61.5999C27.8722 61.7181 27.0307 61.8159 25.1796 61.924C24.5428 61.9612 23.9314 61.9995 23.821 62.009L23.6201 62.0264L23.6246 60.6407Z" fill="white" stroke="white" stroke-width="0.070176" stroke-linecap="round" stroke-linejoin="round"/>
<path d="M23.7248 63.9521C23.6223 63.8767 23.5782 63.2732 23.6599 63.0633C23.7472 62.8388 23.9075 62.8091 25.3188 62.756C26.0335 62.7291 27.1128 62.6757 27.7173 62.6374C28.3217 62.5992 28.8609 62.5748 28.9156 62.5832C29.0613 62.6058 27.8016 63.0591 27.0592 63.2512C26.7115 63.3412 26.0121 63.4989 25.5051 63.6015C24.6586 63.7729 24.3772 63.8397 23.9598 63.9681C23.8485 64.0024 23.7873 63.9982 23.7248 63.9522V63.9521Z" fill="white" stroke="white" stroke-width="0.070176" stroke-linecap="round" stroke-linejoin="round"/>
<path d="M17.6583 64.1915C16.6509 64.1453 15.8922 64.0705 15.706 63.999C15.4898 63.916 15.4173 63.7363 15.4187 63.2871C15.4211 62.5671 15.5388 62.504 16.7913 62.5513C17.6922 62.5854 19.7297 62.7534 20.2487 62.8363C20.4356 62.8662 20.656 62.932 20.7384 62.9825L20.8883 63.0743L20.8652 63.4513C20.8386 63.8873 20.7482 64.0515 20.4869 64.1382C20.2582 64.214 18.7642 64.2422 17.6583 64.1915H17.6583Z" fill="white" stroke="white" stroke-width="0.070176" stroke-linecap="round" stroke-linejoin="round"/>
<path d="M42.3398 81.0626C41.976 81.0537 40.4028 81.0195 38.8438 80.9866C31.7074 80.8359 27.0985 80.6479 25.4982 80.4422C24.2931 80.2872 22.7216 79.9473 21.603 79.5996C21.0955 79.4418 19.7197 78.9104 19.4275 78.7593C19.2493 78.6672 19.253 78.6671 23.4514 78.6484C27.0549 78.6324 60.6616 78.6492 67.9201 78.6705L70.3888 78.6778L70.385 79.8284L70.3813 80.9791L66.2117 80.9996C63.9184 81.011 60.6069 81.0363 58.8528 81.0559C55.761 81.0904 43.6772 81.0954 42.3398 81.0626L42.3398 81.0626Z" fill="white" stroke="white" stroke-width="0.070176" stroke-linecap="round" stroke-linejoin="round"/>
<path d="M37.5875 76.5973C37.4093 76.3706 37.1872 76.0254 37.0939 75.8302C36.9305 75.4883 36.9243 75.4561 36.926 74.9535C36.9286 74.1461 37.0145 74.0704 38.017 73.9922C38.8788 73.9251 39.7558 73.9372 40.1068 74.0211C40.5072 74.1169 40.8589 74.3024 41.7222 74.8733L42.4533 75.3568L63.667 75.3592L84.8806 75.3616L85.6618 74.8538C86.981 73.9963 87.1036 73.9549 88.3106 73.96C89.176 73.9636 89.899 74.0219 90.1148 74.1054C90.2935 74.1746 90.3839 74.3364 90.4389 74.685C90.496 75.0464 90.4316 75.4853 90.2701 75.8363C90.2105 75.966 89.9958 76.2896 89.793 76.5553L89.4244 77.0384L87.5042 77.0333C86.4481 77.0305 76.7818 77.0307 66.0236 77.0338C55.2654 77.0369 44.5391 77.0328 42.1874 77.0245L37.9115 77.0096L37.5875 76.5973ZM39.1513 76.2118C39.3531 76.1363 39.5409 75.9342 39.5956 75.7336C39.7385 75.2097 39.0976 74.7709 38.5317 75.0052C38.067 75.1976 38.0575 75.9882 38.5175 76.19C38.7011 76.2705 38.9697 76.2797 39.1513 76.2118L39.1513 76.2118ZM89.023 75.6656C89.2347 75.5685 89.2373 75.4201 89.0303 75.2317C88.9531 75.1613 88.8729 75.1558 88.3663 75.1858C87.9073 75.213 87.7704 75.2376 87.6936 75.3066C87.4141 75.558 87.8142 75.7682 88.5174 75.7395C88.7254 75.731 88.9528 75.6978 89.023 75.6656V75.6656Z" fill="white" stroke="white" stroke-width="0.070176" stroke-linecap="round" stroke-linejoin="round"/>
<path d="M31.1715 71.8726C31.1054 71.771 31.0961 71.682 31.1202 71.3821C31.1931 70.4744 31.2136 69.1318 31.1622 68.6252C31.0483 67.5026 30.7871 66.3241 30.5024 65.6488C30.2066 64.9469 30.1208 64.6487 30.1429 64.3983C30.1945 63.8145 30.537 63.4664 31.6521 62.8646C33.0006 62.1369 34.8573 60.7888 36.1969 59.5647C36.419 59.3617 36.8769 58.8899 37.2146 58.5161C37.5522 58.1423 37.8337 57.8416 37.84 57.848C37.8463 57.8544 37.8836 58.0607 37.9229 58.3065C38.1654 59.8253 38.6747 67.2127 38.669 69.1292L38.6674 69.6282L37.4489 70.2217C36.7787 70.5481 35.9643 70.9192 35.6391 71.0463C34.2178 71.6019 32.867 71.9321 31.8496 71.9728L31.2522 71.9967L31.1714 71.8726L31.1715 71.8726Z" fill="white" stroke="white" stroke-width="0.070176" stroke-linecap="round" stroke-linejoin="round"/>
<path d="M28.7491 72.2304C28.679 72.1994 28.6741 71.9827 28.7364 71.66C28.8021 71.3196 28.9153 70.2773 29.0303 68.9533C29.1882 67.1366 29.3451 66.1631 29.4678 66.2395C29.5458 66.2881 29.6473 66.5808 29.7182 66.9619C29.8475 67.6562 29.8972 68.6924 29.8638 69.9954C29.8204 71.6872 29.7594 71.9996 29.442 72.1516C29.3099 72.2148 28.8359 72.2688 28.7491 72.2304V72.2304Z" fill="white" stroke="white" stroke-width="0.070176" stroke-linecap="round" stroke-linejoin="round"/>
<path d="M85.0693 71.1886C83.4271 71.0627 82.2852 70.6238 81.5661 69.842C81.2093 69.4542 81.0016 69.0603 80.8669 68.5159C80.7369 67.9903 80.7637 67.1095 80.9251 66.6008C81.1344 65.9414 81.549 65.3026 82.1643 64.6912C82.9668 63.8938 84.9079 62.8939 85.7876 62.8247C86.0417 62.8047 86.1074 62.8185 86.3228 62.9366C86.6313 63.1058 87.2253 63.7328 87.5671 64.2502C87.9702 64.8602 88.3303 65.6169 88.4368 66.0777C88.7632 67.4892 88.5602 69.8669 88.0355 70.7788C87.8768 71.0546 87.7066 71.131 87.1412 71.1802C86.6811 71.2201 85.5412 71.2248 85.0693 71.1886V71.1886Z" fill="white" stroke="white" stroke-width="0.070176" stroke-linecap="round" stroke-linejoin="round"/>
<path d="M89.5305 70.8381C89.5144 70.7959 89.5563 70.5226 89.6234 70.2308C90.0455 68.3964 90.0289 66.9382 89.57 65.5434C89.3606 64.9069 89.1251 64.4336 88.4995 63.3922C88.1875 62.8729 87.9323 62.428 87.9324 62.4036C87.9326 62.3465 88.0773 62.3192 88.7138 62.2562C90.2425 62.1049 90.3331 62.0755 90.4134 61.7059C90.4856 61.3732 90.2342 61.0176 89.8846 60.9578C89.2772 60.8539 89.2358 60.7738 89.2808 59.7883C89.3389 58.5157 89.5704 56.1304 89.65 55.9851C89.7241 55.8497 90.9315 56.784 91.6113 57.5028C93.014 58.9862 94.0108 61.1937 94.3055 63.4699C94.3764 64.0172 94.36 65.2486 94.275 65.7696C94.0754 66.9928 93.4599 68.2596 92.5724 69.2738C92.0425 69.8794 91.3554 70.318 90.3626 70.6844C89.7728 70.9021 89.5691 70.9397 89.5305 70.8381V70.8381Z" fill="white" stroke="white" stroke-width="0.070176" stroke-linecap="round" stroke-linejoin="round"/>
<path d="M70.4422 79.8267L70.4458 78.6841L84.5979 78.7424C97.1166 78.794 98.7553 78.8089 98.7952 78.8717C98.9041 79.0432 98.9444 79.3241 98.9655 80.0597L98.988 80.8456L97.4583 80.8689C96.617 80.8818 92.2823 80.9026 87.8257 80.9151C83.369 80.9277 77.6337 80.945 75.0806 80.9536L70.4385 80.9693L70.4422 79.8267Z" fill="white" stroke="white" stroke-width="0.070176" stroke-linecap="round" stroke-linejoin="round"/>
<path d="M21.5208 54.9755L21.5306 51.927L22.3062 51.9294L23.0818 51.9317L23.0404 52.5831C23.0177 52.9413 22.9766 54.2754 22.9493 55.5477L22.8995 57.8609L22.3956 57.9049C22.1185 57.9291 21.8061 57.9658 21.7014 57.9864L21.511 58.0238L21.5208 54.9755Z" fill="white" stroke="white" stroke-width="0.0992436" stroke-linecap="round" stroke-linejoin="round"/>
<path d="M21.504 60.2456L21.5095 58.5417L22.2779 58.5441L23.0463 58.5465L23.0408 60.2503L23.0353 61.9542L22.2669 61.9518L21.4985 61.9494L21.504 60.2456Z" fill="white" stroke="white" stroke-width="0.0992436" stroke-linecap="round" stroke-linejoin="round"/>
<path d="M21.9804 64.3028C21.5899 64.2731 21.5246 64.163 21.5267 63.5376C21.5288 62.8751 21.5871 62.8184 22.264 62.8206C22.9156 62.8227 22.9866 62.8851 23.0185 63.4841C23.0587 64.2382 22.8891 64.3719 21.9804 64.3028V64.3028Z" fill="white" stroke="white" stroke-width="0.0992436" stroke-linecap="round" stroke-linejoin="round"/>
<path d="M21.9388 69.2041C21.8449 69.1518 21.7293 69.0242 21.6817 68.9204C21.5634 68.6623 21.4865 67.6159 21.4873 66.2759L21.4881 65.1567L22.2565 65.1591L23.0249 65.1615L23.0153 66.9823C23.0088 68.2084 22.9793 68.8793 22.9251 69.0366C22.8473 69.2625 22.8325 69.2707 22.4771 69.2847C22.2571 69.2933 22.041 69.2609 21.9389 69.204L21.9388 69.2041Z" fill="white" stroke="white" stroke-width="0.0992436" stroke-linecap="round" stroke-linejoin="round"/>
<path d="M21.6447 71.5831C21.5576 71.4861 21.535 71.3201 21.5367 70.7891C21.5394 69.9531 21.5734 69.9095 22.1261 70.034C22.8706 70.2017 23.0081 70.3633 23.0058 71.0677C23.0039 71.6368 22.9191 71.7094 22.2571 71.7072C21.8555 71.7059 21.7329 71.6811 21.6447 71.5831V71.5831Z" fill="white" stroke="white" stroke-width="0.0992436" stroke-linecap="round" stroke-linejoin="round"/>
</svg>
